<?xml version="1.0" encoding="utf-8"?>
<!-- Generator: Adobe Illustrator 27.5.0, SVG Export Plug-In . SVG Version: 6.00 Build 0)  -->
<svg version="1.1" id="Capa_1" xmlns="http://www.w3.org/2000/svg" xmlns:xlink="http://www.w3.org/1999/xlink" x="0px" y="0px"
	 viewBox="0 0 517.272 425.197" style="enable-background:new 0 0 517.272 425.197;" xml:space="preserve">
<rect x="0" y="0" style="fill:#FFFFFF;" width="517.272" height="425.197"/>
<g>
	<g>
		
			<line style="fill:none;stroke:#1B62A9;stroke-width:2.2421;stroke-linecap:round;stroke-linejoin:round;stroke-miterlimit:10;" x1="65.006" y1="308.815" x2="439.379" y2="308.815"/>
		
			<line style="fill:none;stroke:#1B62A9;stroke-width:2.2421;stroke-linecap:round;stroke-linejoin:round;stroke-miterlimit:10;" x1="118.506" y1="326.544" x2="410.012" y2="326.544"/>
		
			<line style="fill:none;stroke:#1B62A9;stroke-width:2.2421;stroke-linecap:round;stroke-linejoin:round;stroke-miterlimit:10;" x1="140.855" y1="344.272" x2="337.137" y2="344.272"/>
		
			<line style="fill:none;stroke:#1B62A9;stroke-width:2.2421;stroke-linecap:round;stroke-linejoin:round;stroke-miterlimit:10;" x1="256.173" y1="362.001" x2="416.779" y2="362.001"/>
		
			<line style="fill:none;stroke:#1B62A9;stroke-width:2.2421;stroke-linecap:round;stroke-linejoin:round;stroke-miterlimit:10;" x1="93.438" y1="372.704" x2="228.853" y2="372.704"/>
	</g>
	<g>
		<g>
			<g>
				<path style="fill:#FEC450;" d="M449.007,219.903c0-6.314-3.331-11.765-8.152-14.312c0.003-0.112,0.008-0.222,0.008-0.332
					c0-8.755-6.401-15.85-14.298-15.85c-7.897,0-14.299,7.095-14.299,15.85c0,0.25,0.006,0.499,0.018,0.746
					c-4.424,2.695-7.423,7.908-7.423,13.898c0,3.248,0.883,6.265,2.393,8.779c-1.636,2.579-2.601,5.719-2.601,9.111
					c0,8.754,6.402,15.851,14.298,15.851c2.913,0,5.619-0.969,7.879-2.625c2.259,1.656,4.966,2.625,7.879,2.625
					c7.897,0,14.298-7.097,14.298-15.851c0-3.319-0.922-6.398-2.495-8.945C448.084,226.301,449.007,223.223,449.007,219.903z"/>
			</g>
			<path style="fill:#1B62A9;" d="M426.058,242.48c0.371,13.608,0.795,32.141,0.785,45.375h1.3
				c0.011-14.491-0.497-35.324-0.887-49.105c1.726-0.718,7.314-4.456,8.522-22.972c0.023-0.358-0.248-0.668-0.607-0.691
				c-0.367-0.032-0.667,0.247-0.69,0.605c-1.064,16.29-5.522,20.558-7.267,21.614c-0.218-7.583-0.388-12.706-0.393-12.852
				c-0.012-0.359-0.294-0.645-0.671-0.628c-0.359,0.012-0.641,0.314-0.628,0.672c0.005,0.168,0.232,6.985,0.499,16.564
				c-2.346-1.026-8.936-4.794-8.315-14.625c0.022-0.358-0.251-0.666-0.608-0.69c-0.357-0.021-0.667,0.25-0.69,0.609
				C415.69,237.702,424.149,241.722,426.058,242.48z"/>
		</g>
		<polygon style="fill:#1FC4F4;" points="445.51,309.715 412.048,309.715 408.063,270.589 449.288,270.589 		"/>
		<rect x="405.283" y="268.285" style="fill:#1FC4F4;" width="46.783" height="8.705"/>
	</g>
	<g>
		<g>
			<g>
				<path style="fill:#FEC450;" d="M127.379,183.505c0-8.745-4.613-16.294-11.29-19.823c0.003-0.155,0.01-0.307,0.01-0.46
					c0-12.126-8.866-21.953-19.803-21.953c-10.938,0-19.803,9.827-19.803,21.953c0,0.346,0.007,0.691,0.023,1.034
					c-6.126,3.732-10.28,10.952-10.28,19.249c0,4.497,1.223,8.676,3.314,12.159c-2.266,3.571-3.602,7.92-3.602,12.618
					c0,12.125,8.867,21.953,19.803,21.953c4.034,0,7.783-1.342,10.913-3.636c3.127,2.294,6.877,3.636,10.911,3.636
					c10.937,0,19.802-9.829,19.802-21.953c0-4.597-1.277-8.86-3.456-12.388C126.102,192.365,127.379,188.102,127.379,183.505z"/>
			</g>
			<path style="fill:#1B62A9;" d="M95.596,214.774c0.512,18.847,1.1,44.514,1.086,62.842h1.801
				c0.016-20.069-0.688-48.923-1.229-68.008c2.391-0.995,10.13-6.17,11.804-31.815c0.032-0.497-0.343-0.925-0.84-0.957
				c-0.509-0.044-0.924,0.342-0.957,0.84c-1.474,22.56-7.646,28.472-10.064,29.935c-0.302-10.502-0.537-17.598-0.545-17.8
				c-0.017-0.498-0.406-0.893-0.93-0.87c-0.497,0.018-0.887,0.435-0.87,0.932c0.007,0.232,0.322,9.674,0.69,22.94
				c-3.249-1.42-12.376-6.639-11.516-20.254c0.031-0.497-0.348-0.922-0.843-0.955c-0.494-0.03-0.924,0.345-0.956,0.842
				C81.236,208.155,92.951,213.723,95.596,214.774z"/>
		</g>
		<polygon style="fill:#1FC4F4;" points="122.536,307.891 76.192,307.891 70.672,253.704 127.767,253.704 		"/>
		<rect x="66.823" y="250.512" style="fill:#1FC4F4;" width="64.794" height="12.056"/>
	</g>
	<g>
		<g>
			<rect x="220.698" y="271.767" style="fill:#16518E;" width="90.542" height="29.974"/>
			<g>
				<g>
					<g>
						<rect x="137.92" y="131.606" style="fill:#1B62A9;" width="256.099" height="141.677"/>
					</g>
					<g>
						<rect x="150.109" y="141.351" style="fill:#1FC4F4;" width="231.72" height="118.616"/>
					</g>
					<g>
						<g>
							<path style="fill:#1FC4F4;" d="M265.542,139.46c1.291,0,2.34-1.006,2.34-2.257c0-1.246-1.049-2.255-2.34-2.255
								c-1.292,0-2.337,1.009-2.337,2.255C263.205,138.453,264.251,139.46,265.542,139.46z"/>
						</g>
					</g>
				</g>
			</g>
			<rect x="193.909" y="300.226" style="fill:#1B62A9;" width="144.121" height="7.676"/>
			<g>
				<rect x="169.131" y="200.359" style="fill:#FFFFFF;" width="51.233" height="37.621"/>
				<rect x="239.449" y="200.359" style="fill:#FFFFFF;" width="51.233" height="37.621"/>
				<rect x="313.235" y="200.359" style="fill:#FFFFFF;" width="51.233" height="37.621"/>
				<g>
					
						<rect x="202.006" y="207.662" transform="matrix(0.6293 -0.7772 0.7772 0.6293 -88.8412 238.9635)" style="fill:#FEC450;" width="8.121" height="9.891"/>
					
						<rect x="176.737" y="208.546" transform="matrix(0.7771 -0.6293 0.6293 0.7771 -93.3098 161.7173)" style="fill:#FEC450;" width="9.89" height="8.122"/>
					<rect x="182.929" y="206.339" style="fill:#FEC450;" width="21.841" height="28.176"/>
					<polygon style="fill:#FAA73F;" points="188.727,206.339 193.987,210.609 199.251,206.339 					"/>
				</g>
				<g>
					<g>
						<g>
							<path style="fill:#F0516F;" d="M255.094,235.044h19.327c-0.29-2.239-0.269-6.924,1.986-15.879
								c1.969-4.838,1.711-14.772,1.711-14.772h-2.045c0.388,3.945-0.372,7.71-0.663,8.962c-1.145-1.468-2.926-2.278-4.928-2.415
								c-2.037-0.138-4.809,0.204-5.762,2.43c-0.955-2.226-3.756-2.531-5.72-2.43c-2.198,0.112-4.13,1.14-5.243,2.858
								c-0.003-0.002-0.003-0.004-0.003-0.004s-1.245-4.566-0.77-9.402h-2.045c0,0-0.005,9.372,1.976,14.202
								C252.919,218.602,255.868,229.033,255.094,235.044z"/>
						</g>
					</g>
				</g>
				<g>
					<g>
						<g>
							<path style="fill:#EFB049;" d="M337.927,213.542c0,0-4.146-7.599-1.585-9.655c1.169-0.937,3.988-1.696,5.881,1.129
								c0.967,1.441,0.465,3.798-2.445,8.648L337.927,213.542z"/>
							<path style="fill:#E29839;" d="M338.259,212.782c0,0-3.631-7.01-0.965-7.95c0.694-0.245,1.635,0.631,1.876,3.548
								C339.482,212.094,338.259,212.782,338.259,212.782z"/>
						</g>
						<g>
							<path style="fill:#EFB049;" d="M339.09,212.728c0,0,2.607-8.255,5.867-7.831c1.482,0.191,3.984,1.698,3.258,5.019
								c-0.372,1.697-2.414,2.969-7.928,4.231L339.09,212.728z"/>
							<path style="fill:#E29839;" d="M339.869,212.441c0,0,2.539-7.475,5.063-6.205c0.66,0.331,0.678,1.618-1.255,3.813
								C341.212,212.846,339.869,212.441,339.869,212.441z"/>
						</g>
						<g>
							<path style="fill:#EFB049;" d="M338.589,212.96c0,0-2.522-8.281-5.784-7.893c-1.485,0.177-4.002,1.657-3.311,4.986
								c0.351,1.699,2.382,2.993,7.883,4.314L338.589,212.96z"/>
							<path style="fill:#E29839;" d="M337.813,212.665c0,0-2.461-7.501-4.997-6.257c-0.664,0.325-0.697,1.61,1.214,3.826
								C336.465,213.056,337.813,212.665,337.813,212.665z"/>
						</g>
					</g>
					<rect x="328.823" y="214.813" style="fill:#F0516F;" width="19.8" height="18.794"/>
					<rect x="327.959" y="213.114" style="fill:#FEC450;" width="21.526" height="3.399"/>
				</g>
				<g>
					<path style="fill:#F0516F;" d="M203.592,212.029l-2.509-1.747h-3.614l-2.56,1.759v10.398h8.682V212.029z M199.268,212.374
						c-0.357,0-0.646-0.289-0.646-0.646c0-0.357,0.289-0.646,0.646-0.646c0.356,0,0.646,0.289,0.646,0.646
						C199.914,212.085,199.624,212.374,199.268,212.374z"/>
					<g>
						<g>
							<path style="fill:#FFFFFF;" d="M196.395,216.441c0-0.259,0.028-0.484,0.083-0.676c0.055-0.191,0.133-0.351,0.233-0.478
								c0.1-0.127,0.219-0.222,0.358-0.284c0.139-0.063,0.292-0.094,0.458-0.094c0.167,0,0.32,0.031,0.459,0.094
								c0.139,0.062,0.258,0.157,0.358,0.284c0.1,0.127,0.178,0.287,0.233,0.478c0.055,0.192,0.083,0.417,0.083,0.676
								c0,0.256-0.028,0.48-0.083,0.672c-0.055,0.192-0.133,0.351-0.233,0.478c-0.1,0.127-0.219,0.222-0.358,0.286
								c-0.139,0.063-0.292,0.095-0.459,0.095c-0.167,0-0.32-0.032-0.458-0.095c-0.139-0.064-0.258-0.159-0.358-0.286
								c-0.1-0.127-0.178-0.286-0.233-0.478C196.422,216.922,196.395,216.698,196.395,216.441z M197.891,216.441
								c0-0.132-0.006-0.253-0.018-0.363c-0.012-0.111-0.032-0.206-0.059-0.286c-0.028-0.08-0.066-0.143-0.111-0.189
								s-0.104-0.069-0.175-0.069c-0.07,0-0.128,0.023-0.174,0.069c-0.046,0.046-0.083,0.109-0.111,0.189
								c-0.028,0.08-0.048,0.175-0.06,0.286c-0.012,0.11-0.018,0.232-0.018,0.363c0,0.129,0.006,0.25,0.018,0.361
								c0.012,0.112,0.032,0.208,0.06,0.288c0.028,0.08,0.065,0.143,0.111,0.189c0.046,0.046,0.104,0.069,0.174,0.069
								c0.071,0,0.129-0.023,0.175-0.069s0.083-0.109,0.111-0.189c0.028-0.08,0.048-0.176,0.059-0.288
								C197.884,216.691,197.891,216.571,197.891,216.441z M201.171,215.228l-3.443,4.615l-0.458-0.353l3.443-4.614L201.171,215.228
								z M199.788,218.241c0-0.259,0.027-0.484,0.083-0.676c0.056-0.191,0.133-0.351,0.233-0.478c0.1-0.127,0.219-0.222,0.358-0.284
								c0.139-0.062,0.292-0.093,0.458-0.093c0.167,0,0.32,0.031,0.458,0.093c0.139,0.063,0.258,0.157,0.358,0.284
								c0.1,0.127,0.177,0.287,0.232,0.478c0.055,0.192,0.083,0.417,0.083,0.676c0,0.256-0.028,0.48-0.083,0.672
								c-0.055,0.192-0.133,0.351-0.232,0.478c-0.1,0.127-0.22,0.222-0.358,0.286c-0.139,0.064-0.291,0.095-0.458,0.095
								c-0.167,0-0.32-0.032-0.458-0.095c-0.139-0.064-0.258-0.159-0.358-0.286c-0.1-0.127-0.177-0.286-0.233-0.478
								C199.816,218.721,199.788,218.497,199.788,218.241z M201.284,218.241c0-0.132-0.006-0.253-0.018-0.363
								c-0.012-0.111-0.032-0.206-0.06-0.286c-0.028-0.08-0.065-0.142-0.111-0.188c-0.046-0.046-0.105-0.069-0.175-0.069
								c-0.071,0-0.129,0.023-0.175,0.069c-0.046,0.046-0.083,0.109-0.111,0.188c-0.028,0.08-0.048,0.175-0.06,0.286
								c-0.012,0.11-0.018,0.231-0.018,0.363c0,0.129,0.006,0.25,0.018,0.361c0.012,0.112,0.032,0.208,0.06,0.288
								c0.028,0.08,0.065,0.143,0.111,0.189c0.046,0.046,0.104,0.069,0.175,0.069c0.07,0,0.129-0.023,0.175-0.069
								c0.045-0.046,0.083-0.109,0.111-0.189c0.028-0.08,0.048-0.176,0.06-0.288C201.278,218.491,201.284,218.37,201.284,218.241z"
								/>
						</g>
					</g>
					<g>
						<path style="fill:#FFFFFF;" d="M199.251,212.376c-0.151,0-0.272-0.07-0.272-0.07v-5.692c0-0.151,0.122-0.274,0.272-0.274
							c0.151,0,0.273,0.122,0.273,0.274v5.708C199.447,212.36,199.402,212.376,199.251,212.376z"/>
					</g>
				</g>
				<g>
					<path style="fill:#FEC450;" d="M279.737,219.326l-2.79-1.945h-4.02l-2.848,1.957v11.567h9.657V219.326z M274.927,219.709
						c-0.397,0-0.718-0.321-0.718-0.717c0-0.398,0.321-0.72,0.718-0.72c0.397,0,0.719,0.322,0.719,0.72
						C275.646,219.388,275.324,219.709,274.927,219.709z"/>
					<g>
						<g>
							<path style="fill:#FFFFFF;" d="M271.73,224.234c0-0.288,0.031-0.539,0.092-0.751c0.061-0.213,0.148-0.391,0.259-0.532
								c0.111-0.141,0.244-0.246,0.398-0.315c0.154-0.069,0.324-0.104,0.51-0.104c0.185,0,0.355,0.035,0.51,0.104
								c0.154,0.069,0.287,0.174,0.398,0.315c0.111,0.142,0.198,0.319,0.259,0.532c0.061,0.213,0.092,0.463,0.092,0.751
								c0,0.285-0.031,0.534-0.092,0.748c-0.062,0.213-0.148,0.39-0.259,0.532c-0.111,0.141-0.244,0.247-0.398,0.318
								c-0.154,0.07-0.324,0.106-0.51,0.106c-0.186,0-0.356-0.036-0.51-0.106c-0.154-0.071-0.287-0.177-0.398-0.318
								c-0.111-0.142-0.198-0.319-0.259-0.532C271.761,224.768,271.73,224.519,271.73,224.234z M273.394,224.234
								c0-0.146-0.006-0.281-0.02-0.404c-0.013-0.123-0.035-0.229-0.066-0.318c-0.032-0.089-0.073-0.159-0.124-0.21
								c-0.051-0.051-0.116-0.077-0.194-0.077c-0.079,0-0.144,0.025-0.194,0.077c-0.051,0.051-0.092,0.121-0.124,0.21
								c-0.032,0.089-0.054,0.195-0.067,0.318c-0.013,0.123-0.02,0.258-0.02,0.404c0,0.144,0.006,0.278,0.02,0.402
								c0.013,0.124,0.035,0.231,0.067,0.32c0.031,0.089,0.072,0.159,0.124,0.21c0.051,0.051,0.116,0.077,0.194,0.077
								c0.078,0,0.143-0.025,0.194-0.077c0.051-0.051,0.092-0.121,0.124-0.21c0.031-0.089,0.053-0.195,0.066-0.32
								C273.388,224.512,273.394,224.378,273.394,224.234z M277.044,222.884l-3.83,5.133l-0.51-0.392l3.83-5.133L277.044,222.884z
								 M275.505,226.235c0-0.288,0.031-0.538,0.092-0.751c0.062-0.213,0.148-0.39,0.259-0.532c0.111-0.141,0.244-0.247,0.398-0.316
								c0.154-0.069,0.325-0.104,0.51-0.104c0.186,0,0.356,0.035,0.51,0.104c0.154,0.069,0.287,0.175,0.398,0.316
								c0.111,0.142,0.197,0.319,0.259,0.532c0.062,0.213,0.092,0.464,0.092,0.751c0,0.286-0.031,0.535-0.092,0.748
								c-0.061,0.213-0.148,0.39-0.259,0.532c-0.111,0.141-0.244,0.247-0.398,0.318c-0.154,0.07-0.324,0.106-0.51,0.106
								c-0.186,0-0.356-0.036-0.51-0.106c-0.154-0.071-0.287-0.177-0.398-0.318c-0.111-0.142-0.198-0.319-0.259-0.532
								C275.536,226.77,275.505,226.52,275.505,226.235z M277.169,226.235c0-0.146-0.006-0.281-0.02-0.404
								c-0.013-0.123-0.036-0.229-0.067-0.318c-0.031-0.089-0.073-0.159-0.124-0.21c-0.051-0.051-0.116-0.077-0.194-0.077
								c-0.079,0-0.143,0.025-0.194,0.077c-0.051,0.051-0.092,0.121-0.124,0.21c-0.031,0.089-0.054,0.195-0.066,0.318
								c-0.013,0.123-0.02,0.257-0.02,0.404c0,0.144,0.007,0.278,0.02,0.402c0.013,0.124,0.035,0.231,0.066,0.32
								c0.031,0.089,0.073,0.159,0.124,0.21c0.051,0.051,0.116,0.077,0.194,0.077c0.079,0,0.144-0.025,0.194-0.077
								c0.051-0.051,0.092-0.121,0.124-0.21c0.031-0.089,0.054-0.195,0.067-0.32C277.163,226.513,277.169,226.379,277.169,226.235z"
								/>
						</g>
					</g>
					<g>
						<path style="fill:#FFFFFF;" d="M274.908,219.711c-0.168,0-0.303-0.078-0.303-0.078v-6.333c0-0.167,0.136-0.304,0.303-0.304
							c0.168,0,0.304,0.136,0.304,0.304v6.35C275.126,219.695,275.076,219.711,274.908,219.711z"/>
					</g>
				</g>
				<g>
					<path style="fill:#FEC450;" d="M345.254,217.99l-2.15-1.498h-3.097L337.813,218v8.914h7.442V217.99z M341.547,218.286
						c-0.306,0-0.554-0.248-0.554-0.553c0-0.306,0.248-0.554,0.554-0.554c0.306,0,0.554,0.248,0.554,0.554
						C342.102,218.038,341.853,218.286,341.547,218.286z"/>
					<g>
						<g>
							<path style="fill:#FFFFFF;" d="M339.084,221.773c0-0.222,0.023-0.415,0.071-0.579c0.047-0.165,0.114-0.301,0.2-0.41
								c0.086-0.109,0.188-0.19,0.307-0.243c0.119-0.053,0.249-0.08,0.393-0.08c0.143,0,0.274,0.027,0.393,0.08
								c0.119,0.053,0.221,0.134,0.307,0.243c0.086,0.109,0.152,0.246,0.2,0.41c0.047,0.164,0.071,0.357,0.071,0.579
								c0,0.22-0.024,0.412-0.071,0.576c-0.047,0.164-0.114,0.301-0.2,0.41c-0.085,0.108-0.188,0.191-0.307,0.245
								c-0.119,0.055-0.25,0.081-0.393,0.081c-0.144,0-0.274-0.027-0.393-0.081c-0.119-0.054-0.222-0.136-0.307-0.245
								c-0.086-0.109-0.152-0.246-0.2-0.41C339.108,222.184,339.084,221.992,339.084,221.773z M340.367,221.773
								c0-0.113-0.005-0.217-0.015-0.312c-0.01-0.095-0.027-0.177-0.052-0.245c-0.024-0.068-0.056-0.122-0.095-0.162
								c-0.039-0.04-0.089-0.059-0.149-0.059c-0.061,0-0.11,0.02-0.15,0.059c-0.039,0.039-0.071,0.093-0.095,0.162
								c-0.024,0.068-0.042,0.15-0.051,0.245c-0.01,0.095-0.015,0.198-0.015,0.312c0,0.111,0.005,0.214,0.015,0.31
								c0.01,0.096,0.027,0.178,0.051,0.246c0.024,0.069,0.056,0.123,0.095,0.162c0.04,0.04,0.089,0.059,0.15,0.059
								c0.061,0,0.11-0.02,0.149-0.059c0.04-0.039,0.071-0.093,0.095-0.162c0.024-0.068,0.042-0.15,0.052-0.246
								C340.361,221.986,340.367,221.883,340.367,221.773z M343.179,220.732l-2.951,3.956l-0.393-0.303l2.951-3.955L343.179,220.732
								z M341.994,223.314c0-0.222,0.024-0.415,0.071-0.579c0.047-0.164,0.114-0.301,0.2-0.41c0.086-0.109,0.188-0.19,0.307-0.244
								c0.119-0.053,0.25-0.08,0.393-0.08c0.143,0,0.274,0.027,0.393,0.08c0.119,0.054,0.221,0.135,0.307,0.244
								c0.086,0.109,0.152,0.246,0.2,0.41c0.047,0.165,0.071,0.357,0.071,0.579c0,0.22-0.024,0.412-0.071,0.576
								c-0.047,0.164-0.114,0.301-0.2,0.41c-0.085,0.109-0.188,0.19-0.307,0.245c-0.119,0.054-0.25,0.082-0.393,0.082
								c-0.143,0-0.274-0.027-0.393-0.082c-0.119-0.055-0.221-0.136-0.307-0.245c-0.086-0.109-0.152-0.246-0.2-0.41
								C342.017,223.726,341.994,223.534,341.994,223.314z M343.275,223.314c0-0.113-0.005-0.217-0.015-0.311
								c-0.01-0.095-0.027-0.176-0.051-0.245c-0.024-0.069-0.056-0.122-0.095-0.162c-0.039-0.039-0.089-0.059-0.149-0.059
								c-0.06,0-0.111,0.02-0.15,0.059c-0.039,0.04-0.071,0.093-0.095,0.162c-0.024,0.068-0.042,0.15-0.051,0.245
								c-0.01,0.095-0.015,0.199-0.015,0.311c0,0.111,0.005,0.214,0.015,0.31c0.01,0.096,0.027,0.178,0.051,0.247
								c0.024,0.068,0.056,0.122,0.095,0.162c0.039,0.039,0.089,0.059,0.15,0.059c0.06,0,0.11-0.02,0.149-0.059
								c0.04-0.04,0.071-0.093,0.095-0.162c0.024-0.069,0.042-0.151,0.051-0.247C343.271,223.529,343.275,223.425,343.275,223.314z"
								/>
						</g>
					</g>
					<g>
						<path style="fill:#FFFFFF;" d="M341.533,218.287c-0.13,0-0.234-0.06-0.234-0.06v-4.88c0-0.128,0.104-0.233,0.234-0.233
							c0.129,0,0.234,0.105,0.234,0.233v4.893C341.7,218.274,341.663,218.287,341.533,218.287z"/>
					</g>
				</g>
			</g>
		</g>
		<g>
			<g>
				<g>
					<path style="fill:#D83861;" d="M137.036,170.263v4.568c0,4.476,3.628,8.102,8.104,8.102c4.475,0,8.104-3.626,8.104-8.102
						v-4.568H137.036z"/>
					<path style="fill:#EA9847;" d="M153.244,170.263v4.568c0,4.476,3.628,8.102,8.104,8.102c4.475,0,8.103-3.626,8.103-8.102
						v-4.568H153.244z"/>
					<path style="fill:#D83861;" d="M169.451,170.263v4.568c0,4.476,3.63,8.102,8.105,8.102s8.104-3.626,8.104-8.102v-4.568H169.451
						z"/>
					<path style="fill:#EA9847;" d="M185.659,170.263v4.568c0,4.476,3.629,8.102,8.104,8.102c4.475,0,8.104-3.626,8.104-8.102
						v-4.568H185.659z"/>
					<path style="fill:#D83861;" d="M201.867,170.263v4.568c0,4.476,3.629,8.102,8.104,8.102c4.475,0,8.104-3.626,8.104-8.102
						v-4.568H201.867z"/>
					<path style="fill:#EA9847;" d="M218.075,170.263v4.568c0,4.476,3.629,8.102,8.104,8.102c4.476,0,8.104-3.626,8.104-8.102
						v-4.568H218.075z"/>
					<path style="fill:#D83861;" d="M234.283,170.263v4.568c0,4.476,3.629,8.102,8.105,8.102c4.475,0,8.103-3.626,8.103-8.102
						v-4.568H234.283z"/>
					<path style="fill:#EA9847;" d="M250.491,170.263v4.568c0,4.476,3.63,8.102,8.104,8.102c4.476,0,8.104-3.626,8.104-8.102v-4.568
						H250.491z"/>
				</g>
				<g>
					<path style="fill:#D83861;" d="M266.698,170.263v4.568c0,4.476,3.629,8.102,8.104,8.102c4.476,0,8.104-3.626,8.104-8.102
						v-4.568H266.698z"/>
					<path style="fill:#EA9847;" d="M282.907,170.263v4.568c0,4.476,3.628,8.102,8.104,8.102c4.475,0,8.104-3.626,8.104-8.102
						v-4.568H282.907z"/>
					<path style="fill:#D83861;" d="M299.115,170.263v4.568c0,4.476,3.628,8.102,8.104,8.102c4.476,0,8.104-3.626,8.104-8.102
						v-4.568H299.115z"/>
					<path style="fill:#EA9847;" d="M315.322,170.263v4.568c0,4.476,3.629,8.102,8.104,8.102c4.475,0,8.104-3.626,8.104-8.102
						v-4.568H315.322z"/>
					<path style="fill:#D83861;" d="M331.53,170.263v4.568c0,4.476,3.629,8.102,8.104,8.102c4.475,0,8.105-3.626,8.105-8.102v-4.568
						H331.53z"/>
					<path style="fill:#EA9847;" d="M347.739,170.263v4.568c0,4.476,3.628,8.102,8.104,8.102c4.474,0,8.104-3.626,8.104-8.102
						v-4.568H347.739z"/>
					<path style="fill:#D83861;" d="M363.946,170.263v4.568c0,4.476,3.629,8.102,8.104,8.102c4.476,0,8.104-3.626,8.104-8.102
						v-4.568H363.946z"/>
					<path style="fill:#EA9847;" d="M380.154,170.263v4.568c0,4.476,3.629,8.102,8.104,8.102c4.476,0,8.104-3.626,8.104-8.102
						v-4.568H380.154z"/>
				</g>
			</g>
			<g>
				<g>
					<g>
						<path style="fill:#F0516F;" d="M150.233,141.35c-4.409,9.633-8.773,19.289-13.197,28.913h16.208
							c4.289-9.652,8.608-19.289,12.955-28.913H150.233z"/>
						<path style="fill:#FEC450;" d="M166.199,141.35c-4.347,9.624-8.665,19.261-12.955,28.913h16.207
							c3.989-9.667,8.074-19.292,12.17-28.913H166.199z"/>
						<path style="fill:#F0516F;" d="M181.621,141.35c-4.096,9.621-8.182,19.246-12.17,28.913h16.208
							c3.556-9.665,7.211-19.289,10.871-28.913H181.621z"/>
						<path style="fill:#FEC450;" d="M196.53,141.35c-3.66,9.624-7.315,19.248-10.871,28.913h16.208
							c2.992-9.664,6.097-19.288,9.197-28.913H196.53z"/>
						<path style="fill:#F0516F;" d="M211.064,141.35c-3.1,9.626-6.205,19.25-9.197,28.913h16.208
							c2.33-9.658,4.776-19.283,7.208-28.913H211.064z"/>
						<path style="fill:#FEC450;" d="M225.283,141.35c-2.431,9.63-4.878,19.255-7.208,28.913h16.208
							c1.595-9.652,3.298-19.28,4.977-28.913H225.283z"/>
						<path style="fill:#F0516F;" d="M239.26,141.35c-1.679,9.633-3.382,19.261-4.977,28.913h16.208
							c0.808-9.646,1.711-19.278,2.582-28.913H239.26z"/>
						<path style="fill:#FEC450;" d="M253.073,141.35c-0.872,9.635-1.774,19.267-2.582,28.913h16.208
							c-0.005-9.642,0.065-19.278,0.102-28.913H253.073z"/>
					</g>
					<g>
						<path style="fill:#F0516F;" d="M266.8,141.35c-0.036,9.635-0.107,19.271-0.102,28.913h16.209
							c-0.822-9.64-1.589-19.278-2.39-28.913H266.8z"/>
						<path style="fill:#FEC450;" d="M280.517,141.35c0.801,9.635,1.568,19.273,2.39,28.913h16.207
							c-1.618-9.638-3.2-19.279-4.812-28.913H280.517z"/>
						<path style="fill:#F0516F;" d="M294.303,141.35c1.612,9.634,3.194,19.275,4.812,28.913h16.208
							c-2.37-9.638-4.717-19.278-7.088-28.913H294.303z"/>
						<path style="fill:#FEC450;" d="M308.234,141.35c2.371,9.635,4.718,19.275,7.088,28.913h16.208
							c-3.054-9.637-6.091-19.277-9.142-28.913H308.234z"/>
						<path style="fill:#F0516F;" d="M322.388,141.35c3.051,9.636,6.088,19.276,9.142,28.913h16.208
							c-3.645-9.633-7.266-19.273-10.892-28.913H322.388z"/>
						<path style="fill:#FEC450;" d="M336.847,141.35c3.626,9.64,7.247,19.28,10.892,28.913h16.208
							c-4.121-9.622-8.19-19.266-12.252-28.913H336.847z"/>
						<path style="fill:#F0516F;" d="M351.694,141.35c4.062,9.647,8.131,19.291,12.252,28.913h16.208
							c-4.45-9.609-8.806-19.257-13.145-28.913H351.694z"/>
						<path style="fill:#FEC450;" d="M367.009,141.35c4.339,9.656,8.695,19.304,13.145,28.913h16.208
							c-4.611-9.591-9.078-19.243-13.507-28.913H367.009z"/>
					</g>
				</g>
			</g>
		</g>
	</g>
	<g>
		<path style="fill:#F0516F;" d="M346.993,361.279c-3.66-1.148-2.45-5.108-1.137-5.126c0.972-0.01,2.107-0.032,3.49-0.032
			c2.045,0,3.515-0.95,3.379-0.95h5.75c0.133,0.116,0.267,0.338,0.338,0.724l0.022,5.384H346.993z"/>
		<path style="fill:#F58C8B;" d="M346.824,276.048h15.286c-2.239,6.311-3.603,71.96-3.603,79.123h-5.781
			C352.725,355.171,346.824,283.788,346.824,276.048z"/>
		<path style="fill:#F0516F;" d="M360.519,361.279c-3.66-1.148-2.452-5.108-1.138-5.126c0.965-0.01,2.101-0.032,3.487-0.032
			c2.045,0,3.509-0.95,3.378-0.95h5.741c0.145,0.116,0.274,0.338,0.35,0.724l0.028,5.384H360.519z"/>
		<path style="fill:#F58C8B;" d="M360.342,276.048h15.292c0,6.467-3.602,71.96-3.602,79.123h-5.786
			C366.247,355.171,363.911,284.855,360.342,276.048z"/>
		<path style="fill:#1B62A9;" d="M347.388,320.403c-1.526-19.358-0.564-40.355-0.564-44.354h15.286
			c-0.814,5.081-1.282,23.244-1.035,44.354H347.388z"/>
		<path style="fill:#1B62A9;" d="M362.436,320.403c-1.374-19.358-0.327-36.546-2.095-44.354h15.292c0,3.535,0.708,24.371,0,44.015
			L362.436,320.403z"/>
		<path style="fill:#F0516F;" d="M346.142,277.068c1.442-20.378,1.325-38.317,6.446-51.172c1.004-2.508,2.272-4.689,4.641-5.405
			c2.083-0.632,2.921-0.535,5.575-1.747c0,0,3.384-0.568,7.198,4.752c5.206,7.265,7.033,26.095,6.596,53.572H346.142z"/>
		
			<rect x="321.135" y="235.505" transform="matrix(0.954 -0.3 0.3 0.954 -57.6361 107.6848)" style="fill:#1B62A9;" width="1.566" height="12.123"/>
		<g>
			<path style="fill:#F58C8B;" d="M367.35,226.169c-1.705-1.077-3.963-0.567-5.045,1.139l-16.093,26.878l-17.337-6.889
				c-1.103-0.38-2.337,0.114-2.864,1.189c-0.57,1.164,0.274,1.194,1.438,1.762l18.697,10.682c1.535,0.745,3.441,0.237,4.372-1.245
				l0.119-0.185l17.856-28.289C369.57,229.506,369.06,227.249,367.35,226.169z"/>
			<path style="fill:#EF405C;" d="M365.189,239.273l3.807-7.931c1.163-2.009,0.475-4.584-1.539-5.747
				c-2.01-1.163-4.587-0.476-5.748,1.536l-5.17,7.578L365.189,239.273z"/>
		</g>
		<path style="fill:#F58C8B;" d="M363.246,211.621v7.917c0,1.53-2.973,2.774-4.504,2.774c-1.043,0-1.636-0.54-1.636-2.774v-7.917
			H363.246z"/>
		<path style="fill:#F58C8B;" d="M351.212,207.754c0.485-1.024,0.692-2.17,0.755-3.208c-0.007-0.061-0.013-0.102-0.013-0.102
			c-0.183-1.349-1.278-3.367-0.938-4.359c0.853-2.559,4.473-4.064,7.995-4.538c4.479-0.605,7.925,2.171,8.789,8.572
			c0.448,3.314-1.543,6.949-3.872,7.694c-1.767,0.564-5.167,1.794-5.491,1.908c-2.154,0.767-3.236,0.908-4.167-0.605
			c-0.74-1.204-0.812-1.315-1.524-2.793c-0.365-0.748-0.636-1.395-1.114-1.331C350.471,209.148,351.084,208.006,351.212,207.754z"/>
		<path style="fill:#FEC450;" d="M354.491,194.963c2.031-0.836,6.664-2.21,10.47,0.877c5.762,4.674,4.158,12.206,2.842,14.275
			c-1.177,1.854-4.071,2.073-4.11,1.771c-0.089-0.665-0.126-0.937-0.27-1.993c-0.063-0.456-0.244-0.248,0.522-1.381
			c1.413-2.063,0.218-3.191-0.229-3.132c-0.835,0.113-0.739,1.697-2.718-1.349c-1.278-1.969-2.204-2.495-5.271-2.126
			c-1.933,0.231-3.497-0.597-4.6-0.898C346.194,199.657,350.931,196.436,354.491,194.963z"/>
		<path style="fill:#F58C8B;" d="M328.731,247.067l0.707,0.391l-1.656,2.975l-0.717-0.397c-0.977,0.23-3.306-0.567-4.352-1.475
			c-1.64-1.421-2.08-3.68-1.19-4.472c0.905-0.808,2.323-0.127,3.852,1.095c0.248,0.209,0.547,0.24,0.366-0.192
			c-0.364-0.865-0.341-1.38-0.064-1.493C326.097,243.33,328.164,245.227,328.731,247.067z"/>
	</g>
	<g>
		<path style="fill:#2C2825;" d="M214.221,276.227c-3.656-6.896-3.722-9.925-2.704-13.567c1.382-4.947-0.309-8.455-1.473-9.683
			c-1.171-1.231-0.436-3.871-0.436-3.871h-8.876h-1.123h-8.876c0,0,0.738,2.64-0.434,3.871c-1.167,1.228-1.556,4.938,0.266,10.475
			c1.825,5.534-4.778,6.571-6.638,14.19c-1.849,7.583-10.008,45.583,17.052,45.583C227.123,323.225,218.789,284.855,214.221,276.227
			z"/>
		<path style="fill:#FDB84E;" d="M215.311,274.315c0-4.284-1.221-5.702-8.417-5.702c-1.125,0-5.833,0-5.833,0h-4.153
			c0,0-4.71,0-5.833,0c-3.143,0-5.787,1.219-6.801,5.425l-1.221,54.375h32.258V274.315z"/>
		<path style="fill:#1D55A0;" d="M184.296,328.414v6.417c0,2.99,2.421,5.417,5.415,5.417h18.565c2.992,0,5.415-2.427,5.415-5.417
			v-6.417H184.296z"/>
		<path style="fill:#F58C8B;" d="M209.396,253.712c0,5.311-4.558,8.947-9.23,8.947c-4.491,0-9.222-3.762-9.222-9.151v-4.814
			c0-5.064,4.133-7.399,9.227-7.399l0,0c5.101,0,9.226,2.335,9.226,7.399V253.712z"/>
		<g>
			<g>
				<path style="fill:#2C2825;" d="M189.328,257.349c-0.005-0.415,3.368-2.892,4.41-6.161c0.619-1.937,1.49-2.202,1.468-3.055
					c0.503,0.631,2.433,0.942,3.904,0.515c2.946-0.858,5.892,4.253,9.506,5.753c1.499,0.622,3.23,3.071,3.177,3.284
					c0,0,1.229-4.216-0.646-10.385c-0.704-2.303-1.75-5.327-5.608-7.006c-8.547-3.724-11.979,1.247-11.979,1.247
					c-1.914-0.093-4.177,3.191-4.475,8.365C188.923,252.738,189.328,257.349,189.328,257.349z"/>
			</g>
		</g>
		<path style="fill:#F58C8B;" d="M203.737,269.748c0,0-0.748,1.884-3.623,1.884c-3.318,0-3.614-1.884-3.614-1.884v-11.448h7.236
			V269.748z"/>
		<g>
			<g>
				<path style="fill:#F58C8B;" d="M226.228,301.484l-8.43-28.325c-0.869-2.767-3.679-3.601-5.725-3.026
					c-2.047,0.575-3.958,3.108-3.143,5.706l9.415,25.645H226.228z"/>
				<path style="fill:#F99E4B;" d="M221.249,282.42l-3.247-9.876c-0.86-2.611-3.671-4.032-6.286-3.172
					c-2.608,0.855-4.031,3.671-3.175,6.284l3.252,9.874L221.249,282.42z"/>
			</g>
			<path style="fill:#F58C8B;" d="M218.346,301.484l-17.557,8.979l1.497,5.819c0,0,25.936-7.201,23.942-14.798l-4.095-0.457
				L218.346,301.484z"/>
		</g>
		<g>
			<g>
				<path style="fill:#F58C8B;" d="M174.014,301.484l8.426-28.325c0.868-2.767,3.68-3.601,5.727-3.026
					c2.045,0.575,3.958,3.108,3.143,5.706l-9.416,25.645H174.014z"/>
				<path style="fill:#F99E4B;" d="M178.99,282.42l3.248-9.876c0.859-2.611,3.669-4.032,6.286-3.172
					c2.607,0.855,4.028,3.671,3.172,6.284l-3.251,9.874L178.99,282.42z"/>
			</g>
			<path style="fill:#F58C8B;" d="M181.893,301.484l17.557,8.979l-1.497,5.819c0,0-25.936-7.201-23.939-14.798l4.093-0.457
				L181.893,301.484z"/>
		</g>
		<g>
			<path style="fill:#2C2825;" d="M218.935,326.689c0,0.919-0.742,1.662-1.662,1.662h-34.174c-0.921,0-1.664-0.742-1.664-1.662
				V301.36c0-0.917,0.743-1.664,1.664-1.664h34.174c0.919,0,1.662,0.747,1.662,1.664V326.689z"/>
			<path style="fill:#433D3B;" d="M222.285,331.244c0,0.735-0.593,1.332-1.33,1.332h-40.816c-0.736,0-1.33-0.597-1.33-1.332v-1.562
				c0-0.735,0.593-1.332,1.33-1.332h40.816c0.737,0,1.33,0.597,1.33,1.332V331.244z"/>
		</g>
		<g>
			<g>
				<path style="fill:#FDB84E;" d="M205.62,335.836h14.18c2.167,0,3.926,1.754,3.926,3.921c0,2.166-1.758,3.922-3.926,3.922h-14.18
					V335.836z"/>
				<path style="fill:#F7A5AA;" d="M205.62,337.431h9.573c1.727,0,3.124,1.401,3.124,3.124c0,1.725-1.397,3.124-3.124,3.124h-9.573
					V337.431z"/>
			</g>
			<path style="fill:#124881;" d="M209.808,343.678l1.684-7.843l-33.493-14.547c-3.269-1.021-7.984-2.911-10.81,2.507
				c-1.586,3.031-2.097,8,4.32,10.006l29.13,9.876H209.808z"/>
		</g>
		<g>
			<g>
				<path style="fill:#FDB84E;" d="M189.438,335.836h-14.187c-2.165,0-3.919,1.754-3.919,3.921c0,2.166,1.754,3.922,3.919,3.922
					h14.187V335.836z"/>
				<path style="fill:#F58C8B;" d="M189.438,337.431h-9.571c-1.727,0-3.124,1.401-3.124,3.124c0,1.725,1.397,3.124,3.124,3.124
					h9.571V337.431z"/>
			</g>
			<path style="fill:#124881;" d="M224.208,329.799l-36.819,5.518v8.361h39.277c6.713,0,7.718-4.893,7.107-8.26
				C232.691,329.403,227.63,329.799,224.208,329.799z"/>
		</g>
	</g>
	<g>
		<path style="fill:#F58C8B;" d="M108.888,210.767v8.37c0,1.615,3.143,2.929,4.76,2.929c1.104,0,1.731-0.57,1.731-2.929v-8.37
			H108.888z"/>
		<path style="fill:#F58C8B;" d="M121.15,205.162c-0.629-0.966-0.995-2.095-1.201-3.134c0-0.063,0-0.104,0-0.104
			c0-1.386,0.83-3.574,0.354-4.53c-1.211-2.466-5.07-3.492-8.689-3.492c-4.604,0-7.705,3.272-7.705,9.849
			c0,3.407,2.505,6.806,4.957,7.241c1.861,0.33,5.461,1.107,5.803,1.179c2.28,0.478,3.392,0.476,4.124-1.179
			c0.584-1.316,0.641-1.439,1.157-3.026c0.266-0.805,0.452-1.497,0.945-1.497C122.088,206.469,121.312,205.4,121.15,205.162z"/>
		<path style="fill:#2C2825;" d="M116.753,192.551c-3.653-0.889-8.013-1.96-11.443,1.671c-6.14,6.499-3.011,13.795-1.402,15.707
			c1.44,1.71,5.204,1.417,5.204,1.107c0-0.684,0-0.963,0-2.05c0-0.469,0.212-0.282-0.716-1.323
			c-1.704-1.892-0.652-3.192-0.194-3.192c0.858,0,0.769,1.394,2.354-1.953c1.022-2.161,1.886-2.817,5.032-2.862
			c1.982-0.032,3.771-0.651,4.728-1.316c1.708-1.187,1.908-5.922,1.908-5.922C121.237,193.434,119.094,193.123,116.753,192.551z"/>
		<path style="fill:#F58C8B;" d="M153.716,263.685l-0.789-0.317l-1.343,3.339l0.801,0.321c0.461,0.955,2.667,2.338,4.105,2.593
			c2.258,0.401,4.407-0.739,4.466-1.995c0.062-1.283-1.441-1.994-3.462-2.436c-0.336-0.066-0.561-0.291-0.086-0.427
			c0.953-0.276,1.36-0.638,1.27-0.942C158.538,263.365,155.605,262.927,153.716,263.685z"/>
		<path style="fill:#1D9AD6;" d="M88.92,364.375c-0.656-0.726-1.536-1.692-2.383-2.626c-1.342-1.484-1.543-3.597-1.543-3.597
			l-3.847-3.742c0,0-0.662-0.255-1.254,0.329c-1.173,1.161-3.84,3.488-3.84,3.488s5.871,6.493,6.491,7.184
			C86.987,370.305,89.984,365.543,88.92,364.375z"/>
		<path style="fill:#1B62A9;" d="M97.573,327.074c1.093-2.754,1.927-49.194,1.927-49.194h14.61c0,0,0.114,33.537-6.957,52.077
			c-1.182,3.107-19.66,25.743-22.158,28.194l-3.88-3.752C84.884,350.265,95.393,332.565,97.573,327.074z"/>
		<path style="fill:#1D9AD6;" d="M127.011,371.083c3.453-1.052,2.309-4.688,1.065-4.703c-0.912-0.009-1.981-0.023-3.285-0.028
			c-1.782-0.004-2.094-0.799-2.225-0.872h-6.403c-0.128,0.106-0.249,0.31-0.325,0.664l-0.023,4.939H127.011z"/>
		<path style="fill:#1B62A9;" d="M127.281,277.879h-14.898c0,6.931,5.359,46.802,5.359,50.247c0,4.808-1.566,29.677-1.566,37.354
			h6.39c0,0,6.518-33.769,6.518-38.245C129.084,320.629,127.281,286.176,127.281,277.879z"/>
		<path style="fill:#1D9AD6;" d="M125.52,229.031c-1.41-9.09-8.19-9.813-10.768-9.813c-1.437,0-4.308,0-5.743,0
			c-8.814,0-12.254,10.87-12.254,15.172c0,11.396,0.026,43.995,0.026,43.995l33.246-0.015
			C130.026,278.37,127.417,241.275,125.52,229.031z"/>
		<g>
			<g>
				<path style="fill:#1D9AD6;" d="M153.836,262.231c-23.843-8.086-29.593-37.293-29.651-37.567
					c-0.496-2.365-2.802-3.889-5.179-3.396c-2.376,0.489-3.896,2.809-3.404,5.179c0.271,1.313,7.712,32.031,36.255,41.711
					L153.836,262.231z"/>
			</g>
		</g>
		<g>
			<g>
				<g>
					<g>
						<rect x="90.699" y="292.163" style="fill:#D9465F;" width="1.706" height="4.41"/>
					</g>
					<g>
						<rect x="99.409" y="292.163" style="fill:#D9465F;" width="1.705" height="4.41"/>
					</g>
					<polygon style="fill:#F0516F;" points="101.114,292.163 90.699,292.163 92.571,290.425 99.521,290.425 					"/>
				</g>
			</g>
			<polygon style="fill:#F0516F;" points="108.962,319.087 82.727,319.087 85.068,295.869 106.623,295.869 			"/>
			<polygon style="fill:#D9465F;" points="110.1,322.405 81.384,322.405 82.727,319.087 108.962,319.087 			"/>
		</g>
		<path style="fill:#F58C8B;" d="M98.162,286.435l0.192-0.831l-3.506-0.811l-0.195,0.843c-0.873,0.603-1.898,2.997-1.927,4.455
			c-0.048,2.293,1.411,4.241,2.662,4.104c1.277-0.137,1.747-1.731,1.872-3.798c0.012-0.342,0.2-0.597,0.409-0.148
			c0.421,0.898,0.842,1.243,1.127,1.107C99.224,291.149,99.202,288.182,98.162,286.435z"/>
		<path style="fill:#1D9AD6;" d="M96.945,232.353l-2.951,52.829l4.857,1.442C98.852,286.624,101.486,247.405,96.945,232.353z"/>
	</g>
	<g>
		<path style="fill:#1FC4F4;" d="M215.121,81.914c0,15.71-12.735,28.445-28.445,28.445c-15.71,0-28.444-12.734-28.444-28.445
			c0-15.709,12.734-28.444,28.444-28.444C202.386,53.47,215.121,66.204,215.121,81.914z"/>
		<g>
			<rect x="165.874" y="69.29" style="fill:#1B62A9;" width="41.601" height="27.451"/>
			<g>
				<rect x="168.687" y="91.949" style="fill:#1FC4F4;" width="35.902" height="1.227"/>
				<rect x="168.687" y="89.005" style="fill:#FEC450;" width="35.902" height="1.227"/>
			</g>
			<g>
				<rect x="192.815" y="74.168" style="fill:#1FC4F4;" width="10.106" height="6.77"/>
				<g>
					<g>
						<rect x="170.274" y="75.796" style="fill:#FEC450;" width="15.972" height="1.325"/>
						<rect x="170.274" y="78.614" style="fill:#FEC450;" width="15.972" height="1.326"/>
					</g>
				</g>
			</g>
		</g>
	</g>
	<g>
		<path style="fill:#1FC4F4;" d="M369.978,80.938c0,15.71-12.736,28.444-28.445,28.444c-15.71,0-28.444-12.734-28.444-28.444
			c0-15.71,12.733-28.444,28.444-28.444C357.242,52.493,369.978,65.228,369.978,80.938z"/>
		<g>
			<g>
				<g>
					<path style="fill:#F0516F;" d="M329.23,102.442h22.559c-0.175-20.653-4.938-22.729-4.946-22.733
						c-0.253-1.126-0.497-4.119,1.183-10.776c1.264-3.111,1.097-9.499,1.097-9.499h-1.313c0.249,2.536-0.239,4.957-0.427,5.763
						c-0.735-0.943-1.882-1.465-3.168-1.552c-1.312-0.089-3.092,0.13-3.706,1.562c-0.613-1.432-2.413-1.626-3.678-1.562
						c-1.412,0.072-2.656,0.733-3.371,1.838c0-0.001,0-0.003,0-0.003s-0.803-2.936-0.496-6.045h-1.315c0,0-0.005,6.026,1.27,9.131
						c0.004,0.005,2.125,7.505,1.295,11.214C330.334,82.551,329.414,98.03,329.23,102.442z"/>
				</g>
			</g>
		</g>
	</g>
	<g>
		<path style="fill:#1FC4F4;" d="M291.65,123.54c0,15.71-12.736,28.445-28.445,28.445c-15.711,0-28.445-12.735-28.445-28.445
			c0-15.71,12.734-28.444,28.445-28.444C278.914,95.096,291.65,107.831,291.65,123.54z"/>
		<g>
			<g>
				<path style="fill:#FAA73F;" d="M245.418,130.119v3.609h0.022c0.466,3.614,8.24,6.488,17.763,6.488
					c9.523,0,17.298-2.874,17.764-6.488h0.024v-3.609H245.418z"/>
				<path style="fill:#FEC450;" d="M280.991,129.904c0,3.772-7.963,6.831-17.788,6.831c-9.822,0-17.785-3.059-17.785-6.831
					c0-3.774,7.963-6.831,17.785-6.831C273.028,123.073,280.991,126.13,280.991,129.904z"/>
				<path style="fill:#FAA73F;" d="M274.615,129.904c0,2.421-5.107,4.382-11.412,4.382c-6.302,0-11.412-1.961-11.412-4.382
					c0-2.42,5.109-4.383,11.412-4.383C269.507,125.521,274.615,127.484,274.615,129.904z"/>
			</g>
			<g>
				<path style="fill:#FAA73F;" d="M245.418,124.716v3.609h0.022c0.466,3.612,8.24,6.487,17.763,6.487
					c9.523,0,17.298-2.875,17.764-6.487h0.024v-3.609H245.418z"/>
				<path style="fill:#FEC450;" d="M280.991,124.502c0,3.772-7.963,6.831-17.788,6.831c-9.822,0-17.785-3.058-17.785-6.831
					c0-3.773,7.963-6.832,17.785-6.832C273.028,117.67,280.991,120.729,280.991,124.502z"/>
				<path style="fill:#FAA73F;" d="M274.615,124.502c0,2.421-5.107,4.383-11.412,4.383c-6.302,0-11.41-1.962-11.41-4.383
					c0-2.421,5.108-4.383,11.41-4.383C269.507,120.118,274.615,122.081,274.615,124.502z"/>
			</g>
			<g>
				<path style="fill:#FAA73F;" d="M245.418,119.313v3.61h0.022c0.466,3.611,8.24,6.486,17.763,6.486
					c9.523,0,17.298-2.875,17.764-6.486h0.024v-3.61H245.418z"/>
				<path style="fill:#FEC450;" d="M280.991,119.099c0,3.772-7.963,6.83-17.788,6.83c-9.822,0-17.785-3.058-17.785-6.83
					c0-3.773,7.963-6.831,17.785-6.831C273.028,112.268,280.991,115.326,280.991,119.099z"/>
				<path style="fill:#FAA73F;" d="M274.615,119.099c0,2.421-5.107,4.383-11.412,4.383c-6.302,0-11.41-1.962-11.41-4.383
					c0-2.421,5.108-4.383,11.41-4.383C269.507,114.716,274.615,116.678,274.615,119.099z"/>
			</g>
			<g>
				<path style="fill:#FAA73F;" d="M245.418,113.911v3.61h0.022c0.466,3.612,8.24,6.487,17.763,6.487
					c9.523,0,17.298-2.875,17.764-6.487h0.024v-3.61H245.418z"/>
				<path style="fill:#FEC450;" d="M280.991,113.697c0,3.771-7.963,6.831-17.788,6.831c-9.822,0-17.785-3.06-17.785-6.831
					c0-3.774,7.963-6.832,17.785-6.832C273.028,106.864,280.991,109.922,280.991,113.697z"/>
				<path style="fill:#FAA73F;" d="M274.615,113.697c0,2.421-5.107,4.382-11.412,4.382c-6.302,0-11.41-1.961-11.41-4.382
					c0-2.422,5.108-4.384,11.41-4.384C269.507,109.313,274.615,111.275,274.615,113.697z"/>
			</g>
		</g>
	</g>
	<g>
		<path style="fill:#1FC4F4;" d="M413.7,139.46c0,15.71-12.735,28.445-28.445,28.445c-15.71,0-28.444-12.735-28.444-28.445
			s12.734-28.445,28.444-28.445C400.965,111.015,413.7,123.75,413.7,139.46z"/>
		<g>
			<g>
				<g>
					<path style="fill:#19599B;" d="M384.761,132.88c0,0,4.225-13.369,9.5-12.686c2.403,0.311,6.458,2.751,5.281,8.132
						c-0.599,2.747-3.915,4.807-12.844,6.853L384.761,132.88z"/>
					<path style="fill:#124881;" d="M386.026,132.415c0,0,4.109-12.107,8.198-10.05c1.067,0.539,1.1,2.622-2.035,6.177
						C388.199,133.072,386.026,132.415,386.026,132.415z"/>
				</g>
				<g>
					<path style="fill:#19599B;" d="M385.499,132.938c0,0-4.082-13.412-9.366-12.784c-2.406,0.286-6.485,2.682-5.367,8.076
						c0.569,2.753,3.864,4.848,12.773,6.986L385.499,132.938z"/>
					<path style="fill:#124881;" d="M384.241,132.46c0,0-3.983-12.149-8.094-10.135c-1.072,0.525-1.127,2.607,1.971,6.196
						C382.062,133.094,384.241,132.46,384.241,132.46z"/>
				</g>
			</g>
			<rect x="366.588" y="137.214" style="fill:#1D9AD6;" width="37.332" height="16.766"/>
			<rect x="365.522" y="133.164" style="fill:#1B62A9;" width="39.465" height="5.361"/>
		</g>
	</g>
	<g>
		<path style="fill:#1FC4F4;" d="M181.575,139.46c0,15.71-12.735,28.445-28.444,28.445c-15.71,0-28.445-12.735-28.445-28.445
			s12.734-28.445,28.445-28.445C168.84,111.015,181.575,123.75,181.575,139.46z"/>
		<g>
			<path style="fill:#F0516F;" d="M164.312,132.61l-6.461-4.503h-9.309l-6.592,4.531v26.786h22.362V132.61z M153.174,133.497
				c-0.921,0-1.666-0.745-1.666-1.664c0-0.92,0.746-1.664,1.666-1.664c0.919,0,1.663,0.744,1.663,1.664
				C154.837,132.753,154.092,133.497,153.174,133.497z"/>
			<g>
				<g>
					<path style="fill:#FFFFFF;" d="M145.772,143.977c0-0.666,0.071-1.247,0.214-1.74c0.142-0.494,0.342-0.904,0.6-1.231
						c0.257-0.327,0.565-0.571,0.922-0.731c0.357-0.161,0.751-0.241,1.181-0.241c0.43,0,0.824,0.08,1.182,0.241
						c0.357,0.161,0.664,0.404,0.922,0.731c0.257,0.327,0.457,0.738,0.6,1.231c0.143,0.494,0.213,1.074,0.213,1.74
						c0,0.66-0.071,1.237-0.213,1.731c-0.143,0.494-0.342,0.904-0.6,1.231c-0.258,0.327-0.565,0.572-0.922,0.736
						c-0.358,0.164-0.752,0.246-1.182,0.246c-0.43,0-0.824-0.082-1.181-0.246c-0.357-0.163-0.665-0.409-0.922-0.736
						c-0.257-0.327-0.458-0.738-0.6-1.231C145.844,145.214,145.772,144.637,145.772,143.977z M149.626,143.977
						c0-0.339-0.015-0.651-0.046-0.936c-0.03-0.285-0.081-0.53-0.154-0.736c-0.073-0.206-0.168-0.368-0.286-0.486
						c-0.118-0.118-0.268-0.177-0.45-0.177c-0.182,0-0.331,0.059-0.45,0.177c-0.118,0.118-0.213,0.28-0.286,0.486
						c-0.073,0.206-0.124,0.452-0.154,0.736c-0.031,0.285-0.045,0.597-0.045,0.936c0,0.333,0.015,0.644,0.045,0.931
						c0.03,0.288,0.081,0.535,0.154,0.741c0.073,0.206,0.168,0.368,0.286,0.486c0.118,0.118,0.268,0.177,0.45,0.177
						c0.182,0,0.332-0.059,0.45-0.177c0.118-0.118,0.213-0.28,0.286-0.486c0.073-0.206,0.124-0.453,0.154-0.741
						C149.61,144.62,149.626,144.31,149.626,143.977z M158.077,140.851l-8.869,11.886l-1.181-0.909l8.869-11.886L158.077,140.851z
						 M154.515,148.611c0-0.667,0.071-1.246,0.213-1.74c0.143-0.494,0.342-0.904,0.6-1.231c0.257-0.327,0.564-0.571,0.922-0.732
						c0.357-0.16,0.751-0.241,1.181-0.241c0.43,0,0.824,0.081,1.181,0.241c0.357,0.161,0.665,0.404,0.922,0.732
						c0.257,0.327,0.457,0.738,0.6,1.231c0.142,0.494,0.213,1.074,0.213,1.74c0,0.661-0.071,1.237-0.213,1.731
						c-0.143,0.494-0.343,0.904-0.6,1.232c-0.257,0.327-0.565,0.573-0.922,0.736c-0.357,0.164-0.751,0.245-1.181,0.245
						c-0.43,0-0.824-0.081-1.181-0.245c-0.358-0.164-0.665-0.409-0.922-0.736c-0.258-0.327-0.458-0.737-0.6-1.232
						C154.586,149.848,154.515,149.271,154.515,148.611z M158.368,148.611c0-0.339-0.015-0.651-0.045-0.936
						c-0.03-0.285-0.082-0.53-0.155-0.736c-0.073-0.206-0.168-0.368-0.286-0.486c-0.118-0.118-0.268-0.177-0.45-0.177
						c-0.182,0-0.331,0.059-0.45,0.177c-0.118,0.118-0.214,0.28-0.287,0.486c-0.072,0.206-0.124,0.451-0.154,0.736
						c-0.03,0.285-0.045,0.597-0.045,0.936c0,0.333,0.015,0.644,0.045,0.932s0.082,0.535,0.154,0.741
						c0.073,0.206,0.168,0.368,0.287,0.486c0.118,0.118,0.268,0.177,0.45,0.177c0.182,0,0.332-0.059,0.45-0.177
						c0.118-0.118,0.213-0.28,0.286-0.486c0.073-0.206,0.125-0.453,0.155-0.741C158.353,149.255,158.368,148.944,158.368,148.611z"
						/>
				</g>
			</g>
			<g>
				<path style="fill:#FEC450;" d="M153.13,133.501c-0.388,0-0.704-0.181-0.704-0.181v-14.663c0-0.389,0.316-0.703,0.704-0.703
					c0.389,0,0.703,0.314,0.703,0.703v14.702C153.632,133.463,153.519,133.501,153.13,133.501z"/>
			</g>
		</g>
	</g>
	<path style="fill:#1FC4F4;" d="M458.72,104.421c-0.015-5.738-3.897-10.562-9.175-12.01c0.004-0.148,0.01-0.298,0.01-0.448
		c0-6.897-5.593-12.487-12.489-12.487c-4.245,0-7.992,2.119-10.247,5.354c-2.173-2.143-5.156-3.468-8.447-3.468
		c-6.336,0-11.523,4.899-11.993,11.114c-0.163-0.006-0.329-0.013-0.496-0.013c-6.719,0-12.183,5.311-12.462,11.959H458.72z"/>
	<path style="fill:#1FC4F4;" d="M122.223,105.218c-0.015-5.54-3.763-10.198-8.859-11.597c0.004-0.142,0.01-0.288,0.01-0.432
		c0-6.66-5.399-12.057-12.058-12.057c-4.098,0-7.716,2.045-9.894,5.169c-2.098-2.069-4.978-3.348-8.155-3.348
		c-6.118,0-11.126,4.73-11.581,10.73c-0.157-0.007-0.316-0.012-0.478-0.012c-6.486,0-11.762,5.127-12.032,11.547H122.223z"/>
	<path style="fill:#1FC4F4;" d="M287.457,75.796c-0.011-4.263-2.895-7.846-6.816-8.922c0.003-0.11,0.008-0.222,0.008-0.332
		c0-5.124-4.154-9.276-9.278-9.276c-3.153,0-5.937,1.573-7.612,3.977c-1.614-1.592-3.83-2.576-6.274-2.576
		c-4.707,0-8.561,3.639-8.91,8.255c-0.121-0.004-0.244-0.009-0.368-0.009c-4.991,0-9.05,3.945-9.257,8.884H287.457z"/>
</g>
</svg>
