<?xml version="1.0" encoding="utf-8"?>
<!-- Generator: Adobe Illustrator 27.5.0, SVG Export Plug-In . SVG Version: 6.00 Build 0)  -->
<svg version="1.1" xmlns="http://www.w3.org/2000/svg" xmlns:xlink="http://www.w3.org/1999/xlink" x="0px" y="0px"
	 viewBox="0 0 2500 2000" style="enable-background:new 0 0 2500 2000;" xml:space="preserve">
<g id="BG">
	<g>
		<rect style="fill:#E6F8FF;" width="2500" height="2000"/>
		<path style="fill:#B0E8FF;" d="M1988.396,1767.255c-16.551-8.83-60.062-32.175-113.824-62.042
			c-68.936-38.298-82.723-96.511-119.489-84.255c-36.766,12.255-216,108.766-318.639,94.979
			c-102.638-13.787-93.441-94.632-131.745-96c-42.894-1.532-121.787,30.894-176.17,53.106
			c-95.134,38.858-174.638,42.894-188.425-27.574c-13.787-70.468-88.851-39.83-142.468-19.915
			c-43.978,16.335-236.365,108.935-304.117,141.702H1988.396z"/>
	</g>
</g>
<g id="wire">
	<g>
		
			<ellipse transform="matrix(0.2298 -0.9732 0.9732 0.2298 -233.2955 2521.5168)" style="fill:#66D9FF;" cx="1476.387" cy="1408.149" rx="7.566" ry="7.566"/>
		
			<ellipse transform="matrix(0.7071 -0.7071 0.7071 0.7071 -641.5717 1544.8176)" style="fill:#66D9FF;" cx="1543.974" cy="1546.854" rx="7.566" ry="7.566"/>
		
			<ellipse transform="matrix(0.2298 -0.9732 0.9732 0.2298 -419.2536 2484.2671)" style="fill:#66D9FF;" cx="1359.874" cy="1507.008" rx="7.566" ry="7.566"/>
		
			<ellipse transform="matrix(0.7071 -0.7071 0.7071 0.7071 -590.007 1311.1937)" style="fill:#66D9FF;" cx="1287.747" cy="1367.798" rx="7.566" ry="7.566"/>
		
			<ellipse transform="matrix(0.2298 -0.9732 0.9732 0.2298 -89.5682 2263.2593)" style="fill:#66D9FF;" cx="1385.093" cy="1188.217" rx="7.566" ry="7.566"/>
		
			<ellipse transform="matrix(0.2298 -0.9732 0.9732 0.2298 8.4261 2472.3213)" style="fill:#66D9FF;" cx="1566.167" cy="1230.837" rx="7.566" ry="7.566"/>
		
			<ellipse transform="matrix(0.2298 -0.9732 0.9732 0.2298 -168.3632 2438.5862)" style="fill:#66D9FF;" cx="1456.464" cy="1325.661" rx="7.566" ry="7.566"/>
		
			<ellipse transform="matrix(0.2298 -0.9732 0.9732 0.2298 -70.9818 2643.3435)" style="fill:#66D9FF;" cx="1634.511" cy="1366.516" rx="7.566" ry="7.566"/>
		<path style="fill:#66D9FF;" d="M1546.994,1548.148l-189.342-39.958l98.149-184.436l180.635,40.473L1546.994,1548.148z
			 M1362.174,1506.079l183.146,38.649l86.761-178.403l-174.705-39.143L1362.174,1506.079z"/>
		<path style="fill:#66D9FF;" d="M1359.898,1510.354l-73.681-141.467l98.386-184.878l73.681,141.467L1359.898,1510.354z
			 M1289.608,1368.903l70.319,135.012l94.966-178.454l-70.319-135.012L1289.608,1368.903z"/>
		<polygon style="fill:#66D9FF;" points="1632.919,1365.951 1564.639,1230.396 1384.251,1188.691 1384.927,1185.768 
			1566.686,1227.79 1635.599,1364.602 		"/>
		<polygon style="fill:#66D9FF;" points="1544.813,1547.103 1477.382,1410.475 1287.603,1370.363 1288.224,1367.428 
			1479.427,1407.84 1547.502,1545.774 		"/>
		
			<rect x="1422.752" y="1317.625" transform="matrix(0.4381 -0.8989 0.8989 0.4381 -330.6827 2109.2441)" style="fill:#66D9FF;" width="198.059" height="3"/>
	</g>
	<g>
		<g>
			<path style="fill:#66D9FF;" d="M467.849,1454.641c-30.135,0-59.304-16.266-74.317-44.719
				c-10.454-19.813-12.567-42.513-5.949-63.915c6.618-21.402,21.174-38.947,40.987-49.401
				c40.902-21.582,91.734-5.862,113.315,35.039c21.581,40.901,5.862,91.734-35.039,113.315
				C494.4,1451.527,481.031,1454.641,467.849,1454.641z M467.573,1289.925c-12.713,0-25.599,3.001-37.603,9.335
				c-19.105,10.08-33.141,26.996-39.522,47.633c-6.381,20.638-4.344,42.524,5.736,61.629c14.475,27.434,42.604,43.118,71.659,43.12
				c12.713,0.001,25.599-3.001,37.603-9.335c39.438-20.81,54.594-69.824,33.786-109.262
				C524.757,1305.611,496.628,1289.925,467.573,1289.925z"/>
			<path style="fill:#66D9FF;" d="M494.509,1447.893c-21.374,0.001-48.777-22.179-66.664-56.077
				c-10.379-19.672-16.085-40.33-16.066-58.17c0.019-18.184,5.982-31.338,16.791-37.041c21.98-11.596,57.421,12.244,79.002,53.145
				c21.58,40.9,21.255,83.612-0.725,95.21C503.084,1446.946,498.924,1447.892,494.509,1447.893z M441.15,1296.605
				c-4.01,0-7.773,0.856-11.18,2.654c-9.778,5.159-15.173,17.372-15.191,34.39c-0.019,17.359,5.564,37.521,15.719,56.767
				c17.355,32.892,43.625,54.542,63.769,54.545c4.01,0.001,7.773-0.856,11.18-2.654c20.518-10.826,20.281-51.719-0.528-91.156
				C487.564,1318.259,461.294,1296.605,441.15,1296.605z"/>
			
				<rect x="386.049" y="1369.423" transform="matrix(0.8843 -0.4669 0.4669 0.8843 -585.9368 377.177)" style="fill:#66D9FF;" width="164.141" height="2.999"/>
		</g>
		<path style="fill:#66D9FF;" d="M431.376,1383.035c4.566,1.412,7.122,6.257,5.711,10.823c-1.412,4.565-6.257,7.122-10.823,5.71
			c-4.566-1.412-7.122-6.257-5.71-10.823C421.965,1384.18,426.81,1381.624,431.376,1383.035z"/>
		<path style="fill:#66D9FF;" d="M508.801,1342.183c4.565,1.412,7.122,6.257,5.711,10.823c-1.412,4.566-6.257,7.122-10.823,5.71
			c-4.565-1.412-7.122-6.257-5.71-10.823C499.39,1343.328,504.236,1340.771,508.801,1342.183z"/>
		<path style="fill:#66D9FF;" d="M396.886,1401.233c4.565,1.412,7.122,6.257,5.71,10.823s-6.257,7.122-10.823,5.71
			c-4.566-1.412-7.122-6.257-5.71-10.823C387.475,1402.378,392.321,1399.822,396.886,1401.233z"/>
		<path style="fill:#66D9FF;" d="M543.291,1323.985c4.565,1.412,7.122,6.257,5.71,10.823s-6.257,7.122-10.823,5.71
			s-7.122-6.257-5.71-10.823C533.88,1325.13,538.726,1322.574,543.291,1323.985z"/>
		<path style="fill:#66D9FF;" d="M431.132,1290.482c4.566,1.412,7.122,6.257,5.71,10.823c-1.412,4.565-6.257,7.122-10.823,5.71
			c-4.565-1.412-7.122-6.257-5.71-10.823C421.721,1291.627,426.567,1289.071,431.132,1290.482z"/>
		<path style="fill:#66D9FF;" d="M506.709,1433.719c4.566,1.412,7.122,6.257,5.71,10.823c-1.412,4.565-6.257,7.122-10.823,5.71
			c-4.565-1.412-7.122-6.257-5.71-10.823C497.298,1434.864,502.143,1432.308,506.709,1433.719z"/>
	</g>
	<g>
		<path style="fill:#66D9FF;" d="M1240.154,336.905c-4.409,0.455-7.986-0.267-10.099-2.743c-0.163-0.191-0.314-0.391-0.455-0.601
			c-9.885-14.417,34.12-64.318,80.547-103.945c46.428-39.626,102.624-75.244,115.319-63.21c0.173,0.16,0.347,0.341,0.51,0.532
			c6.44,7.544-5.35,25.967-16.374,40.094c-15.157,19.422-37.787,42.31-63.723,64.447c-25.937,22.138-52.097,40.893-73.659,52.811
			C1261.685,330.114,1249.179,335.974,1240.154,336.905z M1416.281,167.144c-16.942,1.747-57.311,24.745-104.186,64.755
			c-56.059,47.848-86.63,90.326-80.012,99.98c0.085,0.126,0.166,0.234,0.254,0.337c3.881,4.55,18.252,0.605,38.433-10.55
			c21.39-11.823,47.373-30.456,73.162-52.467c25.786-22.01,48.269-44.743,63.306-64.011c14.187-18.181,20.339-31.751,16.457-36.301
			l-0.001,0c-0.087-0.102-0.18-0.199-0.278-0.29C1422.022,167.275,1419.6,166.802,1416.281,167.144z"/>
		<path style="fill:#66D9FF;" d="M1423.694,168.887l-0.001-0.001c-0.087-0.102-0.18-0.199-0.278-0.29l-1.218-1.127l2.388-2.107
			l1.385,1.571c0.001,0.002,0.003,0.005,0.006,0.007l-1.134,0.968l0.61,0.691l-0.025,0.022l-0.61-0.692L1423.694,168.887z"/>
		<path style="fill:#66D9FF;" d="M1424.097,552.414c-4.41,0.455-7.987-0.267-10.101-2.743c-0.477-0.559-0.866-1.199-1.156-1.904
			c-5.84-13.992,29.088-58.121,81.249-102.641c52.161-44.521,101.225-72.085,114.136-64.114c0.645,0.394,1.218,0.879,1.692,1.436
			l0,0c11.184,13.104-31.939,63.446-80.093,104.546c-25.936,22.137-52.096,40.892-73.66,52.809
			C1445.629,545.624,1433.123,551.483,1424.097,552.414z M1600.248,382.679c-16.765,1.729-56.689,24.167-104.212,64.729
			c-55.487,47.359-84.949,88.372-80.425,99.21c0.172,0.419,0.395,0.788,0.666,1.106c3.886,4.55,18.251,0.608,38.436-10.547
			c21.392-11.822,47.376-30.455,73.163-52.465c57.232-48.849,87.446-91.308,79.759-100.316l0,0c-0.27-0.316-0.6-0.594-0.982-0.828
			C1605.219,382.681,1603.058,382.389,1600.248,382.679z"/>
		<path style="fill:#66D9FF;" d="M1413.526,549.767l-0.974-1.141l-184.165-215.772l2.767-2.362l0.938,1.401
			c0.075,0.113,0.156,0.22,0.244,0.323c3.881,4.55,18.252,0.605,38.433-10.55c21.39-11.823,47.373-30.456,73.162-52.467
			c25.786-22.01,48.269-44.743,63.306-64.011c14.18-18.171,20.333-31.737,16.463-36.293l-0.006-0.008l2.281-1.947l183.792,215.333
			l-2.189,1.866l-0.93-0.574c-9.985-6.167-55.122,16.483-110.612,63.844c-55.487,47.359-84.949,88.372-80.425,99.21l0.421,1.008
			L1413.526,549.767z M1235.8,336.918l176.42,206.697c0.781-17.273,34.098-57.717,81.869-98.49
			c47.223-40.307,91.919-66.718,109.528-65.438L1427.76,173.651c-0.704,9.045-9.658,22.491-18.158,33.382
			c-15.157,19.422-37.787,42.31-63.723,64.447c-25.937,22.138-52.097,40.893-73.659,52.811
			C1259.859,331.123,1244.782,338.008,1235.8,336.918z"/>
		<path style="fill:#66D9FF;" d="M1429.849,163.631c2.104,2.466,1.812,6.171-0.654,8.275c-2.466,2.105-6.171,1.812-8.275-0.654
			s-1.812-6.171,0.654-8.275C1424.039,160.872,1427.744,161.165,1429.849,163.631z"/>
		<path style="fill:#66D9FF;" d="M1235.229,329.743c2.104,2.466,1.812,6.171-0.654,8.275c-2.466,2.104-6.171,1.812-8.275-0.654
			c-2.105-2.466-1.812-6.171,0.654-8.275C1229.419,326.984,1233.124,327.277,1235.229,329.743z"/>
		<path style="fill:#66D9FF;" d="M1308.77,298.333c2.104,2.466,1.812,6.171-0.654,8.275c-2.466,2.105-6.171,1.812-8.275-0.654
			c-2.104-2.466-1.812-6.171,0.654-8.275S1306.665,295.868,1308.77,298.333z"/>
		<path style="fill:#66D9FF;" d="M1342.459,204.2c2.104,2.466,1.812,6.171-0.654,8.275c-2.466,2.104-6.171,1.812-8.275-0.654
			c-2.104-2.466-1.812-6.171,0.654-8.275C1336.649,201.441,1340.354,201.734,1342.459,204.2z"/>
		<path style="fill:#66D9FF;" d="M1417.67,543.495c2.104,2.466,1.812,6.171-0.654,8.275c-2.466,2.105-6.17,1.812-8.275-0.654
			c-2.104-2.466-1.812-6.171,0.654-8.275S1415.566,541.029,1417.67,543.495z"/>
		<path style="fill:#66D9FF;" d="M1611.63,377.946c2.104,2.466,1.812,6.171-0.654,8.275c-2.466,2.104-6.171,1.812-8.275-0.654
			c-2.104-2.466-1.812-6.171,0.654-8.275C1605.821,375.187,1609.526,375.48,1611.63,377.946z"/>
		
			<rect x="1395.609" y="268.67" transform="matrix(0.7606 -0.6492 0.6492 0.7606 68.4277 1005.0943)" style="fill:#66D9FF;" width="2.999" height="282.181"/>
		
			<rect x="1428.417" y="175.287" transform="matrix(0.7606 -0.6492 0.6492 0.7606 136.9057 1004.0399)" style="fill:#66D9FF;" width="2.999" height="282.181"/>
		<path style="fill:#66D9FF;" d="M1526.386,419.915c2.105,2.466,1.812,6.171-0.654,8.275c-2.466,2.104-6.171,1.812-8.275-0.654
			c-2.104-2.466-1.812-6.171,0.654-8.275C1520.576,417.156,1524.281,417.449,1526.386,419.915z"/>
		<path style="fill:#66D9FF;" d="M1493.201,512.858c2.104,2.466,1.812,6.171-0.654,8.275c-2.466,2.105-6.171,1.812-8.275-0.654
			c-2.104-2.466-1.812-6.171,0.654-8.275S1491.097,510.392,1493.201,512.858z"/>
	</g>
</g>
<g id="hologram">
	<g>
		<linearGradient id="SVGID_1_" gradientUnits="userSpaceOnUse" x1="904.4468" y1="1463.8069" x2="904.4468" y2="746.2299">
			<stop  offset="0" style="stop-color:#63CEFF"/>
			<stop  offset="0.0075" style="stop-color:#67CFFF"/>
			<stop  offset="0.0827" style="stop-color:#89DAFF"/>
			<stop  offset="0.1653" style="stop-color:#A6E3FF"/>
			<stop  offset="0.2573" style="stop-color:#BDEBFF"/>
			<stop  offset="0.3617" style="stop-color:#D0F1FF"/>
			<stop  offset="0.4857" style="stop-color:#DCF5FF"/>
			<stop  offset="0.6486" style="stop-color:#E4F7FF"/>
			<stop  offset="1" style="stop-color:#E6F8FF"/>
		</linearGradient>
		<polygon style="fill:url(#SVGID_1_);" points="438.745,750.049 882.505,1435.1 1370.149,750.049 		"/>
		<g>
			<rect x="693.043" y="1744.894" style="fill:#2278C1;" width="394.468" height="14.553"/>
			<g>
				<rect x="716.532" y="1443.638" style="fill:#1A80D6;" width="345.191" height="314.745"/>
				<path style="fill:#E6F8FF;" d="M1037.181,1745.309H887.117v-219.776c0-11.526,9.377-20.904,20.904-20.904h108.255
					c11.527,0,20.904,9.378,20.904,20.904V1745.309z M890.117,1742.309h144.063v-216.776c0-9.872-8.032-17.904-17.904-17.904
					H908.021c-9.873,0-17.904,8.032-17.904,17.904V1742.309z"/>
				<g>
					<rect x="749.723" y="1506.447" style="fill:#1B5E96;" width="87.319" height="9.958"/>
					<rect x="749.723" y="1524.83" style="fill:#1B5E96;" width="87.319" height="9.957"/>
					<rect x="749.723" y="1543.213" style="fill:#1B5E96;" width="87.319" height="9.957"/>
					<rect x="749.723" y="1561.596" style="fill:#1B5E96;" width="87.319" height="9.958"/>
					<rect x="749.723" y="1579.979" style="fill:#1B5E96;" width="87.319" height="9.958"/>
					<rect x="749.723" y="1598.362" style="fill:#1B5E96;" width="87.319" height="9.957"/>
					<rect x="749.723" y="1616.745" style="fill:#1B5E96;" width="87.319" height="9.957"/>
				</g>
				<path style="fill:#1B5E96;" d="M1002.106,1666.532L1002.106,1666.532c-4.019,0-7.277-3.258-7.277-7.277v-76.596
					c0-4.019,3.258-7.276,7.277-7.276l0,0c4.019,0,7.277,3.258,7.277,7.276v76.596
					C1009.383,1663.274,1006.125,1666.532,1002.106,1666.532z"/>
			</g>
			<rect x="692.276" y="1743.159" style="fill:#E6F8FF;" width="394.468" height="3"/>
			
				<linearGradient id="SVGID_00000072281197774332308740000005853378950864456613_" gradientUnits="userSpaceOnUse" x1="889.0953" y1="1355.7659" x2="889.0953" y2="1522.7632">
				<stop  offset="0" style="stop-color:#63CEFF"/>
				<stop  offset="0.1188" style="stop-color:#80D7FF"/>
				<stop  offset="0.2969" style="stop-color:#A4E3FF"/>
				<stop  offset="0.4756" style="stop-color:#C1ECFF"/>
				<stop  offset="0.653" style="stop-color:#D6F3FF"/>
				<stop  offset="0.8285" style="stop-color:#E2F7FF"/>
				<stop  offset="1" style="stop-color:#E6F8FF"/>
			</linearGradient>
			<path style="fill:url(#SVGID_00000072281197774332308740000005853378950864456613_);" d="M1061.428,1441.043h-344.6
				c-14.274-9.693-19.754-23.861-19.019-41.193h382.638C1079.954,1416.893,1074.454,1431.1,1061.428,1441.043z"/>
		</g>
		<g>
			<g>
				
					<rect x="814.849" y="570.267" transform="matrix(1 0.0017 -0.0017 1 0.9879 -1.5212)" style="fill:#80D9FF;" width="193.456" height="41.295"/>
				
					<rect x="802.623" y="570.247" transform="matrix(1 0.0017 -0.0017 1 0.9875 -1.5003)" style="fill:#33C1FF;" width="193.456" height="41.295"/>
			</g>
			<path style="fill:#33C1FF;" d="M914.176,729.538l-0.445,270.215c-0.04,20.738-16.88,37.532-37.625,37.494l-109.874-0.185
				c-20.752-0.029-37.54-16.878-37.508-37.615l0.154-93.95l0.008-0.001l6.79,0.014l0.121-73.62l-6.79-0.014l0.001-0.173
				l0.168-102.48c0.039-20.739,16.879-37.532,37.633-37.495l109.874,0.185C897.427,691.943,914.214,708.792,914.176,729.538z"/>
			
				<rect x="791.955" y="691.984" transform="matrix(1 0.0017 -0.0017 1 1.4454 -1.5287)" style="fill:#33C1FF;" width="248.738" height="345.858"/>
			<path style="fill:#D9F3FF;" d="M1052.715,692.206l-44.414-0.074l-0.015,9.08l-11.975-0.02l0.015-9.08l-53.491-0.089
				c-20.744-0.035-37.589,16.754-37.624,37.498l-0.451,270.216c-0.035,20.744,16.754,37.589,37.498,37.624l109.88,0.183
				c20.744,0.035,37.589-16.754,37.624-37.498l0.451-270.216C1090.249,709.086,1073.46,692.241,1052.715,692.206z"/>
			<path style="fill:#FFFFFF;" d="M1052.205,1038.544c-0.022,0-0.044,0-0.067,0l-109.88-0.184
				c-21.263-0.035-38.532-17.362-38.497-38.625l0.451-270.215c0.017-10.3,4.044-19.977,11.34-27.249
				c7.279-7.255,16.945-11.249,27.22-11.249c0.023,0,0.044,0,0.066,0l54.491,0.091l-0.015,9.081l9.975,0.017l0.015-9.081
				l45.414,0.076c10.3,0.017,19.977,4.044,27.249,11.34c7.271,7.295,11.266,16.985,11.249,27.285l-0.451,270.216
				c-0.017,10.3-4.044,19.977-11.34,27.248C1072.144,1034.551,1062.479,1038.544,1052.205,1038.544z M942.771,693.023
				c-9.743,0-18.906,3.786-25.808,10.666c-6.917,6.893-10.735,16.069-10.751,25.834l-0.451,270.215
				c-0.033,20.16,16.341,36.589,36.5,36.622l109.88,0.184c0.021,0,0.043,0,0.064,0c9.742,0,18.904-3.786,25.807-10.665
				c6.917-6.893,10.735-16.069,10.751-25.835l0.451-270.216c0.016-9.766-3.771-18.954-10.666-25.871
				c-6.894-6.917-16.069-10.735-25.834-10.752l-43.414-0.073l-0.015,9.081l-13.975-0.023l0.015-9.081l-52.491-0.088
				C942.813,693.023,942.792,693.023,942.771,693.023z"/>
			<path style="fill:#30B6F0;" d="M1076.271,729.805l-0.451,270.218c-0.022,13.024-10.637,23.597-23.655,23.576l-109.883-0.183
				c-13.024-0.022-23.598-10.63-23.576-23.655l0.451-270.218c0.022-13.017,10.63-23.597,23.655-23.576l109.883,0.184
				C1065.712,706.172,1076.293,716.787,1076.271,729.805z"/>
			<path style="fill:#59CDFF;" d="M1064.557,729.785l-0.451,270.218c-0.022,13.024-10.63,23.597-23.655,23.576l-98.17-0.164
				c-13.024-0.022-23.598-10.63-23.576-23.655l0.451-270.218c0.022-13.017,10.63-23.597,23.655-23.576l98.17,0.164
				C1054.006,706.152,1064.579,716.768,1064.557,729.785z"/>
			<g>
				
					<ellipse transform="matrix(0.0017 -1 1 0.0017 176.3471 1814.5308)" style="fill:#19BAFF;" cx="996.954" cy="818.945" rx="89.455" ry="54.398"/>
				
					<rect x="966.391" y="758.877" transform="matrix(0.0017 -1 1 0.0017 235.0805 1873.5278)" style="fill:#19BAFF;" width="178.958" height="120.3"/>
				
					<ellipse transform="matrix(0.0017 -1 1 0.0017 294.6484 1933.4268)" style="fill:#D9F3FF;" cx="1115.654" cy="819.143" rx="89.455" ry="54.398"/>
				<path style="fill:#FFFFFF;" d="M1044.857,818.572c-0.082,49.009,22.682,89.959,49.7,90.004l-0.848-0.007l-7.669-0.013
					c-10.815-2.884-20.759-11.83-28.553-25.894c-9.504-17.149-14.716-39.908-14.676-64.094c0.04-24.179,5.329-46.927,14.89-64.038
					c7.176-12.833,16.126-21.388,25.881-24.936l10.426,0.017l0,0.163C1066.99,729.729,1044.939,769.563,1044.857,818.572z"/>
				<path style="fill:#FFFFFF;" d="M964.897,818.438c-0.082,49.009,27.26,89.966,59.695,90.021l-1.018-0.007l-9.207-0.015
					c-12.984-2.887-24.925-11.836-34.287-25.903c-11.415-17.153-17.68-39.913-17.639-64.099c0.04-24.179,6.381-46.926,17.853-64.033
					c8.61-12.831,19.352-21.383,31.062-24.927l12.517,0.021l0,0.163C991.438,729.603,964.979,769.429,964.897,818.438z"/>
				<path style="fill:#2EAEE6;" d="M1164.791,819.226c-0.074,44.626-22.133,80.767-49.273,80.721
					c-1.131-0.002-2.256-0.065-3.367-0.202c-25.563-2.881-45.708-37.921-45.636-80.683s20.333-77.735,45.906-80.531
					c1.111-0.134,2.236-0.193,3.368-0.191C1142.928,738.386,1164.866,774.6,1164.791,819.226z"/>
				<path style="fill:#59CDFF;" d="M1158.05,819.215c-0.071,42.763-20.332,77.728-45.899,80.531
					c-25.563-2.881-45.708-37.921-45.636-80.683s20.333-77.735,45.906-80.531C1137.978,741.419,1158.122,776.452,1158.05,819.215z"
					/>
				<path style="fill:#1496CC;" d="M1128.153,819.165c-0.019,11.348-5.63,20.545-12.534,20.534c-1.633-0.003-3.197-0.52-4.625-1.471
					c-4.609-3.029-7.855-10.447-7.841-19.105c0.015-8.665,3.286-16.071,7.904-19.078c1.431-0.946,2.997-1.458,4.63-1.456
					C1122.591,798.601,1128.172,807.81,1128.153,819.165z"/>
				<path style="fill:#BBE8FA;" d="M1118.899,819.149c-0.014,8.658-3.285,16.064-7.904,19.078
					c-4.609-3.029-7.855-10.447-7.841-19.105c0.015-8.665,3.286-16.071,7.904-19.078
					C1115.667,803.067,1118.913,810.484,1118.899,819.149z"/>
			</g>
			<g>
				
					<ellipse transform="matrix(0.0017 -1 1 0.0017 15.8053 1956.7445)" style="fill:#19BAFF;" cx="987.908" cy="970.456" rx="36.454" ry="22.168"/>
				
					<rect x="975.453" y="945.978" transform="matrix(0.0017 -1 1 0.0017 39.7386 1980.7852)" style="fill:#19BAFF;" width="72.928" height="49.024"/>
				
					<ellipse transform="matrix(0.0017 -1 1 0.0017 64.0165 2005.1976)" style="fill:#FFFFFF;" cx="1036.28" cy="970.537" rx="36.454" ry="22.168"/>
				<path style="fill:#FFFFFF;" d="M1007.43,970.305c-0.033,19.972,9.243,36.659,20.254,36.678l-0.346-0.003l-3.125-0.005
					c-4.407-1.175-8.459-4.821-11.636-10.552c-3.873-6.989-5.997-16.263-5.981-26.119c0.016-9.853,2.172-19.124,6.068-26.096
					c2.924-5.23,6.572-8.716,10.547-10.162l4.249,0.007v0.066C1016.449,934.1,1007.463,950.333,1007.43,970.305z"/>
				<path style="fill:#FFFFFF;" d="M974.845,970.25c-0.033,19.972,11.109,36.663,24.327,36.685l-0.415-0.003l-3.752-0.006
					c-5.291-1.177-10.157-4.824-13.972-10.556c-4.652-6.99-7.205-16.265-7.188-26.121c0.016-9.853,2.601-19.123,7.276-26.094
					c3.509-5.229,7.886-8.714,12.658-10.158l5.101,0.008l0,0.066C985.66,934.049,974.878,950.278,974.845,970.25z"/>
				<path style="fill:#2EAEE6;" d="M1056.304,970.571c-0.03,18.186-9.019,32.914-20.079,32.895
					c-0.461-0.001-0.919-0.026-1.372-0.082c-10.418-1.174-18.627-15.453-18.597-32.88c0.029-17.426,8.286-31.678,18.707-32.817
					c0.453-0.054,0.911-0.079,1.372-0.078C1047.395,937.628,1056.335,952.385,1056.304,970.571z"/>
				<path style="fill:#59CDFF;" d="M1053.557,970.567c-0.029,17.426-8.286,31.675-18.704,32.817
					c-10.418-1.174-18.627-15.453-18.597-32.88c0.029-17.426,8.286-31.678,18.707-32.817
					C1045.377,938.864,1053.587,953.14,1053.557,970.567z"/>
				<path style="fill:#1496CC;" d="M1041.374,970.546c-0.008,4.625-2.295,8.373-5.108,8.368c-0.665-0.001-1.303-0.212-1.885-0.599
					c-1.878-1.234-3.201-4.257-3.195-7.785c0.006-3.531,1.339-6.549,3.221-7.775c0.583-0.385,1.221-0.594,1.887-0.593
					C1039.107,962.166,1041.382,965.919,1041.374,970.546z"/>
				<path style="fill:#8CDAFA;" d="M1037.603,970.54c-0.006,3.528-1.339,6.547-3.221,7.775c-1.878-1.234-3.201-4.257-3.195-7.785
					c0.006-3.531,1.339-6.549,3.221-7.775C1036.286,963.986,1037.608,967.009,1037.603,970.54z"/>
			</g>
			<g>
				<g>
					<polygon style="fill:#05B4FF;" points="858.505,832.091 858.384,905.892 728.886,905.675 728.885,905.495 735.675,905.509 
						735.796,831.889 					"/>
					<path style="fill:#FFFFFF;" d="M859.383,906.894l-131.494-0.22l-0.006-2.181l6.794,0.014l0.121-73.62l124.708,0.206
						L859.383,906.894z M736.677,904.688l120.709,0.202l0.118-71.801l-120.708-0.2L736.677,904.688z"/>
				</g>
			</g>
			<g>
				<polygon style="fill:#12A7E8;" points="735.797,831.716 735.796,831.889 729.006,831.875 729.007,831.702 				"/>
			</g>
			<path style="fill:#D9F3FF;" d="M850.194,813.196c-0.011,0-0.022,0-0.033,0l-63.994-0.107c-5.091-0.008-9.875-1.999-13.47-5.606
				c-3.594-3.607-5.569-8.397-5.561-13.489l0.066-39.902c0.008-5.092,2-9.875,5.606-13.47c3.607-3.594,8.373-5.608,13.489-5.56
				l63.995,0.107c10.511,0.018,19.048,8.583,19.03,19.094l-0.067,39.902c-0.008,5.091-1.999,9.875-5.605,13.47
				C860.051,811.222,855.273,813.196,850.194,813.196z M786.264,739.578c-3.877,0-7.522,1.506-10.268,4.244
				c-2.752,2.743-4.271,6.393-4.278,10.279l-0.066,39.902c-0.006,3.886,1.5,7.541,4.244,10.293
				c2.743,2.752,6.393,4.271,10.279,4.278l63.994,0.107c0.008,0,0.017,0,0.025,0c3.876,0,7.522-1.506,10.268-4.244
				c2.753-2.743,4.271-6.393,4.278-10.279l0.067-39.902c0.013-8.021-6.502-14.557-14.523-14.571l-63.995-0.107
				C786.281,739.578,786.273,739.578,786.264,739.578z"/>
			<g>
				<path style="fill:#33C1FF;" d="M701.874,903.543l0.123-73.797l-135.546-0.226c-4.799-0.008-8.696,3.876-8.705,8.675
					l-0.094,56.417c-0.008,4.799,3.876,8.697,8.675,8.705L701.874,903.543z"/>
				<path style="fill:#66D1FF;" d="M687.979,838.755l-0.093,55.732c-0.008,4.988,4.029,9.039,9.017,9.047l9.451,0.016l0.123-73.796
					l-9.451-0.016C692.037,829.73,687.987,833.767,687.979,838.755z"/>
			</g>
			<g>
				<path style="fill:#48C3F7;" d="M1192.526,991.118l0.123-73.797l97.582,0.163c4.799,0.008,8.683,3.905,8.675,8.704l-0.094,56.417
					c-0.008,4.799-3.905,8.684-8.704,8.676L1192.526,991.118z"/>
			</g>
			<g>
				<g>
					<path style="fill:#33C1FF;" d="M951.96,1250.09l-106.174-0.177c-12.61-0.021-22.816-10.261-22.795-22.871l0.244-145.864
						l129.007,0.215L951.96,1250.09z"/>
				</g>
				<path style="fill:#80D9FF;" d="M976.169,1250.13l-19.81-0.033c-11.595-0.019-20.979-9.435-20.96-21.03l0.247-147.702l61.8,0.103
					l-0.247,147.702C997.18,1240.766,987.765,1250.15,976.169,1250.13z"/>
			</g>
			<g>
				<g>
					
						<rect x="1160.787" y="1064.652" transform="matrix(1 0.0017 -0.0017 1 1.7896 -1.9684)" style="fill:#48C3F7;" width="41.2" height="15.259"/>
					<path style="fill:#48C3F7;" d="M1158.512,1072.252c-0.007,4.219,1.046,7.641,2.353,7.643c1.306,0.002,2.371-3.416,2.378-7.636
						c0.007-4.219-1.046-7.641-2.353-7.643S1158.52,1068.033,1158.512,1072.252z"/>
				</g>
				<path style="fill:#48C3F7;" d="M1199.694,1072.336c-0.007,4.315,1.046,7.816,2.352,7.818c1.306,0.002,2.371-3.495,2.378-7.81
					c0.007-4.316-1.046-7.816-2.352-7.818S1199.701,1068.021,1199.694,1072.336z"/>
				<path style="fill:#48C3F7;" d="M1207.5,1072.352c-0.011,6.582-1.607,11.944-3.591,12.11c-0.033,0.006-0.065,0.006-0.098,0.006
					c-1.008-0.002-1.903-1.336-2.57-3.497c-0.673-2.199-1.084-5.257-1.078-8.632c0.006-3.382,0.427-6.432,1.107-8.629
					c0.621-2.009,1.449-3.295,2.367-3.469c0.072-0.013,0.143-0.019,0.215-0.019
					C1205.881,1060.226,1207.511,1065.653,1207.5,1072.352z"/>
				<path style="fill:#1496CC;" d="M1203.91,1084.462v0.019l-5.268-0.009l0-0.013c-2.023-0.036-3.64-5.456-3.628-12.129
					c0.011-6.699,1.659-12.12,3.688-12.117c0.072,0,0.143,0.007,0.215,0.02l4.722,0.008c-0.917,0.174-1.745,1.46-2.367,3.469
					c-0.68,2.197-1.101,5.246-1.107,8.629c-0.006,3.375,0.405,6.433,1.078,8.632c0.666,2.16,1.562,3.495,2.57,3.497
					C1203.844,1084.469,1203.877,1084.469,1203.91,1084.462z"/>
			</g>
			<g>
				<g>
					
						<rect x="1160.701" y="1115.867" transform="matrix(1 0.0017 -0.0017 1 1.8778 -1.9711)" style="fill:#48C3F7;" width="41.2" height="15.259"/>
					<path style="fill:#48C3F7;" d="M1158.427,1123.467c-0.007,4.219,1.046,7.641,2.353,7.644c1.306,0.002,2.371-3.416,2.378-7.636
						c0.007-4.219-1.046-7.641-2.353-7.643C1159.499,1115.829,1158.434,1119.248,1158.427,1123.467z"/>
				</g>
				<path style="fill:#48C3F7;" d="M1199.609,1123.552c-0.007,4.316,1.046,7.816,2.352,7.818s2.371-3.495,2.378-7.81
					c0.007-4.316-1.046-7.816-2.352-7.818C1200.681,1115.74,1199.616,1119.236,1199.609,1123.552z"/>
				<path style="fill:#48C3F7;" d="M1207.415,1123.567c-0.011,6.582-1.607,11.944-3.591,12.11c-0.033,0.007-0.065,0.006-0.098,0.006
					c-1.008-0.002-1.903-1.337-2.57-3.497c-0.673-2.199-1.084-5.257-1.078-8.632c0.005-3.382,0.427-6.432,1.107-8.629
					c0.621-2.009,1.449-3.295,2.367-3.469c0.072-0.013,0.143-0.019,0.215-0.019
					C1205.796,1111.442,1207.426,1116.869,1207.415,1123.567z"/>
				<path style="fill:#1496CC;" d="M1203.824,1135.677v0.02l-5.268-0.009v-0.013c-2.023-0.036-3.639-5.456-3.628-12.129
					c0.011-6.699,1.659-12.12,3.688-12.117c0.072,0,0.143,0.007,0.215,0.02l4.722,0.008c-0.917,0.174-1.745,1.46-2.367,3.469
					c-0.68,2.197-1.101,5.247-1.107,8.629c-0.006,3.375,0.405,6.433,1.078,8.632c0.666,2.16,1.562,3.495,2.57,3.497
					C1203.759,1135.684,1203.791,1135.684,1203.824,1135.677z"/>
			</g>
		</g>
		<g>
			<path style="fill:#48C3F7;" d="M907.575,1330.947c-64.174,0-126.43-12.569-185.037-37.357
				c-56.607-23.943-107.445-58.219-151.102-101.876c-43.657-43.657-77.933-94.495-101.875-151.103
				c-24.789-58.607-37.358-120.862-37.358-185.037s12.569-126.43,37.358-185.037c23.943-56.607,58.219-107.445,101.875-151.102
				c43.657-43.657,94.495-77.933,151.102-101.875c58.607-24.789,120.863-37.358,185.037-37.358s126.43,12.569,185.037,37.358
				c56.607,23.943,107.445,58.219,151.102,101.875c43.657,43.657,77.933,94.495,101.876,151.102
				c24.788,58.607,37.357,120.863,37.357,185.037s-12.569,126.43-37.357,185.037c-23.943,56.607-58.219,107.445-101.876,151.103
				s-94.495,77.933-151.102,101.876C1034.004,1318.378,971.749,1330.947,907.575,1330.947z M907.575,383.202
				c-260.467,0-472.373,211.905-472.373,472.373s211.905,472.373,472.373,472.373s472.373-211.905,472.373-472.373
				S1168.042,383.202,907.575,383.202z"/>
			
				<ellipse transform="matrix(0.7071 -0.7071 0.7071 0.7071 -0.7313 759.7238)" style="fill:#48C3F7;" cx="916.702" cy="380.745" rx="20.426" ry="20.426"/>
			
				<ellipse transform="matrix(0.7071 -0.7071 0.7071 0.7071 -670.888 1037.3118)" style="fill:#48C3F7;" cx="916.702" cy="1328.489" rx="20.426" ry="20.426"/>
			
				<ellipse transform="matrix(0.2298 -0.9732 0.9732 0.2298 -498.9479 1082.8711)" style="fill:#48C3F7;" cx="434.66" cy="856.66" rx="20.426" ry="20.426"/>
			
				<ellipse transform="matrix(0.2298 -0.9732 0.9732 0.2298 231.0492 2005.2626)" style="fill:#48C3F7;" cx="1382.404" cy="856.66" rx="20.426" ry="20.426"/>
			<path style="fill:#48C3F7;" d="M907.575,1094.468c-164.461,0-319.093-24.77-435.412-69.744
				c-56.62-21.894-101.088-47.4-132.168-75.812c-32.299-29.526-48.675-60.929-48.675-93.337s16.376-63.811,48.675-93.337
				c31.08-28.413,75.548-53.919,132.168-75.813c116.319-44.976,270.951-69.745,435.412-69.745s319.093,24.769,435.412,69.745
				c56.62,21.893,101.088,47.4,132.169,75.813c32.298,29.526,48.675,60.929,48.675,93.337s-16.377,63.811-48.675,93.337
				c-31.081,28.412-75.549,53.918-132.169,75.812C1226.668,1069.698,1072.036,1094.468,907.575,1094.468z M907.575,618.681
				c-338.702,0-614.255,106.27-614.255,236.894c0,130.623,275.554,236.893,614.255,236.893s614.255-106.27,614.255-236.893
				C1521.83,724.951,1246.276,618.681,907.575,618.681z"/>
			<path style="fill:#48C3F7;" d="M907.575,1310.479c-61.412,0-120.986-12.027-177.07-35.749
				c-54.169-22.911-102.819-55.712-144.596-97.489c-41.777-41.777-74.578-90.427-97.489-144.597
				c-23.722-56.083-35.749-115.657-35.749-177.069s12.027-120.986,35.749-177.07c22.912-54.169,55.712-102.819,97.489-144.596
				c41.777-41.777,90.427-74.578,144.596-97.489c56.083-23.722,115.658-35.749,177.07-35.749s120.986,12.027,177.069,35.749
				c54.169,22.912,102.819,55.712,144.596,97.489c41.777,41.777,74.578,90.427,97.489,144.596
				c23.722,56.083,35.749,115.658,35.749,177.07s-12.027,120.986-35.749,177.069c-22.911,54.17-55.712,102.819-97.489,144.597
				s-90.427,74.578-144.596,97.489C1028.561,1298.451,968.986,1310.479,907.575,1310.479z M907.575,401.67
				c-250.284,0-453.904,203.621-453.904,453.904s203.621,453.904,453.904,453.904c250.283,0,453.904-203.62,453.904-453.904
				S1157.858,401.67,907.575,401.67z"/>
		</g>
	</g>
	<path style="fill:#FFFFFF;" d="M1115.869,909.606l-121.298-0.203v-0.083c-14.255-0.941-27.522-10.616-37.45-27.349
		c-10.077-16.985-15.604-39.402-15.565-63.12c0.039-23.719,5.642-46.117,15.776-63.068c9.982-16.699,23.28-26.329,37.538-27.223
		v-0.049l1.002-0.064l120.3,0.201l-0.003,2l-119.643-0.2l-0.62,0.064c-13.92,0.486-27.009,9.826-36.856,26.297
		c-9.951,16.647-15.453,38.682-15.492,62.045c-0.039,23.363,5.389,45.416,15.285,62.096c9.792,16.505,22.85,25.888,36.768,26.421
		l0.902,0.034l119.361,0.2L1115.869,909.606z"/>
	<path style="fill:#FFFFFF;" d="M1036.367,1007.495l-49.522-0.083v-0.05c-12.187-0.871-21.638-16.952-21.605-36.944
		c0.033-19.991,9.538-36.039,21.726-36.871v-0.026l0.501-0.036l49.024,0.082l-0.002,1l-48.682-0.082l-0.324,0.036
		c-11.682,0.41-21.211,16.513-21.244,35.898c-0.032,19.385,9.444,35.52,21.124,35.968l0.481,0.025l48.524,0.081L1036.367,1007.495z"
		/>
	<g>
		<rect x="468.485" y="613.069" style="fill:#2278C1;" width="19.413" height="145.596"/>
		<path style="fill:#2278C1;" d="M504.007,640.651c-7.065-6.806-19.117-18.773-26.123-25.753
			c-6.901,6.669-18.556,18.084-25.123,25.357l-11.757-10.616c10.101-11.187,30.661-30.738,31.531-31.565l5.597-5.317l5.459,5.459
			c0.21,0.211,21.162,21.157,31.406,31.027L504.007,640.651z"/>
		<path style="fill:#2278C1;" d="M478.252,773.268l-5.459-5.459c-0.21-0.211-21.162-21.157-31.406-31.028l10.99-11.408
			c7.065,6.807,19.116,18.774,26.123,25.753c6.901-6.669,18.556-18.084,25.123-25.357l11.757,10.616
			c-10.101,11.188-30.662,30.738-31.532,31.565L478.252,773.268z"/>
		
			<rect x="465.631" y="610.215" transform="matrix(-1.836970e-16 1 -1 -1.836970e-16 1158.35 207.676)" style="fill:#2278C1;" width="19.413" height="145.596"/>
		<path style="fill:#2278C1;" d="M531.961,719.818l-11.408-10.99c6.806-7.065,18.773-19.116,25.753-26.123
			c-6.669-6.901-18.084-18.557-25.357-25.123l10.616-11.757c11.187,10.101,30.738,30.662,31.565,31.532l5.317,5.597l-5.459,5.459
			C562.777,688.622,541.831,709.573,531.961,719.818z"/>
		<path style="fill:#2278C1;" d="M424.819,720.201c-11.188-10.101-30.739-30.661-31.565-31.531l-5.317-5.597l5.459-5.459
			c0.211-0.21,21.158-21.162,31.027-31.406l11.408,10.99c-6.807,7.065-18.774,19.117-25.753,26.123
			c6.669,6.901,18.084,18.556,25.357,25.123L424.819,720.201z"/>
	</g>
</g>
<g id="male">
	<g>
		<path style="fill:#F7A594;" d="M1760.376,792.059l-118.535,50.598L1564.43,721.46l-21.11,9.616c0,0,37.734,183.888,76.978,188.959
			c39.244,5.072,170.575-37.331,170.575-37.331L1760.376,792.059z"/>
		<path style="fill:#5388FA;" d="M1782.105,782.525l-99.192,41.859c17.451,6.465,34.253,51.991,21.245,83.426l86.609-21.885
			C1828.887,867.026,1825.977,778.032,1782.105,782.525z"/>
		<g>
			<polygon style="fill:#F7A594;" points="1551.525,742.699 1518.851,738.362 1527.181,713.412 1544.1,702.539 1550.609,706.789 
				1558.424,729.892 			"/>
			<g>
				<polygon style="fill:#231F20;" points="1501.327,755.058 1503.667,756.222 1529.933,754.701 1568.551,695.701 1549.808,682.634 
									"/>
				<path style="fill:#231F20;" d="M1544.652,691.881l-15.306-24.085c-3.065-3.597,8.282-22.866,12.137-17.193
					c0,0,34.537,48.991,35.54,51.597c2.355,4.924-11.877,14.304-14.558,10.705L1544.652,691.881z"/>
				<path style="fill:#231F20;" d="M1528.331,753.481c0,0-2.951,5.16-5.328,8.5c-0.93,1.789-18.648-7.738-18.648-7.738l10.529-5.963
					L1528.331,753.481z"/>
			</g>
			<path style="fill:#F7A594;" d="M1565.684,723.364c0,0-7.632-22.538-15.911-26.609c-8.278-4.07-20.961-2.399-20.961-2.399
				s-2.413,7.348,3.459,10.045c5.873,2.697,13.664,1.047,13.664,1.047s-5.997,21.346,3.808,26.195
				C1559.548,736.49,1565.684,723.364,1565.684,723.364z"/>
			<path style="fill:#F7A594;" d="M1518.958,702.988c-4.275,1.822,0.564,7.639,0.564,7.639s-5.1,1.75-6.572,4.792
				c-1.471,3.041,2.514,7.427,2.514,7.427s-6.419,2.878-4.465,7.56c1.954,4.682,21.661,11.876,23.531,5.975
				c1.505-4.75-4.171-9.787-4.171-9.787s11.86,1.188,10.065-2.524c-1.795-3.712-5.908-7.748-5.908-7.748s11.117,1.21,9.314-4.373
				C1541.847,705.812,1523.233,701.166,1518.958,702.988z"/>
			<polygon style="fill:#231F20;" points="1535.902,671.018 1527.706,679.57 1533.764,687.409 1544.632,682.777 			"/>
		</g>
		<g>
			<g>
				<path style="fill:#231F20;" d="M2050.513,1757.367l-87.703-0.301c-1.802-1.037-3.134-2.207-3.919-3.535
					c-4.294-65.243-10.69-96.671-10.69-96.671l61.09-2.277l13.661,48.573C2043.367,1717.212,2067.659,1747.299,2050.513,1757.367z"
					/>
				<path style="fill:#231F20;" d="M1956.158,1758.22l103.977,0.357c2.637,0.009,1.801-14.454-0.835-14.464l-103.359,0.228
					C1953.228,1744.332,1953.445,1758.211,1956.158,1758.22z"/>
			</g>
			<path style="fill:#231F20;" d="M1932.555,1085.699c25.405,77.741,46.437,290.407,82.637,592.936l-62.259,3.066
				c-18.39-91.153-39.313-137.405-60.28-268.783c-48.278-110.101-74.348-214.64-88.219-321.62L1932.555,1085.699z"/>
		</g>
		<g>
			<path style="fill:#231F20;" d="M1848.265,1089.383c-5.938,161.367-56.03,332.409-56.03,332.409
				c-7.275,139.251-2.162,161.208-8.598,260.656l-56.258-0.94c-4.383-67.849-63.337-372.349-6.796-586.546L1848.265,1089.383z"/>
			<path style="fill:#231F20;" d="M1783.637,1682.448c4.926,26.894,8.456,47.875,6.265,72.192l-136.267,2.185
				c0,0-13.443-13.182,3.583-32.828c17.025-19.645,49.188-8.135,70.161-42.49L1783.637,1682.448z"/>
			<path style="fill:#231F20;" d="M1647.445,1757.161l144.766,0.497c2.636,0.009,1.994-14.454-0.642-14.463l-144.155,0.088
				C1644.701,1743.274,1644.732,1757.152,1647.445,1757.161z"/>
		</g>
		<path style="fill:#F7937E;" d="M1843.871,809.109c32.241,4.804,52.379-17.639,57.128-27.035l-2.033-65.286l-36.962-3.727
			c-10.729,0.852-21.46,3.385-30.694,6.995l-8.47,42.955l-1.868,9.314C1816.753,781.485,1811.63,804.304,1843.871,809.109z"/>
		<path style="fill:#D17360;" d="M1886.472,731.524c-5.83,8.907-30.193,31.682-63.633,31.486l7.328-37.164L1886.472,731.524z"/>
		<g>
			<g>
				<path style="fill:#F79F8D;" d="M1798.498,691.391c0.198,2.751,0.701,5.535,1.474,8.32c0.174,0.656,0.363,1.297,0.569,1.953
					c5.727,17.913,21.931,34.934,36.393,37.574c11.876,1.256,26.209-0.31,38.967-4.424c0.208-0.063,0.416-0.142,0.624-0.206
					c8.436-2.769,16.141-6.676,21.915-11.614c4.913-5.724,12.592-16.155,19.524-27.868c4.584-7.74,8.85-16.056,11.755-23.929
					c1.759-4.743,2.927-9.408,3.55-13.979c4.918-35.194-21.573-64.483-54.28-71.999c-29.527-6.769-51.459,0.815-64.082,25.94
					c-3.188,6.337-5.788,13.812-7.768,22.44c-0.812,3.499-1.835,8.085-2.892,13.198
					C1801.158,661.69,1797.766,681.043,1798.498,691.391z"/>
				<path style="fill:#73382A;" d="M1917.243,698.409c7.759-13.549-2.471-19.084-13.742-8.583
					c1.955-10.237,13.737-40.21,3.427-50.198c-11.644-11.587-63.075-6.739-90.597-35.633c0,0,20.741-45.068,88.223-18.179
					C1980.733,626.545,1917.243,698.409,1917.243,698.409z"/>
			</g>
			<path style="fill:#73382A;" d="M1939.872,624.874c-2.836,11.319-83.116,1.133-83.116,1.133s-2.026-0.448-5.267-1.448
				c-13.302-4.104-47.114-17.509-45.692-47.39c2.095-30.657,16.182-43.476,16.622-43.873c-0.017,0.078-0.164,0.491-0.336,1.181
				c-0.897,3.354-2.793,13.087,2.983,19.441c0,0,0-0.164,0.035-0.457v-0.026c0.285-3.362,3.44-23.225,37.079-23.57
				c0.578-0.017,1.164-0.017,1.759-0.009c-10.975,3.543-6.121,32.45-6.121,32.45s0.121-0.267,0.397-0.724
				c1.379-2.397,6.612-10.147,18.147-13.785c0.173-0.06,0.354-0.121,0.535-0.172C1869.49,580.945,1958.267,576.586,1939.872,624.874
				z"/>
		</g>
		<path style="fill:#FFFFFF;" d="M1933.431,1026.082c0,0,6.457,76.554,13.149,111.797l-159.013,1.238l-58.421,0.461l-21.397,0.164
			c9.087-52.138,15.82-54.144,33.34-178.793c9.996-113.991,13.815-155.114,28.315-171.354c13.057-7.583,24.334-11.625,41.229-13.815
			c0.419-0.051,0.849-0.113,1.279-0.164c2.569-0.317,5.28-0.594,8.135-0.829c-1.852,49.866,65.881,40.585,80.627,2.323
			c23.557,2.19,52.537,11.655,63.2,32.899C1980.872,846.664,1933.431,1026.082,1933.431,1026.082z"/>
		<path style="fill:#E3EBFF;" d="M1820.396,783.117c0,0-28.172,65.318-29.625,102.812c-1.095,28.151-2.548,179.51-3.203,253.188
			l-58.421,0.461l25.675-244.377l9.404-61.655l46.407-57.766l0.614-0.757l0.665,0.594L1820.396,783.117z"/>
		<g>
			<g>
				<path style="fill:#231F20;" d="M1905.895,682.631c9.357-26.684-30.651-41.051-30.651-41.051l-19.445,54.655
					C1855.799,696.236,1896.538,709.315,1905.895,682.631z"/>
				<path style="fill:#231F20;" d="M1873.03,640.872c26.331,10.131,8.956,65.188-19.556,54.943l-66.29-20.334
					c-21.765-10.202-8.061-61.288,21.08-54.238L1873.03,640.872z"/>
				<path style="fill:#D4E6FF;" d="M1859.657,693.169c10.913,0.574,19.154-11.004,21.654-22.738
					c2.01-9.436,0.701-21.854-9.572-25.889l-64.201-19.452l-0.062-0.003c-14.608-2.408-22.629,11.655-23.98,16.177
					c-5.148,17.234-1.047,27.714,5.486,30.708l65.667,20.135c1.781,0.638,3.419,0.978,5.006,1.062
					C1859.656,693.169,1859.656,693.169,1859.657,693.169z"/>
				<path style="fill:#53AEFA;" d="M1866.854,651.641c0.402-0.018,0.766-0.284,0.888-0.691c0.155-0.514-0.136-1.057-0.651-1.211
					l-60.219-17.964c-0.517-0.157-1.057,0.137-1.211,0.65c-0.155,0.514,0.136,1.057,0.65,1.211l60.219,17.964
					C1866.639,651.633,1866.749,651.645,1866.854,651.641z"/>
			</g>
			<polygon style="fill:#231F20;" points="1881.499,644.472 1897.602,689.199 1933.106,677.559 1934.972,668.866 			"/>
		</g>
		<path style="fill:#F79F8D;" d="M1907.594,684.481c-5.867,7.085-6.145,16.51-0.623,21.051c5.522,4.541,14.755,2.479,20.621-4.607
			c5.866-7.085,6.145-16.51,0.623-21.051C1922.693,675.333,1913.461,677.395,1907.594,684.481z"/>
		<g>
			<path style="fill:#BD4A31;" d="M1816.848,702.188c0.895,9.022,8.698,14.6,14.44,16.067c14.023,3.573,24.335-4.135,29.489-10.004
				c-1.517,0.239-3.002,0.416-4.464,0.523c-23.016,1.739-39.192-11.999-39.192-11.999
				C1816.748,698.697,1816.671,700.504,1816.848,702.188z"/>
		</g>
		<path style="fill:#FFFFFF;" d="M1816.786,700.776c1.677,1.653,4.661,4.467,8.262,6.294c14.569,7.38,28.16,4.702,28.816,4.509
			l2.45-2.806c-23.016,1.739-39.192-11.999-39.192-11.999C1816.748,698.697,1816.609,699.092,1816.786,700.776z"/>
		<path style="fill:#F7A594;" d="M2068.383,924.095l-65.093-72.833l-61.128,65.227c0,0,61.826,53.954,86.784,61.545
			C2064.821,999.582,2092.12,955.221,2068.383,924.095z"/>
		<path style="fill:#5388FA;" d="M1953.399,796.667c-7.69-2.464-14.646-3.801-20.916-4.203v117.931
			c19.802,17.972,39.3,34.542,39.3,34.542c0.906-27.064,29.78-65.764,61.783-64.634
			C2014.829,854.347,1988.986,826.385,1953.399,796.667z"/>
		<g>
			<path style="fill:#F7A594;" d="M2012.516,765.687l-1.729,156.005c-0.052,23.974,11.076,70.137,58.275,51.976
				c26.093-40.409-28.083-215.136-28.083-215.136L2012.516,765.687z"/>
			<g>
				<path style="fill:#F7A594;" d="M2042.764,765.567c0,0,2.942-39.462-5.167-42.956c-8.11-3.494-39.371-11.047-39.371-11.047
					s-3.748,11.854,4.407,16.502c8.155,4.648,16.536,3.279,16.536,3.279s-2.679,17.172,2.077,25.419
					C2026.001,765.012,2037.498,768.992,2042.764,765.567z"/>
				<path style="fill:#F7A594;" d="M1980.026,723.477c-9.595,5.657-4.711,16.912-4.711,16.912s-7.877,10.892,0.315,19.507
					c-5.27,8.441,3.458,17.132,3.458,17.132l43.524,8.361l21.302-19.168l-9.998-38.808
					C2033.916,727.413,1987.471,720.686,1980.026,723.477z"/>
				<g>
					<g>
						<polygon style="fill:#231F20;" points="1999.272,773.982 2001.871,773.71 2023.238,758.359 2024.25,687.852 2001.424,686.855 
													"/>
						<path style="fill:#231F20;" d="M2002.023,697.425l-25.826-12.142c-4.515-1.396-5.253-23.745,1.041-21.02
							c0,0,55.405,22.875,57.647,24.538c4.626,2.897-2.369,18.44-6.561,16.837L2002.023,697.425z"/>
						<path style="fill:#231F20;" d="M2021.231,758.187c0,0,0.271,5.938,0.053,10.031c0.173,2.009-19.893,3.453-19.893,3.453
							l5.698-10.674L2021.231,758.187z"/>
					</g>
					<polygon style="fill:#231F20;" points="1983.459,684.493 1981.119,696.105 1990.433,699.481 1997.13,689.748 					"/>
				</g>
				<path style="fill:#F7A594;" d="M1999.363,723.153c0,0,31.485,1.245,35.006,6.23c3.52,4.984-8.412,10.729-8.412,10.729
					s11.903,5.612,9.111,10.712c-2.793,5.1-11.273,6.688-11.273,6.688s12.518,7.597,7.894,11.833
					c-4.624,4.237-29.518,7.196-29.518,7.196l-24.564-4.598L1999.363,723.153z"/>
			</g>
		</g>
		<path style="fill:#5388FA;" d="M1814.736,772.928c-36.577,65.444-44.315,250.589-57.828,411.764l-67.408-6.271l48.597-236.19
			l4.819-63.87l5.284-82.094C1770.795,785.631,1793.187,776.396,1814.736,772.928z"/>
		<path style="fill:#FFFFFF;" d="M1737.81,939.362c-0.041,0-0.082-0.002-0.124-0.008c-0.548-0.067-0.938-0.567-0.869-1.115
			c6.302-50.922,6.881-87.359,6.886-87.721c0.008-0.547,0.454-0.986,1-0.986c0.005,0,0.01,0,0.014,0
			c0.553,0.008,0.994,0.462,0.986,1.014c-0.005,0.363-0.585,36.9-6.901,87.939C1738.738,938.991,1738.308,939.362,1737.81,939.362z"
			/>
		<path style="fill:#5388FA;" d="M1955.729,1008.235l30.055,167.046c0,0-24.038,5.229-88.834,5.229
			c-38.671-157.805,6.273-405.488,6.273-405.488c38.661,2.609,84.648,53.294,84.648,53.294l-26.453,105.053l-11.174,44.391
			L1955.729,1008.235z"/>
		<path style="fill:#3A71E8;" d="M1950.244,977.761l5.485,30.474c0,0-16.276-28.904-16.454-55.379
			c-0.177-26.475-8.446-49.218-8.446-49.218l29.696,31.626L1950.244,977.761z"/>
		<path style="fill:#5388FA;" d="M1825.1,749.936l-31.091,10.973l5.748,50.425c7.682-16.069,14.496-24.922,20.641-28.217
			L1825.1,749.936z"/>
		<path style="fill:#5388FA;" d="M1900.085,748.542c-1.084,8.949-5.922,14.283-8.709,18.463
			c-2.787,18.812,6.123,34.959,6.967,52.603l10.103-44.59C1909.476,765.596,1907.255,756.683,1900.085,748.542z"/>
	</g>
</g>
<g id="shadow">
	<path d="M442.2,1769.442h1622.026c2.688,0,4.867-2.179,4.867-4.867l0,0c0-2.688-2.179-4.867-4.867-4.867H442.2
		c-2.688,0-4.867,2.179-4.867,4.867l0,0C437.332,1767.263,439.512,1769.442,442.2,1769.442z"/>
</g>
</svg>
