<?xml version="1.0" encoding="utf-8"?>
<!-- Generator: Adobe Illustrator 27.5.0, SVG Export Plug-In . SVG Version: 6.00 Build 0)  -->
<svg version="1.1" xmlns="http://www.w3.org/2000/svg" xmlns:xlink="http://www.w3.org/1999/xlink" x="0px" y="0px"
	 viewBox="0 0 750 500" style="enable-background:new 0 0 750 500;" xml:space="preserve">
<g id="BACKGROUND">
	<g>
		<rect style="fill:#F3F5FF;" width="750" height="500"/>
	</g>
</g>
<g id="OBJECTS">
	<g>
		<g>
			<polygon style="fill:#BCC4FC;" points="24.071,446.874 24.071,226.566 67.851,226.566 67.851,266.572 95.033,266.572 
				95.033,288.703 171.188,288.703 171.188,167.706 218.266,189.727 218.266,337.693 322.406,337.693 322.406,190.379 
				376.743,190.379 376.743,312.895 414.878,312.895 414.878,256.697 457.551,256.697 457.551,307.864 507.449,331.382 
				538.386,331.382 538.386,246.477 620.871,246.477 620.871,324.651 646.724,324.651 646.724,266.572 680.083,266.572 
				725.118,309.515 725.118,446.444 			"/>
		</g>
		<g>
			<g>
				<rect x="327.511" y="197.546" style="fill:#F4F6FF;" width="7.247" height="7.247"/>
			</g>
			<g>
				<rect x="358.327" y="197.546" style="fill:#F4F6FF;" width="7.247" height="7.247"/>
			</g>
			<g>
				<rect x="342.586" y="197.546" style="fill:#F4F6FF;" width="7.247" height="7.247"/>
			</g>
			<g>
				<rect x="327.511" y="211.392" style="fill:#F4F6FF;" width="7.247" height="7.247"/>
			</g>
			<g>
				<rect x="358.327" y="211.392" style="fill:#F4F6FF;" width="7.247" height="7.247"/>
			</g>
			<g>
				<rect x="342.586" y="211.392" style="fill:#F4F6FF;" width="7.247" height="7.247"/>
			</g>
			<g>
				<rect x="327.511" y="224.083" style="fill:#F4F6FF;" width="7.247" height="7.247"/>
			</g>
			<g>
				<rect x="358.327" y="224.083" style="fill:#F4F6FF;" width="7.247" height="7.247"/>
			</g>
			<g>
				<rect x="342.586" y="224.083" style="fill:#F4F6FF;" width="7.247" height="7.247"/>
			</g>
			<g>
				<rect x="327.511" y="237.928" style="fill:#F4F6FF;" width="7.247" height="7.247"/>
			</g>
			<g>
				<rect x="358.327" y="237.928" style="fill:#F4F6FF;" width="7.247" height="7.247"/>
			</g>
			<g>
				<rect x="342.586" y="237.928" style="fill:#F4F6FF;" width="7.247" height="7.247"/>
			</g>
			<g>
				<rect x="327.383" y="250.272" style="fill:#F4F6FF;" width="7.247" height="7.247"/>
			</g>
			<g>
				<rect x="358.199" y="250.272" style="fill:#F4F6FF;" width="7.247" height="7.247"/>
			</g>
			<g>
				<rect x="342.458" y="250.272" style="fill:#F4F6FF;" width="7.247" height="7.247"/>
			</g>
			<g>
				<rect x="327.383" y="264.118" style="fill:#F4F6FF;" width="7.247" height="7.247"/>
			</g>
			<g>
				<rect x="358.199" y="264.118" style="fill:#F4F6FF;" width="7.247" height="7.247"/>
			</g>
			<g>
				<rect x="342.458" y="264.118" style="fill:#F4F6FF;" width="7.247" height="7.247"/>
			</g>
			<g>
				<rect x="327.383" y="276.809" style="fill:#F4F6FF;" width="7.247" height="7.247"/>
			</g>
			<g>
				<rect x="358.199" y="276.809" style="fill:#F4F6FF;" width="7.247" height="7.247"/>
			</g>
			<g>
				<rect x="342.458" y="276.809" style="fill:#F4F6FF;" width="7.247" height="7.247"/>
			</g>
			<g>
				<rect x="327.383" y="290.654" style="fill:#F4F6FF;" width="7.247" height="7.247"/>
			</g>
			<g>
				<rect x="358.199" y="290.654" style="fill:#F4F6FF;" width="7.247" height="7.247"/>
			</g>
			<g>
				<rect x="342.458" y="290.654" style="fill:#F4F6FF;" width="7.247" height="7.247"/>
			</g>
		</g>
		<g>
			<g>
				<rect x="182.043" y="199.316" style="fill:#F4F6FF;" width="5.848" height="5.848"/>
			</g>
			<g>
				<rect x="206.908" y="199.316" style="fill:#F4F6FF;" width="5.848" height="5.848"/>
			</g>
			<g>
				<rect x="194.207" y="199.316" style="fill:#F4F6FF;" width="5.848" height="5.848"/>
			</g>
			<g>
				<rect x="182.043" y="210.488" style="fill:#F4F6FF;" width="5.848" height="5.848"/>
			</g>
			<g>
				<rect x="206.908" y="210.488" style="fill:#F4F6FF;" width="5.848" height="5.848"/>
			</g>
			<g>
				<rect x="194.207" y="210.488" style="fill:#F4F6FF;" width="5.848" height="5.848"/>
			</g>
			<g>
				<rect x="182.043" y="220.729" style="fill:#F4F6FF;" width="5.848" height="5.848"/>
			</g>
			<g>
				<rect x="206.908" y="220.729" style="fill:#F4F6FF;" width="5.848" height="5.848"/>
			</g>
			<g>
				<rect x="194.207" y="220.729" style="fill:#F4F6FF;" width="5.848" height="5.848"/>
			</g>
			<g>
				<rect x="182.043" y="231.901" style="fill:#F4F6FF;" width="5.848" height="5.848"/>
			</g>
			<g>
				<rect x="206.908" y="231.901" style="fill:#F4F6FF;" width="5.848" height="5.848"/>
			</g>
			<g>
				<rect x="194.207" y="231.901" style="fill:#F4F6FF;" width="5.848" height="5.848"/>
			</g>
			<g>
				<rect x="181.94" y="241.861" style="fill:#F4F6FF;" width="5.848" height="5.848"/>
			</g>
			<g>
				<rect x="206.805" y="241.861" style="fill:#F4F6FF;" width="5.848" height="5.848"/>
			</g>
			<g>
				<rect x="194.104" y="241.861" style="fill:#F4F6FF;" width="5.848" height="5.848"/>
			</g>
			<g>
				<rect x="181.94" y="253.033" style="fill:#F4F6FF;" width="5.848" height="5.848"/>
			</g>
			<g>
				<rect x="206.805" y="253.033" style="fill:#F4F6FF;" width="5.848" height="5.848"/>
			</g>
			<g>
				<rect x="194.104" y="253.033" style="fill:#F4F6FF;" width="5.848" height="5.848"/>
			</g>
			<g>
				<rect x="181.94" y="263.273" style="fill:#F4F6FF;" width="5.848" height="5.848"/>
			</g>
			<g>
				<rect x="206.805" y="263.273" style="fill:#F4F6FF;" width="5.848" height="5.848"/>
			</g>
			<g>
				<rect x="194.104" y="263.273" style="fill:#F4F6FF;" width="5.848" height="5.848"/>
			</g>
			<g>
				<rect x="181.94" y="274.445" style="fill:#F4F6FF;" width="5.848" height="5.848"/>
			</g>
			<g>
				<rect x="206.805" y="274.445" style="fill:#F4F6FF;" width="5.848" height="5.848"/>
			</g>
			<g>
				<rect x="194.104" y="274.445" style="fill:#F4F6FF;" width="5.848" height="5.848"/>
			</g>
		</g>
		<g>
			<g>
				<rect x="419.253" y="261.427" style="fill:#F4F6FF;" width="13.914" height="3.939"/>
			</g>
			<g>
				<rect x="439.753" y="261.427" style="fill:#F4F6FF;" width="13.914" height="3.939"/>
			</g>
			<g>
				<rect x="419.253" y="268.952" style="fill:#F4F6FF;" width="13.914" height="3.939"/>
			</g>
			<g>
				<rect x="439.753" y="268.952" style="fill:#F4F6FF;" width="13.914" height="3.939"/>
			</g>
			<g>
				<rect x="419.253" y="275.849" style="fill:#F4F6FF;" width="13.914" height="3.939"/>
			</g>
			<g>
				<rect x="439.753" y="275.849" style="fill:#F4F6FF;" width="13.914" height="3.939"/>
			</g>
			<g>
				<rect x="419.253" y="283.374" style="fill:#F4F6FF;" width="13.914" height="3.939"/>
			</g>
			<g>
				<rect x="439.753" y="283.374" style="fill:#F4F6FF;" width="13.914" height="3.939"/>
			</g>
			<g>
				<rect x="419.008" y="290.083" style="fill:#F4F6FF;" width="13.914" height="3.939"/>
			</g>
			<g>
				<rect x="439.508" y="290.083" style="fill:#F4F6FF;" width="13.914" height="3.939"/>
			</g>
			<g>
				<rect x="419.008" y="297.608" style="fill:#F4F6FF;" width="13.914" height="3.939"/>
			</g>
			<g>
				<rect x="439.508" y="297.608" style="fill:#F4F6FF;" width="13.914" height="3.939"/>
			</g>
			<g>
				<rect x="419.008" y="304.505" style="fill:#F4F6FF;" width="13.914" height="3.939"/>
			</g>
			<g>
				<rect x="439.508" y="304.505" style="fill:#F4F6FF;" width="13.914" height="3.939"/>
			</g>
			<g>
				<rect x="419.008" y="312.03" style="fill:#F4F6FF;" width="13.914" height="3.939"/>
			</g>
			<g>
				<rect x="439.508" y="312.03" style="fill:#F4F6FF;" width="13.914" height="3.939"/>
			</g>
		</g>
		<g>
			<g>
				<rect x="218.994" y="344.681" style="fill:#F4F6FF;" width="41.345" height="6.361"/>
			</g>
			<g>
				<rect x="279.908" y="344.681" style="fill:#F4F6FF;" width="41.345" height="6.361"/>
			</g>
			<g>
				<rect x="218.994" y="356.834" style="fill:#F4F6FF;" width="41.345" height="6.361"/>
			</g>
			<g>
				<rect x="279.908" y="356.834" style="fill:#F4F6FF;" width="41.345" height="6.361"/>
			</g>
			<g>
				<rect x="218.994" y="367.974" style="fill:#F4F6FF;" width="41.345" height="6.361"/>
			</g>
			<g>
				<rect x="279.908" y="367.974" style="fill:#F4F6FF;" width="41.345" height="6.361"/>
			</g>
			<g>
				<rect x="218.994" y="380.126" style="fill:#F4F6FF;" width="41.345" height="6.361"/>
			</g>
			<g>
				<rect x="279.908" y="380.126" style="fill:#F4F6FF;" width="41.345" height="6.361"/>
			</g>
			<g>
				<rect x="218.266" y="390.961" style="fill:#F4F6FF;" width="41.345" height="6.361"/>
			</g>
			<g>
				<rect x="279.18" y="390.961" style="fill:#F4F6FF;" width="41.345" height="6.361"/>
			</g>
			<g>
				<rect x="218.266" y="403.114" style="fill:#F4F6FF;" width="41.345" height="6.361"/>
			</g>
			<g>
				<rect x="279.18" y="403.114" style="fill:#F4F6FF;" width="41.345" height="6.361"/>
			</g>
			<g>
				<rect x="218.266" y="414.253" style="fill:#F4F6FF;" width="41.345" height="6.361"/>
			</g>
			<g>
				<rect x="279.18" y="414.253" style="fill:#F4F6FF;" width="41.345" height="6.361"/>
			</g>
			<g>
				<rect x="218.266" y="426.406" style="fill:#F4F6FF;" width="41.345" height="6.361"/>
			</g>
			<g>
				<rect x="279.18" y="426.406" style="fill:#F4F6FF;" width="41.345" height="6.361"/>
			</g>
		</g>
		<g>
			<g>
				
					<rect x="636.531" y="387.053" transform="matrix(-1.836970e-16 1 -1 -1.836970e-16 1032.2881 -249.4786)" style="fill:#F4F6FF;" width="8.704" height="8.704"/>
			</g>
			<g>
				
					<rect x="636.531" y="424.063" transform="matrix(-1.836970e-16 1 -1 -1.836970e-16 1069.2987 -212.468)" style="fill:#F4F6FF;" width="8.704" height="8.704"/>
			</g>
			<g>
				
					<rect x="636.531" y="405.158" transform="matrix(-1.836970e-16 1 -1 -1.836970e-16 1050.3937 -231.3729)" style="fill:#F4F6FF;" width="8.704" height="8.704"/>
			</g>
			<g>
				
					<rect x="619.902" y="387.053" transform="matrix(-1.836970e-16 1 -1 -1.836970e-16 1015.659 -232.8495)" style="fill:#F4F6FF;" width="8.704" height="8.704"/>
			</g>
			<g>
				
					<rect x="619.902" y="424.063" transform="matrix(-1.836970e-16 1 -1 -1.836970e-16 1052.6696 -195.8389)" style="fill:#F4F6FF;" width="8.704" height="8.704"/>
			</g>
			<g>
				
					<rect x="619.902" y="405.158" transform="matrix(-1.836970e-16 1 -1 -1.836970e-16 1033.7646 -214.7438)" style="fill:#F4F6FF;" width="8.704" height="8.704"/>
			</g>
			<g>
				
					<rect x="604.66" y="387.053" transform="matrix(-1.836970e-16 1 -1 -1.836970e-16 1000.4169 -217.6074)" style="fill:#F4F6FF;" width="8.704" height="8.704"/>
			</g>
			<g>
				
					<rect x="604.66" y="424.063" transform="matrix(-1.836970e-16 1 -1 -1.836970e-16 1037.4275 -180.5968)" style="fill:#F4F6FF;" width="8.704" height="8.704"/>
			</g>
			<g>
				
					<rect x="604.66" y="405.158" transform="matrix(-1.836970e-16 1 -1 -1.836970e-16 1018.5225 -199.5017)" style="fill:#F4F6FF;" width="8.704" height="8.704"/>
			</g>
			<g>
				
					<rect x="588.031" y="387.053" transform="matrix(-1.836970e-16 1 -1 -1.836970e-16 983.7878 -200.9783)" style="fill:#F4F6FF;" width="8.704" height="8.704"/>
			</g>
			<g>
				
					<rect x="588.031" y="424.063" transform="matrix(-1.836970e-16 1 -1 -1.836970e-16 1020.7984 -163.9677)" style="fill:#F4F6FF;" width="8.704" height="8.704"/>
			</g>
			<g>
				
					<rect x="588.031" y="405.158" transform="matrix(-1.836970e-16 1 -1 -1.836970e-16 1001.8934 -182.8726)" style="fill:#F4F6FF;" width="8.704" height="8.704"/>
			</g>
			<g>
				
					<rect x="573.206" y="386.9" transform="matrix(-1.836970e-16 1 -1 -1.836970e-16 968.8096 -186.3067)" style="fill:#F4F6FF;" width="8.704" height="8.704"/>
			</g>
			<g>
				
					<rect x="573.206" y="423.91" transform="matrix(-1.836970e-16 1 -1 -1.836970e-16 1005.8202 -149.2961)" style="fill:#F4F6FF;" width="8.704" height="8.704"/>
			</g>
			<g>
				
					<rect x="573.206" y="405.005" transform="matrix(-1.836970e-16 1 -1 -1.836970e-16 986.9152 -168.201)" style="fill:#F4F6FF;" width="8.704" height="8.704"/>
			</g>
			<g>
				
					<rect x="556.577" y="386.9" transform="matrix(-1.836970e-16 1 -1 -1.836970e-16 952.1805 -169.6776)" style="fill:#F4F6FF;" width="8.704" height="8.704"/>
			</g>
			<g>
				
					<rect x="556.577" y="423.91" transform="matrix(-1.836970e-16 1 -1 -1.836970e-16 989.1911 -132.667)" style="fill:#F4F6FF;" width="8.704" height="8.704"/>
			</g>
			<g>
				
					<rect x="556.577" y="405.005" transform="matrix(-1.836970e-16 1 -1 -1.836970e-16 970.2861 -151.5719)" style="fill:#F4F6FF;" width="8.704" height="8.704"/>
			</g>
			<g>
				
					<rect x="541.335" y="386.9" transform="matrix(-1.836970e-16 1 -1 -1.836970e-16 936.9384 -154.4355)" style="fill:#F4F6FF;" width="8.704" height="8.704"/>
			</g>
			<g>
				
					<rect x="541.335" y="423.91" transform="matrix(-1.836970e-16 1 -1 -1.836970e-16 973.949 -117.4249)" style="fill:#F4F6FF;" width="8.704" height="8.704"/>
			</g>
			<g>
				
					<rect x="541.335" y="405.005" transform="matrix(-1.836970e-16 1 -1 -1.836970e-16 955.0441 -136.3298)" style="fill:#F4F6FF;" width="8.704" height="8.704"/>
			</g>
			<g>
				
					<rect x="524.706" y="386.9" transform="matrix(-1.836970e-16 1 -1 -1.836970e-16 920.3093 -137.8064)" style="fill:#F4F6FF;" width="8.704" height="8.704"/>
			</g>
			<g>
				
					<rect x="524.706" y="423.91" transform="matrix(-1.836970e-16 1 -1 -1.836970e-16 957.3199 -100.7958)" style="fill:#F4F6FF;" width="8.704" height="8.704"/>
			</g>
			<g>
				
					<rect x="524.706" y="405.005" transform="matrix(-1.836970e-16 1 -1 -1.836970e-16 938.4149 -119.7007)" style="fill:#F4F6FF;" width="8.704" height="8.704"/>
			</g>
		</g>
		<g>
			<g>
				
					<rect x="644.617" y="374.244" transform="matrix(6.123234e-17 -1 1 6.123234e-17 280.5311 1038.2218)" style="fill:#F4F6FF;" width="29.519" height="9.203"/>
			</g>
			<g>
				
					<rect x="644.617" y="330.753" transform="matrix(6.123234e-17 -1 1 6.123234e-17 324.0223 994.7307)" style="fill:#F4F6FF;" width="29.519" height="9.203"/>
			</g>
			<g>
				
					<rect x="662.199" y="374.244" transform="matrix(6.123234e-17 -1 1 6.123234e-17 298.1134 1055.8041)" style="fill:#F4F6FF;" width="29.519" height="9.203"/>
			</g>
			<g>
				
					<rect x="662.199" y="330.753" transform="matrix(6.123234e-17 -1 1 6.123234e-17 341.6046 1012.313)" style="fill:#F4F6FF;" width="29.519" height="9.203"/>
			</g>
			<g>
				
					<rect x="678.315" y="374.244" transform="matrix(6.123234e-17 -1 1 6.123234e-17 314.2292 1071.9199)" style="fill:#F4F6FF;" width="29.519" height="9.203"/>
			</g>
			<g>
				
					<rect x="678.315" y="330.753" transform="matrix(6.123234e-17 -1 1 6.123234e-17 357.7204 1028.4288)" style="fill:#F4F6FF;" width="29.519" height="9.203"/>
			</g>
			<g>
				
					<rect x="695.898" y="374.244" transform="matrix(6.123234e-17 -1 1 6.123234e-17 331.8116 1089.5023)" style="fill:#F4F6FF;" width="29.519" height="9.203"/>
			</g>
			<g>
				
					<rect x="695.897" y="330.753" transform="matrix(6.123234e-17 -1 1 6.123234e-17 375.3028 1046.0112)" style="fill:#F4F6FF;" width="29.519" height="9.203"/>
			</g>
		</g>
		<g>
			<g>
				
					<rect x="93.079" y="334.166" transform="matrix(6.123234e-17 -1 1 6.123234e-17 -233.1676 442.3406)" style="fill:#F4F6FF;" width="23.016" height="7.175"/>
			</g>
			<g>
				
					<rect x="93.079" y="300.257" transform="matrix(6.123234e-17 -1 1 6.123234e-17 -199.2581 408.4311)" style="fill:#F4F6FF;" width="23.016" height="7.175"/>
			</g>
			<g>
				
					<rect x="106.787" y="334.166" transform="matrix(6.123234e-17 -1 1 6.123234e-17 -219.4588 456.0493)" style="fill:#F4F6FF;" width="23.016" height="7.175"/>
			</g>
			<g>
				
					<rect x="106.787" y="300.257" transform="matrix(6.123234e-17 -1 1 6.123234e-17 -185.5493 422.1399)" style="fill:#F4F6FF;" width="23.016" height="7.175"/>
			</g>
			<g>
				
					<rect x="119.353" y="334.166" transform="matrix(6.123234e-17 -1 1 6.123234e-17 -206.8936 468.6147)" style="fill:#F4F6FF;" width="23.016" height="7.175"/>
			</g>
			<g>
				
					<rect x="119.353" y="300.257" transform="matrix(6.123234e-17 -1 1 6.123234e-17 -172.9841 434.7051)" style="fill:#F4F6FF;" width="23.016" height="7.175"/>
			</g>
			<g>
				
					<rect x="133.061" y="334.166" transform="matrix(6.123234e-17 -1 1 6.123234e-17 -193.1848 482.3234)" style="fill:#F4F6FF;" width="23.016" height="7.175"/>
			</g>
			<g>
				
					<rect x="133.061" y="300.257" transform="matrix(6.123234e-17 -1 1 6.123234e-17 -159.2753 448.4139)" style="fill:#F4F6FF;" width="23.016" height="7.175"/>
			</g>
		</g>
		<g>
			<g>
				<rect x="29.421" y="233.089" style="fill:#F4F6FF;" width="6.314" height="6.314"/>
			</g>
			<g>
				<rect x="56.271" y="233.089" style="fill:#F4F6FF;" width="6.314" height="6.314"/>
			</g>
			<g>
				<rect x="42.556" y="233.089" style="fill:#F4F6FF;" width="6.314" height="6.314"/>
			</g>
			<g>
				<rect x="29.421" y="245.153" style="fill:#F4F6FF;" width="6.314" height="6.314"/>
			</g>
			<g>
				<rect x="56.271" y="245.153" style="fill:#F4F6FF;" width="6.314" height="6.314"/>
			</g>
			<g>
				<rect x="42.556" y="245.153" style="fill:#F4F6FF;" width="6.314" height="6.314"/>
			</g>
			<g>
				<rect x="29.421" y="256.21" style="fill:#F4F6FF;" width="6.314" height="6.314"/>
			</g>
			<g>
				<rect x="56.271" y="256.21" style="fill:#F4F6FF;" width="6.314" height="6.314"/>
			</g>
			<g>
				<rect x="42.556" y="256.21" style="fill:#F4F6FF;" width="6.314" height="6.314"/>
			</g>
			<g>
				<rect x="29.421" y="268.274" style="fill:#F4F6FF;" width="6.314" height="6.314"/>
			</g>
			<g>
				<rect x="56.271" y="268.274" style="fill:#F4F6FF;" width="6.314" height="6.314"/>
			</g>
			<g>
				<rect x="42.556" y="268.274" style="fill:#F4F6FF;" width="6.314" height="6.314"/>
			</g>
			<g>
				<rect x="29.31" y="279.029" style="fill:#F4F6FF;" width="6.314" height="6.314"/>
			</g>
			<g>
				<rect x="56.16" y="279.029" style="fill:#F4F6FF;" width="6.314" height="6.314"/>
			</g>
			<g>
				<rect x="42.445" y="279.029" style="fill:#F4F6FF;" width="6.314" height="6.314"/>
			</g>
			<g>
				<rect x="29.31" y="291.093" style="fill:#F4F6FF;" width="6.314" height="6.314"/>
			</g>
			<g>
				<rect x="56.16" y="291.093" style="fill:#F4F6FF;" width="6.314" height="6.314"/>
			</g>
			<g>
				<rect x="42.445" y="291.093" style="fill:#F4F6FF;" width="6.314" height="6.314"/>
			</g>
			<g>
				<rect x="29.31" y="302.15" style="fill:#F4F6FF;" width="6.314" height="6.314"/>
			</g>
			<g>
				<rect x="56.16" y="302.15" style="fill:#F4F6FF;" width="6.314" height="6.314"/>
			</g>
			<g>
				<rect x="42.445" y="302.15" style="fill:#F4F6FF;" width="6.314" height="6.314"/>
			</g>
			<g>
				<rect x="29.31" y="314.214" style="fill:#F4F6FF;" width="6.314" height="6.314"/>
			</g>
			<g>
				<rect x="56.16" y="314.214" style="fill:#F4F6FF;" width="6.314" height="6.314"/>
			</g>
			<g>
				<rect x="42.445" y="314.214" style="fill:#F4F6FF;" width="6.314" height="6.314"/>
			</g>
		</g>
	</g>
	<g>
		<g>
			<rect x="235.092" y="226.566" style="fill:#BCC4FC;" width="14.462" height="64.564"/>
		</g>
		<g>
			
				<rect x="276.691" y="226.566" transform="matrix(-1 -1.224647e-16 1.224647e-16 -1 567.8447 517.6965)" style="fill:#BCC4FC;" width="14.462" height="64.564"/>
		</g>
		<g>
			<path style="fill:#20167B;" d="M325.221,447.194c-0.328,0-0.63-0.217-0.722-0.549L264.73,231.741l-59.77,214.904
				c-0.111,0.399-0.524,0.631-0.924,0.521c-0.399-0.111-0.632-0.524-0.521-0.924l60.492-217.502c0.09-0.324,0.386-0.549,0.723-0.549
				s0.632,0.225,0.723,0.549l60.492,217.502c0.111,0.399-0.122,0.813-0.521,0.924C325.355,447.186,325.287,447.194,325.221,447.194z
				"/>
		</g>
		<g>
			<path style="fill:#20167B;" d="M264.73,447.795c-0.414,0-0.75-0.336-0.75-0.75V228.943c0-0.414,0.336-0.75,0.75-0.75
				c0.414,0,0.75,0.336,0.75,0.75v218.103C265.48,447.459,265.144,447.795,264.73,447.795z"/>
		</g>
		<g>
			<path style="fill:#20167B;" d="M264.729,437.072c-0.174,0-0.349-0.06-0.491-0.184l-46.464-40.316
				c-0.18-0.156-0.274-0.388-0.256-0.625c0.018-0.237,0.148-0.452,0.351-0.578l45.723-28.532l-28.44-33.1
				c-0.258-0.3-0.238-0.748,0.044-1.025l28.598-28.014l-13.872-24.487c-0.205-0.361-0.078-0.818,0.283-1.022
				c0.359-0.204,0.818-0.078,1.022,0.282l14.156,24.989c0.168,0.296,0.115,0.668-0.127,0.906l-28.508,27.926l28.552,33.229
				c0.143,0.166,0.206,0.387,0.172,0.603c-0.033,0.216-0.159,0.407-0.344,0.523l-45.603,28.457l45.698,39.651
				c0.313,0.271,0.346,0.745,0.075,1.058C265.148,436.984,264.939,437.072,264.729,437.072z"/>
		</g>
		<g>
			<path style="fill:#20167B;" d="M207.053,437.072c-0.247,0-0.489-0.122-0.632-0.346c-0.223-0.35-0.121-0.814,0.228-1.036
				l56.848-36.33l-37.187-33.53c-0.164-0.148-0.255-0.362-0.247-0.584c0.008-0.222,0.114-0.429,0.289-0.564l37.386-29.069
				l-20.13-32.627c-0.175-0.283-0.142-0.647,0.081-0.896l20.483-22.751c0.278-0.307,0.751-0.332,1.06-0.056
				c0.308,0.277,0.333,0.752,0.055,1.06l-20.108,22.333l20.189,32.722c0.201,0.325,0.125,0.751-0.178,0.985l-37.21,28.934
				l37.252,33.589c0.174,0.156,0.264,0.385,0.245,0.618c-0.02,0.233-0.146,0.444-0.344,0.57l-57.677,36.86
				C207.331,437.034,207.192,437.072,207.053,437.072z"/>
		</g>
		<g>
			<path style="fill:#20167B;" d="M264.73,437.072c-0.21,0-0.418-0.088-0.567-0.259c-0.271-0.313-0.238-0.786,0.075-1.058
				l45.697-39.651l-45.603-28.457c-0.186-0.116-0.311-0.308-0.344-0.523c-0.033-0.216,0.03-0.437,0.172-0.603l28.551-33.229
				l-28.507-27.926c-0.243-0.238-0.295-0.61-0.128-0.906l14.156-24.989c0.204-0.36,0.664-0.485,1.022-0.282
				c0.36,0.204,0.487,0.661,0.283,1.022l-13.871,24.487l28.597,28.014c0.282,0.277,0.302,0.725,0.044,1.025l-28.44,33.1
				l45.723,28.532c0.202,0.126,0.332,0.341,0.351,0.578c0.019,0.237-0.076,0.469-0.256,0.625l-46.464,40.316
				C265.079,437.012,264.904,437.072,264.73,437.072z"/>
		</g>
		<g>
			<path style="fill:#20167B;" d="M322.406,437.072c-0.139,0-0.278-0.038-0.403-0.118l-57.677-36.86
				c-0.197-0.126-0.324-0.337-0.344-0.57c-0.019-0.233,0.071-0.462,0.245-0.618l37.252-33.589l-37.21-28.934
				c-0.302-0.234-0.379-0.66-0.178-0.985l20.189-32.722l-20.107-22.333c-0.277-0.308-0.253-0.782,0.055-1.06
				c0.309-0.276,0.782-0.251,1.06,0.056l20.483,22.751c0.223,0.248,0.255,0.612,0.081,0.896l-20.13,32.627l37.385,29.069
				c0.175,0.136,0.281,0.343,0.289,0.564c0.008,0.222-0.082,0.436-0.247,0.584l-37.186,33.53l56.848,36.33
				c0.349,0.223,0.451,0.686,0.228,1.036C322.895,436.95,322.653,437.072,322.406,437.072z"/>
		</g>
		<g>
			<g>
				<circle style="fill:#6C80FA;" cx="265.099" cy="217.015" r="23.205"/>
			</g>
			<g>
				<g>
					<path style="fill:#20167B;" d="M250.612,228.973c-1.391-1.366-2.086-3.298-2.086-5.794v-12.06c0-5.407,2.717-8.111,8.15-8.111
						c2.587,0,4.56,0.676,5.919,2.028c1.358,1.352,2.038,3.291,2.038,5.816v0.579h-5.045v-0.891c0-2.05-0.922-3.075-2.765-3.075
						c-1.003,0-1.747,0.283-2.232,0.847c-0.485,0.565-0.728,1.56-0.728,2.986v4.614h0.097c0.938-1.812,2.555-2.719,4.851-2.719
						c1.94,0,3.412,0.609,4.415,1.827c1.002,1.219,1.504,2.986,1.504,5.303v2.855c0,2.496-0.696,4.428-2.086,5.794
						c-1.391,1.367-3.396,2.05-6.016,2.05C254.008,231.023,252.002,230.34,250.612,228.973z M259.393,223.536v-2.811
						c0-2.05-0.922-3.075-2.765-3.075c-1.844,0-2.765,1.025-2.765,3.075v2.811c0,2.021,0.922,3.031,2.765,3.031
						C258.471,226.566,259.393,225.557,259.393,223.536z"/>
				</g>
				<g>
					<path style="fill:#20167B;" d="M267.797,228.995c-1.358-1.352-2.038-3.29-2.038-5.816v-12.328c0-2.525,0.679-4.464,2.038-5.816
						c1.358-1.352,3.331-2.028,5.919-2.028c2.587,0,4.56,0.676,5.919,2.028c1.358,1.352,2.037,3.291,2.037,5.816v1.316h-5.045
						v-1.628c0-2.05-0.922-3.075-2.765-3.075c-1.843,0-2.765,1.025-2.765,3.075v12.996c0,2.021,0.922,3.031,2.765,3.031
						c1.844,0,2.765-1.01,2.765-3.031v-3.39h-2.668v-4.457h7.714v7.49c0,2.526-0.679,4.464-2.037,5.816
						c-1.358,1.352-3.332,2.028-5.919,2.028C271.127,231.023,269.155,230.348,267.797,228.995z"/>
				</g>
			</g>
		</g>
		<g>
			<path style="fill:#20167B;" d="M245.927,297.297c-0.172,0-0.346-0.06-0.487-0.18l-13.372-11.439
				c-0.195-0.167-0.292-0.422-0.255-0.677c0.037-0.254,0.2-0.472,0.434-0.577l14.58-6.581l-14.838-17.116
				c-0.271-0.313-0.237-0.786,0.076-1.058c0.313-0.271,0.787-0.236,1.058,0.075l15.497,17.877c0.155,0.179,0.216,0.421,0.166,0.652
				c-0.051,0.231-0.208,0.425-0.424,0.522l-14.421,6.509l12.475,10.672c0.315,0.269,0.352,0.743,0.083,1.058
				C246.348,297.208,246.138,297.297,245.927,297.297z"/>
		</g>
		<g>
			<path style="fill:#20167B;" d="M232.555,313.645c-0.208,0-0.415-0.086-0.563-0.254c-0.274-0.311-0.244-0.785,0.066-1.059
				l11.691-10.303c0.312-0.275,0.785-0.244,1.059,0.066c0.274,0.311,0.244,0.785-0.066,1.059l-11.691,10.303
				C232.908,313.583,232.731,313.645,232.555,313.645z"/>
		</g>
		<g>
			<path style="fill:#20167B;" d="M283.533,297.297c-0.212,0-0.422-0.089-0.57-0.263c-0.27-0.314-0.232-0.788,0.082-1.058
				l12.475-10.672l-14.421-6.509c-0.216-0.098-0.373-0.291-0.424-0.522c-0.051-0.231,0.011-0.474,0.165-0.652l15.498-17.877
				c0.272-0.311,0.745-0.347,1.058-0.075c0.313,0.272,0.347,0.745,0.076,1.058l-14.838,17.116l14.58,6.581
				c0.234,0.105,0.397,0.323,0.434,0.577c0.036,0.255-0.06,0.51-0.255,0.677l-13.373,11.439
				C283.878,297.237,283.705,297.297,283.533,297.297z"/>
		</g>
		<g>
			<path style="fill:#20167B;" d="M296.904,313.645c-0.176,0-0.353-0.062-0.496-0.188l-11.691-10.303
				c-0.311-0.273-0.34-0.748-0.066-1.059c0.272-0.31,0.747-0.342,1.059-0.066l11.691,10.303c0.31,0.273,0.34,0.748,0.066,1.059
				C297.319,313.559,297.112,313.645,296.904,313.645z"/>
		</g>
		<g>
			<rect x="243.872" y="251.779" style="fill:#6C80FA;" width="40.389" height="74.732"/>
		</g>
		<g>
			<path style="fill:#20167B;" d="M246.144,325.401c-0.414,0-0.75-0.336-0.75-0.75v-71.896c0-0.414,0.336-0.75,0.75-0.75
				c0.414,0,0.75,0.336,0.75,0.75v71.896C246.894,325.065,246.558,325.401,246.144,325.401z"/>
		</g>
		<g>
			<rect x="215.815" y="246.067" style="fill:#6C80FA;" width="16.74" height="74.732"/>
		</g>
		<g>
			<path style="fill:#20167B;" d="M230.677,320.64c-0.414,0-0.75-0.336-0.75-0.75v-73.159c0-0.414,0.336-0.75,0.75-0.75
				c0.414,0,0.75,0.336,0.75,0.75v73.159C231.427,320.304,231.091,320.64,230.677,320.64z"/>
		</g>
		<g>
			
				<rect x="296.905" y="246.067" transform="matrix(-1 -1.224647e-16 1.224647e-16 -1 610.5493 566.8662)" style="fill:#6C80FA;" width="16.74" height="74.732"/>
		</g>
		<g>
			<path style="fill:#20167B;" d="M298.782,320.64c-0.414,0-0.75-0.336-0.75-0.75v-73.159c0-0.414,0.336-0.75,0.75-0.75
				c0.414,0,0.75,0.336,0.75,0.75v73.159C299.532,320.304,299.196,320.64,298.782,320.64z"/>
		</g>
	</g>
	<g>
		<ellipse style="fill:#D4DDFD;" cx="366.629" cy="471.228" rx="333.886" ry="10.24"/>
	</g>
	<g>
		<polygon style="fill:#6C80FA;" points="491.299,338.433 479.417,338.433 479.417,427.796 455.813,427.796 455.813,338.433 
			443.848,338.433 467.536,307.919 467.576,307.864 467.615,307.919 		"/>
	</g>
	<g>
		<polygon style="fill:#6C80FA;" points="435.978,386.784 424.097,386.784 424.097,446.724 400.492,446.724 400.492,386.784 
			388.527,386.784 412.215,356.269 412.255,356.215 412.295,356.269 		"/>
	</g>
	<g>
		<polygon style="fill:#6C80FA;" points="110.382,320.816 98.501,320.816 98.501,380.803 74.896,380.803 74.896,320.816 
			62.931,320.816 86.619,290.302 86.659,290.247 86.699,290.302 		"/>
	</g>
	<g>
		<polygon style="fill:#6C80FA;" points="719.809,386.582 707.927,386.582 707.927,446.57 684.323,446.57 684.323,386.582 
			672.357,386.582 696.046,356.068 696.086,356.013 696.125,356.068 		"/>
	</g>
	<g>
		<g>
			<path style="fill:#A7AEFA;" d="M336.351,446.874H24.071c0.67-2.52,1.67-4.87,3.09-6.87c0.97-1.42,1.98-2.74,3.22-3.83
				c1.22-1.11,2.53-2.05,3.89-2.83c-0.28-0.9-0.51-1.85-0.61-2.81c-0.09-0.95-0.1-1.93-0.03-2.92c0.16-1.98,0.6-4.05,1.57-5.95
				c0.44-0.9,0.94-1.76,1.49-2.57c0.54-0.8,1.14-1.54,1.84-2.18c1.36-1.31,2.88-2.36,4.47-3.11c3.26-1.46,6.86-1.69,10.18-0.76
				c0.32-2.17,1.28-4.24,2.69-6.13c1.41-1.72,3.19-3.01,5.06-3.86c-0.96-2.12-1.51-4.34-1.7-6.67c-0.19-2.33,0-4.75,0.68-7.04
				c0.67-2.31,1.68-4.67,3.21-6.72c0.75-1.04,1.58-2.05,2.51-3.01c0.92-0.96,2-1.78,3.12-2.59c0.92-0.65,1.86-1.23,2.82-1.75
				c0.97-0.51,1.99-0.9,2.99-1.25c2.03-0.68,4.03-1.17,6.09-1.23c2.04-0.1,4.02,0.06,5.9,0.47c1.91,0.46,3.71,1.18,5.36,2.1
				c1.55-2.03,3.74-3.53,6.3-4.48c1.45-0.57,2.96-0.77,4.42-0.8c1.47-0.02,2.89,0.14,4.23,0.55c2.71,0.87,5.05,2.49,6.76,4.66
				c1.46-1.04,3.2-1.75,5.1-2.09c1.08-0.21,2.16-0.15,3.2-0.03c0.53-2.4,1.47-4.67,2.78-6.76c1.31-2.03,3.01-3.82,5.02-5.35
				c2.01-1.55,4.33-2.6,6.87-3.39c2.54-0.75,5.27-0.98,8.09-0.84c3.5,0.35,6.79,1.29,9.58,2.97c2.81,1.58,5.12,3.82,6.85,6.34
				c1.66-0.8,3.47-1.25,5.37-1.36c1.89-0.12,3.88,0.04,5.8,0.69c1.83,0.6,3.52,1.39,4.94,2.53c1.43,1.12,2.64,2.43,3.58,3.86
				c1.88,2.94,2.66,6.43,2.29,9.85c2.17-0.08,4.34,0.49,6.41,1.52c1.92,1.04,3.47,2.52,4.63,4.18c1.88-1.37,3.93-2.36,6.13-3.04
				c2.2-0.68,4.55-1.02,6.88-0.89c2.33,0.12,4.76,0.55,7.01,1.49c1.14,0.46,2.26,1,3.35,1.64c1.1,0.64,2.1,1.43,3.09,2.27
				c0.8,0.7,1.55,1.43,2.24,2.2c0.69,0.77,1.28,1.6,1.83,2.44c0.1,0.16,0.21,0.32,0.31,0.49c0.68-0.46,1.4-0.91,2.16-1.33
				c1.36-0.82,2.84-1.44,4.4-2.01c1.57-0.55,3.22-1.1,4.94-1.43c1.74-0.31,3.54-0.54,5.39-0.66c0.92-0.09,1.86-0.08,2.8-0.04
				c0.94,0.04,1.9,0.1,2.85,0.19c3.15,0.22,6.09,1.04,8.86,1.94c2.76,0.96,5.25,2.31,7.49,3.7c2.2,1.52,4.11,3.21,5.71,4.97
				c1.57,1.84,2.81,3.78,3.72,5.73c1.66-0.06,3.32,0.22,5.04,0.62c1.71,0.4,3.46,0.97,5.11,1.86c3.84,1.87,6.84,4.7,8.84,7.67
				c1.93,3.11,2.95,6.25,2.76,9.35c2.25,0.8,4.56,1.99,6.54,3.8c1.12,1.01,2.21,2.03,3.01,3.23c2.41-0.87,5.09-1.25,7.96-1.1
				c2.82,0.18,5.76,0.97,8.77,2.28C326.901,435.384,332.451,440.224,336.351,446.874z"/>
		</g>
	</g>
	<g>
		<path style="fill:#A7AEFA;" d="M714.679,446.57h-290.76c0.68-0.82,1.42-1.57,2.19-2.27c1.36-1.26,2.74-2.39,4.26-3.29
			c1.52-0.9,3.08-1.64,4.65-2.19c-0.02-1.02,0.01-2.07,0.17-3.11c0.16-1.02,0.42-2.06,0.75-3.1c0.68-2.07,1.64-4.17,3.08-6.03
			c1.35-1.78,2.82-3.37,4.52-4.57c1.69-1.21,3.48-2.14,5.3-2.76c3.67-1.21,7.48-1.12,10.76,0.14c0.83-2.35,2.31-4.51,4.21-6.45
			c1.86-1.8,4.02-3.08,6.21-3.92c-0.62-2.33-0.78-4.72-0.57-7.19c0.21-2.47,0.81-5.01,1.9-7.4c1.08-2.4,2.49-4.83,4.39-6.93
			c0.94-1.07,1.97-2.1,3.08-3.08c1.1-0.99,2.36-1.82,3.66-2.65c1.06-0.66,2.14-1.25,3.23-1.79c1.09-0.53,2.23-0.93,3.35-1.3
			c2.26-0.71,4.48-1.24,6.73-1.34c2.23-0.14,4.4-0.02,6.45,0.33c2.07,0.41,4.03,1.08,5.82,1.95c0.94-1.03,2-2.06,3.24-2.84
			c1.24-0.81,2.6-1.5,4.06-2.05c1.66-0.66,3.37-0.97,5.03-1.09c1.67-0.11,3.29-0.04,4.82,0.28c3.09,0.69,5.79,2.15,7.79,4.21
			c1.71-1.18,3.74-2.02,5.95-2.52c1.26-0.3,2.53-0.34,3.75-0.3c0.56-2.44,1.56-4.8,2.99-6.99c1.43-2.15,3.29-4.06,5.51-5.76
			c0.55-0.41,1.13-0.83,1.72-1.2c0.6-0.37,1.22-0.71,1.86-1.03c1.28-0.66,2.63-1.23,4.05-1.72c2.84-0.97,5.94-1.4,9.16-1.51
			c4.03,0.07,7.88,0.72,11.28,2.17c1.7,0.71,3.29,1.49,4.75,2.49c1.45,0.99,2.77,2.1,3.93,3.29c0.91-0.45,1.87-0.86,2.88-1.16
			c1-0.28,2.05-0.5,3.13-0.63c2.16-0.26,4.46-0.27,6.76,0.24c2.19,0.47,4.25,1.13,6.06,2.17c1.82,1.03,3.42,2.26,4.75,3.64
			c2.66,2.83,4.2,6.33,4.43,9.83c2.49-0.22,5.08,0.23,7.65,1.14c2.42,0.95,4.49,2.4,6.17,4.04c1.87-1.53,3.98-2.66,6.33-3.49
			c2.34-0.81,4.92-1.32,7.55-1.3c2.63,0,5.44,0.29,8.14,1.17c1.36,0.42,2.73,0.93,4.08,1.55c1.36,0.59,2.63,1.4,3.91,2.24
			c1.03,0.69,2.02,1.43,2.95,2.2c0.93,0.78,1.76,1.65,2.56,2.52c1.57,1.76,2.96,3.56,3.97,5.56c1.03,1.97,1.82,3.98,2.33,5.99
			c0.48,2.05,0.68,4.1,0.62,6.08c2.71,0.79,5.25,2.38,7.46,4.57c1.28,1.22,2.27,2.64,3.07,4.09c0.8,1.46,1.41,2.95,1.77,4.48
			c0.66,3.08,0.48,6.14-0.55,8.82c1.8,1.06,3.42,2.54,4.8,4.33c0.8,1.01,1.37,2.15,1.85,3.28c2.46-0.53,5.02-0.62,7.6-0.25
			c2.56,0.39,5.08,1.28,7.56,2.58c0.61,0.33,1.23,0.68,1.82,1.07c0.58,0.39,1.16,0.81,1.72,1.26c1.14,0.89,2.23,1.89,3.27,2.98
			C713.359,444.82,714.039,445.67,714.679,446.57z"/>
	</g>
	<g>
		<path style="fill:#20167B;" d="M732.068,447.627H19.296c-0.414,0-0.75-0.336-0.75-0.75s0.336-0.75,0.75-0.75h712.772
			c0.414,0,0.75,0.336,0.75,0.75S732.482,447.627,732.068,447.627z"/>
	</g>
	<g>
		<g>
			<path style="fill:#20167B;" d="M585.89,75.035c0.025,2.426-1.443,4.814-3.627,5.861l-2.962-0.128
				c1.685-3.282,1.405-8.287-0.153-11.377l2.975-0.115C584.332,70.272,585.852,72.621,585.89,75.035z"/>
		</g>
		<g>
			<path style="fill:#20167B;" d="M582.263,80.896c1.315,1.928,1.52,4.546,0.549,6.653c-0.881,1.877-2.681,3.294-4.712,3.741
				l-2.349-6.461h-0.013c-0.038-0.319-0.077-0.651-0.14-0.97c1.711-0.409,2.924-1.571,3.703-3.09L582.263,80.896z"/>
		</g>
		<g>
			<path style="fill:#20167B;" d="M534.201,55.306c1.009-1.213,2.797-1.686,4.278-1.175c-0.562-2.796,0.575-5.899,2.873-7.61
				c2.426-1.826,6.001-1.954,8.568-0.332c1.213-2.439,4.073-3.933,6.768-3.563c2.694,0.37,5.031,2.605,5.542,5.274
				c1.507-1.711,4.239-2.196,6.257-1.111c2.005,1.098,3.09,3.652,2.464,5.861c2.069-0.587,4.444,0.204,5.746,1.903
				c1.302,1.698,1.456,4.201,0.358,6.053c2.005,0.038,3.946,1.188,4.954,2.911c1.009,1.737,1.06,3.984,0.115,5.759l-2.975,0.115
				c-0.932-1.852-2.311-3.001-3.984-2.707c-1.06,0.179-2.235,0.945-3.499,2.477c0,0-2.452,2.86-1.775,6.168
				c0,0-5.21-3.511-5.644-9.27c-1.124,1.354-2.758,2.311-4.508,2.554c-2.681,0.37-5.529-0.945-6.985-3.231
				c-0.983,3.32-4.341,5.772-7.802,5.708c-1.749-0.025-3.652-0.804-4.316-2.426c-0.562,2.158-2.707,3.69-4.942,3.831
				c-0.472,0.026-0.958,0-1.43-0.115c-2.643-0.6-4.597-3.269-4.584-5.989c0.026-2.72,1.877-5.274,4.393-6.321
				C533.051,58.69,533.115,56.634,534.201,55.306z"/>
		</g>
		<g>
			<path style="fill:#E385A0;" d="M575.164,66.684c1.673-0.294,3.052,0.855,3.984,2.707c1.558,3.09,1.839,8.096,0.153,11.377
				c-0.779,1.52-1.992,2.682-3.703,3.09c0.064,0.319,0.102,0.651,0.14,0.97c0.294,2.464,0.192,4.814-0.204,7.01
				c-1.941,10.483-10.803,17.749-17.379,19.639c-1.328,0.396-2.567,0.562-3.626,0.485c-7.687-0.523-16.434-16.983-16.97-22.959
				c-0.409-4.597-1.417-12.922-1.864-16.51c2.235-0.14,4.38-1.673,4.942-3.831c0.664,1.622,2.567,2.401,4.316,2.426
				c3.461,0.064,6.819-2.388,7.802-5.708c1.456,2.286,4.303,3.601,6.985,3.231c1.749-0.243,3.384-1.2,4.508-2.554
				c0.434,5.759,5.644,9.27,5.644,9.27c-0.677-3.307,1.775-6.168,1.775-6.168C572.929,67.629,574.104,66.862,575.164,66.684z"/>
		</g>
		<g>
			<path style="fill:#20167B;" d="M664.05,406.074c11.543,3.511,20.967,14.697,20.967,14.697s-40.108,55.354-45.049,54.179
				c-4.942-1.188-6.563-5.618-4.341-10.943c2.235-5.325,10.381-35,10.381-35S661.075,417.132,664.05,406.074z"/>
		</g>
		<g>
			<path style="fill:#D4DDFD;" d="M657.742,399.945l6.308,6.129c-2.975,11.058-18.043,22.933-18.043,22.933l-6.972-5.491
				C643.76,420.772,653.783,413.557,657.742,399.945z"/>
		</g>
		<g>
			<path style="fill:#6C80FA;" d="M658.572,396.623c-0.228,1.153-0.498,2.254-0.831,3.324
				c-3.958,13.607-13.981,20.826-18.707,23.568c-1.548,0.893-2.524,1.319-2.524,1.319s-49.526-37.207-62.842-45.838
				c-13.306-8.652-14.854-13.732-14.854-13.732l-0.53-4.394l-20.13,78.88c-0.8,0.28-1.6,0.53-2.399,0.737
				c-12.724,3.635-23.267,0.353-29.125-2.41c-3.22-1.527-5.017-2.888-5.017-2.888l13.659-92.414l11.436-76.179l3.501-23.288
				c0.093,0.073,0.187,0.156,0.301,0.239c1.018,0.8,2.379,1.714,4.103,2.649c0.166,0.093,0.343,0.187,0.519,0.28
				c3.397,1.849,8.372,3.999,14.916,5.526c6.191,1.444,13.784,2.337,22.8,1.891c15.217,2.669,26.986,0.467,32.397-0.987
				c0.322,6.274,0.654,18.074-0.748,26.539c-2.015,12.039-10.179,61.44-10.179,61.44L658.572,396.623z"/>
		</g>
		<g>
			<path style="fill:#D4DDFD;" d="M616.442,174.163l-5.796,2.607l-2.129,32.927V251.9c0,0-1.153,0.447-3.272,1.008
				c-5.412,1.454-17.18,3.656-32.397,0.987c-9.016,0.447-16.609-0.447-22.8-1.891c-6.544-1.527-11.519-3.677-14.916-5.526
				c-0.176-0.093-0.353-0.187-0.519-0.28c-1.911-1.07-3.282-2.015-4.103-2.649c-0.114-0.083-0.208-0.166-0.301-0.239
				c-1.683-1.329-2.389-2.285-2.389-2.285l4.03-30.05l3.511-26.217l1.683-12.6c0,0,4.269-34.309,10.595-42.13
				c6.129-7.572,11.104-9.327,11.416-9.421c-0.073,0.239-2.41,7.718,1.787,7.531c4.248-0.177,24.129-17.991,24.129-17.991
				l-1.049-2.867c4.03,2.67,11.135,7.468,16.131,11.416c7.344,5.796,12.496,21.802,13.794,40.676L616.442,174.163z"/>
		</g>
		<g>
			<path style="fill:#E385A0;" d="M550.724,251.185l29.726-55.686l-1.545-12.361c7.687-0.6,27.837-2.503,31.744-6.372
				c0,0-0.166,1.226-0.472,3.269c-1.328,8.824-5.108,32.868-7.993,38.269c-2.605,4.878-20.163,25.142-29.331,35.588
				c-3.333,3.792-5.555,6.295-5.555,6.295s-0.523,9.27-1.315,12.156c-0.805,2.886-3.818,7.1-3.818,7.1
				c-11.543-3.499-16.332-12.871-16.332-12.871c-6.436,5.682-9.143,1.52-9.143,1.52l14.033-16.894V251.185z"/>
		</g>
		<g>
			<path style="fill:#E385A0;" d="M583.923,107.277l1.047,2.873c0,0-19.881,17.813-24.134,17.992
				c-4.188,0.179-1.852-7.291-1.788-7.534c0.013-0.013,0.013-0.013,0.013-0.013l-0.192-1.903h0.013
				c19.728-5.606,16.651-26.853,16.651-26.853c0.396-2.196,0.498-4.546,0.204-7.01h0.013l2.349,6.461L583.923,107.277z"/>
		</g>
		<g>
			<path style="fill:#20167B;" d="M575.534,91.839c0,0,3.077,21.248-16.651,26.853h-0.013l-0.69-7.112l-0.026-0.102
				C564.732,109.588,573.593,102.322,575.534,91.839z"/>
		</g>
		<g>
			<path style="fill:#20167B;" d="M535.299,444.88c4.38,11.237,1.417,25.551,1.417,25.551s-68.302,2.72-70.435-1.89
				c-2.132-4.61,0.358-8.645,5.912-10.177c5.567-1.532,33.928-13.484,33.928-13.484S524.764,449.374,535.299,444.88z"/>
		</g>
		<g>
			<path style="fill:#D4DDFD;" d="M535.758,440.487l-0.46,4.393c-10.535,4.495-29.178,0-29.178,0l0.511-6.806
				C512.493,440.845,523.027,444.126,535.758,440.487z"/>
		</g>
		<g>
			<path style="fill:#E385A0;" d="M535.362,184.76l-3.511,26.215l-21.874-18.273c0,0-10.062-1.354-10.062-4.214
				c0,0-5.401-1.341-5.018-5.861c0,0-3.754-0.294-3.729-3.371c0,0-4.507-2.056-2.337-6.985l3.933,2.924l3.55-1.928
				c2.592,1.034,2.043,4.482,2.043,4.482l3.243-0.983c2.809,1.417,1.596,5.951,1.596,5.951l4.252-3.103l-4.776-3.78l0.077-0.089
				l-0.038-4.431c0,0-2.401-0.511-5.504-1.239c-3.116-0.741-1.686-4.393-1.686-4.393s9.756-0.345,11.977,1.098
				c2.222,1.443,9.845,11.403,9.845,11.403L535.362,184.76z"/>
		</g>
		<g>
			<path style="fill:#20167B;" d="M488.832,172.271l-10.215-7.61l4.341-4.456l19.716,15.629l4.776,3.78l-4.252,3.103
				c0,0,1.213-4.533-1.596-5.951l-3.243,0.983c0,0,0.549-3.448-2.043-4.482l-3.55,1.928L488.832,172.271z"/>
		</g>
		<g>
			<path style="fill:#DE5883;" d="M545.003,79.085l0.703,17.452c0,0,2.345,1.784,6.833-0.007"/>
		</g>
		<g>
			<path style="fill:#20167B;" d="M553.775,80.439c0.445,1.565,1.78,2.557,2.983,2.215c1.203-0.342,1.817-1.888,1.372-3.453
				c-0.445-1.565-1.78-2.557-2.983-2.215C553.944,77.328,553.33,78.873,553.775,80.439z"/>
		</g>
		<g>
			<path style="fill:#20167B;" d="M557.623,74.998c0.46-0.046,0.883-0.328,1.087-0.779c0.306-0.673,0.009-1.467-0.665-1.772
				c-2.293-1.043-5.002-0.98-7.244,0.166c-0.659,0.336-0.919,1.143-0.583,1.801c0.337,0.658,1.144,0.916,1.801,0.583
				c1.498-0.765,3.384-0.81,4.917-0.112C557.161,74.986,557.397,75.021,557.623,74.998z"/>
		</g>
		<g>
			<path style="fill:#DE5883;" d="M557.93,88.653c0.578,2.033,2.695,3.213,4.728,2.636c2.033-0.578,3.214-2.695,2.636-4.728
				c-0.578-2.033-2.694-3.213-4.728-2.636C558.532,84.503,557.352,86.62,557.93,88.653z"/>
		</g>
		<g>
			<path style="fill:#20167B;" d="M542.254,83.712c0.445,1.565-0.17,3.111-1.372,3.453c-1.203,0.342-2.538-0.65-2.983-2.215
				s0.17-3.111,1.372-3.453C540.474,81.155,541.809,82.147,542.254,83.712z"/>
		</g>
		<g>
			<path style="fill:#20167B;" d="M536.12,81.108c-0.415,0.203-0.923,0.185-1.335-0.091c-0.614-0.411-0.778-1.243-0.367-1.857
				c1.402-2.093,3.739-3.463,6.249-3.668c0.737-0.06,1.383,0.489,1.443,1.226c0.059,0.737-0.491,1.381-1.226,1.443
				c-1.677,0.137-3.305,1.091-4.242,2.49C536.506,80.854,536.324,81.008,536.12,81.108z"/>
		</g>
		<g>
			<path style="fill:#20167B;" d="M552.068,103.185c-0.402,0-0.735-0.318-0.75-0.723c-0.015-0.414,0.309-0.761,0.723-0.776
				c1.18-0.043,2.341-0.539,3.186-1.362c0.846-0.823,1.374-1.97,1.448-3.146c0.025-0.414,0.405-0.729,0.795-0.701
				c0.414,0.026,0.728,0.382,0.701,0.796c-0.097,1.543-0.789,3.047-1.898,4.127c-1.109,1.079-2.632,1.73-4.178,1.786
				C552.086,103.185,552.077,103.185,552.068,103.185z"/>
		</g>
		<g>
			<path style="fill:#20167B;" d="M548.768,98.078c-2.239,0-3.443-0.888-3.517-0.944c-0.178-0.135-0.286-0.343-0.295-0.566
				l-0.703-17.452c-0.017-0.414,0.305-0.763,0.719-0.78c0.402-0.03,0.764,0.305,0.779,0.719l0.688,17.047
				c0.687,0.343,2.629,1.007,5.821-0.269c0.388-0.151,0.82,0.035,0.975,0.419c0.154,0.385-0.033,0.821-0.418,0.975
				C551.224,97.863,549.871,98.078,548.768,98.078z"/>
		</g>
		<g>
			<path style="fill:#20167B;" d="M558.282,361.621c-0.349,0-0.66-0.244-0.733-0.599l-15.709-76.146l-12.162-4.735
				c-0.386-0.15-0.577-0.585-0.427-0.972c0.151-0.386,0.587-0.573,0.972-0.427l12.542,4.884c0.236,0.093,0.411,0.299,0.462,0.548
				l15.791,76.545c0.084,0.405-0.177,0.802-0.583,0.886C558.384,361.616,558.333,361.621,558.282,361.621z"/>
		</g>
		<g>
			<path style="fill:#20167B;" d="M655.995,405.503c-0.167,0-0.335-0.056-0.475-0.169l-75.902-62.051
				c-0.137-0.111-0.229-0.267-0.262-0.44l-11.703-61.149c-11.548-1.541-21.956-14.105-22.4-14.647
				c-0.263-0.321-0.216-0.793,0.104-1.056c0.32-0.262,0.792-0.216,1.056,0.104c0.106,0.131,10.802,13.034,21.95,14.171
				c0.33,0.033,0.599,0.279,0.66,0.605l11.755,61.422l75.691,61.878c0.32,0.263,0.368,0.735,0.107,1.056
				C656.427,405.409,656.212,405.503,655.995,405.503z"/>
		</g>
		<g>
			<path style="fill:#20167B;" d="M538.386,163.739c-0.053,0-0.106-0.005-0.159-0.017c-0.405-0.087-0.662-0.486-0.575-0.892
				c4.977-23.016,12.812-29.181,13.143-29.433c0.332-0.249,0.802-0.186,1.051,0.145c0.25,0.329,0.186,0.798-0.143,1.049l0,0
				c-0.076,0.059-7.748,6.188-12.584,28.557C539.043,163.499,538.732,163.739,538.386,163.739z"/>
		</g>
		<g>
			<path style="fill:#20167B;" d="M613.841,160.125c-0.363,0-0.683-0.265-0.74-0.636c-0.041-0.262-4.212-26.293-18.235-30.628
				c-13.906-4.297-21.77,8.021-22.097,8.548c-0.218,0.351-0.681,0.46-1.032,0.241c-0.352-0.219-0.46-0.681-0.242-1.032
				c0.086-0.139,8.79-13.832,23.815-9.189c14.919,4.611,19.104,30.723,19.274,31.832c0.064,0.41-0.218,0.792-0.627,0.855
				C613.917,160.122,613.879,160.125,613.841,160.125z"/>
		</g>
		<g>
			<path style="fill:#20167B;" d="M572.851,184.796c-0.343,0-0.648-0.235-0.729-0.579l-7.412-31.569
				c-0.095-0.403,0.156-0.807,0.559-0.901c0.402-0.095,0.808,0.155,0.902,0.559l7.254,30.896l5.369-0.806
				c0.414-0.064,0.791,0.221,0.853,0.63c0.061,0.41-0.221,0.791-0.63,0.853l-6.053,0.909
				C572.927,184.794,572.888,184.796,572.851,184.796z"/>
		</g>
		<g>
			<path style="fill:#20167B;" d="M575.864,80.514c-0.327,0-0.628-0.215-0.722-0.545c-0.951-3.343-0.749-6.956,0.57-10.171
				c0.157-0.384,0.594-0.566,0.979-0.409c0.383,0.157,0.566,0.595,0.409,0.979c-1.192,2.906-1.376,6.171-0.516,9.192
				c0.113,0.398-0.118,0.813-0.517,0.926C576.001,80.505,575.931,80.514,575.864,80.514z"/>
		</g>
		<g>
			<path style="fill:#20167B;" d="M505.897,189.318c-0.214,0-0.428-0.092-0.576-0.27c-0.265-0.318-0.223-0.791,0.096-1.056
				c1.672-1.396,2.951-3.214,3.699-5.259c0.162-0.443,0.325-0.962,0.306-1.458c-0.019-0.421-0.189-0.798-0.444-0.984
				c-0.239-0.173-0.611-0.227-1.002-0.143c-0.444,0.095-0.872,0.339-1.269,0.588c-2.853,1.798-5.071,4.673-6.086,7.887
				c-0.124,0.395-0.544,0.614-0.94,0.49c-0.396-0.125-0.614-0.546-0.489-0.941c1.119-3.548,3.567-6.721,6.716-8.705
				c0.489-0.308,1.08-0.642,1.756-0.786c0.809-0.174,1.608-0.029,2.194,0.395c0.628,0.455,1.025,1.253,1.063,2.136
				c0.031,0.76-0.183,1.456-0.395,2.037c-0.838,2.291-2.272,4.33-4.147,5.894C506.238,189.261,506.067,189.318,505.897,189.318z"/>
		</g>
		<g>
			<path style="fill:#20167B;" d="M494.907,183.817c-0.027,0-0.055-0.002-0.082-0.004c-0.412-0.045-0.709-0.415-0.664-0.827
				c0.213-1.96,1.205-3.808,2.722-5.07c1.515-1.262,3.511-1.898,5.478-1.758c0.413,0.03,0.724,0.39,0.693,0.803
				c-0.03,0.413-0.395,0.73-0.803,0.693c-1.586-0.117-3.191,0.399-4.41,1.415c-1.22,1.016-2.018,2.503-2.19,4.081
				C495.61,183.532,495.285,183.817,494.907,183.817z"/>
		</g>
		<g>
			<path style="fill:#20167B;" d="M491.455,179.96c-0.001,0-0.002,0-0.002,0c-0.415-0.001-0.749-0.338-0.748-0.752
				c0.006-1.737,0.72-3.432,1.958-4.651c1.22-1.198,2.89-1.88,4.597-1.88c0.029,0,0.058,0,0.088,0.001
				c0.414,0.006,0.745,0.346,0.739,0.76c-0.006,0.411-0.341,0.74-0.75,0.74c-0.017-0.001-0.05-0.001-0.074-0.001
				c-1.3,0-2.621,0.539-3.548,1.45c-0.941,0.926-1.506,2.267-1.51,3.586C492.204,179.626,491.868,179.96,491.455,179.96z"/>
		</g>
		<g>
			<path style="fill:#20167B;" d="M515.101,190.477c-0.097,0-0.194-0.018-0.289-0.058c-0.382-0.159-0.563-0.599-0.403-0.981
				c1.012-2.423,2.314-4.725,3.871-6.842c0.246-0.333,0.716-0.405,1.049-0.16c0.334,0.245,0.405,0.714,0.16,1.048
				c-1.486,2.021-2.729,4.219-3.695,6.532C515.674,190.303,515.394,190.477,515.101,190.477z"/>
		</g>
		<g>
			<g>
				<g>
					<path style="fill:#6C80FA;" d="M461.363,161.823l-0.374-1.364c-1.483-5.409,0.06-11.234,4.026-15.2
						c3.964-3.964,9.787-5.507,15.195-4.03l1.364,0.373l-0.745,2.728l-1.364-0.372c-4.432-1.21-9.202,0.054-12.451,3.301
						c-3.249,3.249-4.513,8.021-3.299,12.453l0.374,1.363L461.363,161.823z"/>
				</g>
			</g>
			<g>
				<g>
					<path style="fill:#6C80FA;" d="M466.849,161.688l-0.204-1.399c-0.535-3.674,0.713-7.436,3.339-10.061
						c2.621-2.622,6.381-3.87,10.059-3.339l1.399,0.202l-0.404,2.799l-1.399-0.202c-2.84-0.409-5.632,0.516-7.656,2.54
						c-2.027,2.027-2.953,4.817-2.54,7.654l0.204,1.399L466.849,161.688z"/>
				</g>
			</g>
			<g>
				<g>
					<path style="fill:#6C80FA;" d="M475.933,161.503l-2.828-0.007l0.003-1.414c0.004-1.798,0.705-3.486,1.974-4.755
						c1.269-1.269,2.957-1.97,4.756-1.974l1.414-0.003l0.007,2.828l-1.414,0.003c-1.046,0.003-2.027,0.409-2.763,1.145
						c-0.736,0.736-1.143,1.718-1.145,2.763L475.933,161.503z"/>
				</g>
			</g>
		</g>
	</g>
	<g>
		<g>
			<path style="fill:#6C80FA;" d="M402.517,227.694c-0.176,0.042-2.337,0.831-6.17,1.62c-5.422,1.143-14.189,2.254-25.428,1.215
				c-14.625-1.35-25.739-7.25-30.185-9.961c-1.371-0.852-2.119-1.392-2.119-1.392l2.67-20.598c0,0-1.818-9.109-3.812-19.86
				c-2.129-11.457-4.467-24.784-5.059-30.985c-1.153-12.028,8.788-20.764,8.788-20.764c-0.187-2.971,3.189-4.082,3.189-4.082
				s0.685,0.519,1.839,1.382c5.007,3.708,18.697,13.701,21.771,14.054c3.345,0.395,2.919-5.941,2.794-7.364
				c3.054,0.769,8.528,2.389,12.911,5.027c6.45,3.906,10.096,17.243,10.096,17.243c3.397,4.196,6.43,9.109,6.824,13.534
				l1.901,27.328c0.01,1.558,0.062,5.121,0.104,9.38C402.715,213.598,402.798,227.642,402.517,227.694z"/>
		</g>
		<g>
			<path style="fill:#E79DB7;" d="M432.51,147.109c2.656-0.294,7.304-0.766,10.254-0.843c1.52-0.051,2.592,0.026,2.707,0.268
				c0.447,0.958-0.932,4.214-0.932,4.214s2.222,0.473,2.707,1.2c0.051,0.077,0.077,0.179,0.077,0.307
				c0,0.97-1.647,3.103-2.911,3.729c0,0,0.357,1.226-0.307,2.477c-0.102,0.191-0.243,0.396-0.409,0.587
				c-1.2,1.417-7.151,4.176-7.151,4.176s-1.277,2.528-3.984,3.767c-2.707,1.251-14.914,5.899-14.914,5.899
				s-7.432,11.096-15.119,21.197c-5.376,7.061-10.879,13.625-14.084,15.617c-7.815,4.852-15.719,0.306-17.34-1.354
				c-1.622-1.66-25.781-30.11-25.781-30.11l25.602-10.535l10.892,16.332l19.371-16.625l12.335-10.598c0,0,3.843-7.623,6.27-9.462
				c2.426-1.839,10.65,0,10.65,0S431.258,147.25,432.51,147.109z"/>
		</g>
		<g>
			<path style="fill:#E79DB7;" d="M444.321,164.245c-2.49,2.477-13.05,5.682-13.05,5.682l-28.552,33.544h-0.089
				c-0.038-4.265-0.089-7.827-0.102-9.385c7.687-10.1,15.119-21.197,15.119-21.197s12.207-4.648,14.914-5.899
				c2.707-1.239,3.984-3.767,3.984-3.767s5.95-2.758,7.151-4.176c0.166-0.192,0.307-0.396,0.409-0.587l1.813,0.23
				C445.917,158.691,446.798,161.755,444.321,164.245z"/>
		</g>
		<g>
			<path style="fill:#E79DB7;" d="M445.47,146.535c-0.115-0.243-1.188-0.319-2.707-0.268v-0.013
				c-0.753-2.477,2.835-3.397,2.835-3.397c-0.191-1.596,1.622-4.367,3.026-4.967c1.392-0.6,1.839,1.749,2.12,3.767
				c0.026,0.179,0.026,0.37,0.013,0.549c-0.153,1.8-2.184,3.358-2.184,3.358c0.779,1.954,0.319,4.176,0.319,4.176
				s0.294,0.613,0.409,2.375l-1.979,0.141c0-0.128-0.025-0.23-0.077-0.307c-0.485-0.728-2.707-1.2-2.707-1.2
				S445.917,147.492,445.47,146.535z"/>
		</g>
		<g>
			<path style="fill:#E79DB7;" d="M449.327,152.792c0.064,2.286-3.409,5.899-3.409,5.899l-1.813-0.23
				c0.664-1.251,0.307-2.477,0.307-2.477c1.264-0.626,2.911-2.758,2.911-3.729l1.979-0.141
				C449.301,152.319,449.314,152.549,449.327,152.792z"/>
		</g>
		<g>
			<path style="fill:#20167B;" d="M459.555,129.667l-8.785,12.539h-0.013c0.013-0.179,0.013-0.37-0.013-0.549
				c-0.281-2.018-0.728-4.367-2.12-3.767c-1.405,0.6-3.218,3.371-3.026,4.967c0,0-3.588,0.919-2.835,3.397v0.013
				c-2.95,0.077-7.598,0.549-10.254,0.843l15.451-17.443H459.555z"/>
		</g>
		<g>
			<path style="fill:#20167B;" d="M404.558,474.893l-28.616,0.051l-4.993-20.98l-0.996,20.992l-4.278,0.013
				c0,0-2.413-26.355-2.132-32.753c0.102-2.426,0.523-4.661,1.022-6.487c3.933,1.29,15.732,4.508,23.559,0.102l3.716,22.027
				l6.116,8.632C397.956,466.491,404.558,473.105,404.558,474.893z"/>
		</g>
		<g>
			<path style="fill:#20167B;" d="M345.565,80.544c0.434-2.898,1.341-5.555,2.911-7.7c2.439-3.333,5.184-5.963,8.07-7.942
				c7.457-5.108,15.834-5.797,22.103-2.631c8.696,4.405,23.648,11.186,21.567,16.421c-2.094,5.235-5.095,5.963-5.095,5.963
				c-2.388-8.938-12.654-10.215-12.654-10.215c-9.577,10.815-22.384,8.645-22.384,8.645c-1.213-1.481-2.35-2.222-3.371-2.413
				c-5.631-1.021-7.802,14.85-0.46,16.625c-0.281,1.737-0.357,3.397-0.243,4.98l-4.444,9.985
				C351.566,112.262,343.611,93.773,345.565,80.544z"/>
		</g>
		<g>
			<path style="fill:#EAAB6D;" d="M351.094,387.986c-1.864-7.074-3.448-12.961-4.303-15.821c-3.192-10.649,0-19.166,0-19.166
				s-0.651-1.954-1.724-5.325c-5.618-17.609-22.959-73.806-20.648-90.342c2.707-19.384,15.885-36.213,16.319-36.762
				c4.444,2.707,15.553,8.606,30.186,9.96c11.237,1.034,19.996-0.077,25.423-1.213c0.166,4.252,0.958,26.483-0.026,32.102
				c-1.085,6.206-3.154,83.421-4.163,88.745c-0.638,3.384-6.883,9.487-11.352,13.484c2.745,27.007,8.223,71.622,8.223,71.622
				c-0.294,0.191-0.6,0.383-0.907,0.562c-7.827,4.405-19.626,1.188-23.559-0.102c-0.843-0.268-1.328-0.46-1.328-0.46
				S356.15,407.229,351.094,387.986z"/>
		</g>
		<g>
			<path style="fill:#E79DB7;" d="M356.303,104.639c-0.141-0.766-0.243-1.545-0.294-2.362c-0.115-1.583-0.038-3.243,0.243-4.98
				c-7.342-1.775-5.171-17.647,0.46-16.625c1.021,0.192,2.158,0.932,3.371,2.413c0,0,12.807,2.171,22.384-8.645
				c0,0,10.266,1.277,12.654,10.215c0,0-1.52,11.875-2.043,17.66c-0.511,5.784-8.517,20.048-15.974,20.558
				c-1.545,0.102-3.486-0.243-5.567-1.009c-6.18-2.26-13.548-8.262-15.234-17.213C356.303,104.639,356.303,104.639,356.303,104.639z
				"/>
		</g>
		<g>
			<path style="fill:#20167B;" d="M371.537,121.865l-0.026,0.051l-0.587,6.908h-0.013c-16.651-6.729-15.004-21.695-14.608-24.172
				C357.989,113.603,365.357,119.604,371.537,121.865z"/>
		</g>
		<g>
			<path style="fill:#E79DB7;" d="M370.796,130.956c0.128,1.43,0.549,7.764-2.796,7.368c-3.077-0.358-16.766-10.343-21.771-14.059
				l5.338-12.003l4.444-9.985c0.051,0.817,0.153,1.596,0.294,2.362c0,0,0,0,0,0.013c-0.396,2.477-2.043,17.443,14.608,24.172
				l-0.153,1.852C370.758,130.675,370.771,130.777,370.796,130.956z"/>
		</g>
		<g>
			<path style="fill:#20167B;" d="M355.32,55.733c1.686,2.592,2.081,5.976,1.034,8.887l0.191,0.281
				c-2.886,1.979-5.631,4.61-8.07,7.942c-1.571,2.145-2.477,4.801-2.911,7.7c-2.72,0.702-5.708,0.434-8.211-0.843
				c-3.46-1.762-5.925-5.376-6.27-9.245c-0.345-3.741,1.149-7.419,3.141-10.598c2.95-4.737,7.815-9.015,13.382-8.645
				C350.685,51.43,353.635,53.154,355.32,55.733z"/>
		</g>
		<g>
			<path style="fill:#EAAB6D;" d="M298.587,397.205c-0.332-1.583-0.281-3.192,0.281-4.801c0,0,26.381-36.098,46.199-44.73
				c1.073,3.371,1.724,5.325,1.724,5.325s-3.192,8.517,0,19.166c0.855,2.86,2.439,8.747,4.303,15.821l-33.417,28.194
				c0,0-1.507-0.792-3.678-2.171C308.866,410.741,300.017,404.216,298.587,397.205z"/>
		</g>
		<g>
			<path style="fill:#20167B;" d="M313.999,414.01l-15.221,18.962l-2.375,10.318c0,0-0.549,9.334-1.89,10.522l-19.077-21.324
				l12.348-17.685l-16.345,13.216l-2.848-3.18c0,0,18.081-19.345,23.048-23.393c2.439-1.992,4.993-3.371,6.946-4.239
				C300.017,404.216,308.866,410.741,313.999,414.01z"/>
		</g>
		<g>
			<path style="fill:#DE5883;" d="M385.889,92.709l-0.22,15.236c0,0-2.272,1.726-6.616-0.012"/>
		</g>
		<g>
			<path style="fill:#20167B;" d="M377.394,94.012c-0.432,1.515-1.726,2.475-2.89,2.143c-1.164-0.332-1.758-1.829-1.326-3.344
				c0.432-1.515,1.726-2.475,2.89-2.143C377.232,91,377.826,92.497,377.394,94.012z"/>
		</g>
		<g>
			<path style="fill:#20167B;" d="M373.671,88.742c-0.445-0.045-0.854-0.318-1.052-0.755c-0.296-0.652-0.007-1.42,0.645-1.716
				c2.221-1.008,4.844-0.945,7.014,0.166c0.637,0.326,0.889,1.107,0.563,1.745c-0.327,0.637-1.109,0.887-1.745,0.563
				c-1.45-0.742-3.277-0.787-4.761-0.113C374.119,88.73,373.891,88.764,373.671,88.742z"/>
		</g>
		<g>
			<path style="fill:#DE5883;" d="M373.364,101.964c-0.561,1.968-2.612,3.109-4.58,2.549c-1.969-0.561-3.109-2.612-2.548-4.58
				c0.561-1.968,2.612-3.109,4.58-2.549C372.784,97.944,373.925,99.995,373.364,101.964z"/>
		</g>
		<g>
			<path style="fill:#20167B;" d="M388.547,97.191c-0.432,1.515,0.162,3.013,1.326,3.344c1.164,0.332,2.458-0.628,2.89-2.143
				c0.432-1.515-0.162-3.013-1.326-3.344C390.273,94.716,388.979,95.676,388.547,97.191z"/>
		</g>
		<g>
			<path style="fill:#20167B;" d="M394.489,94.675c0.402,0.197,0.894,0.18,1.292-0.087c0.595-0.398,0.755-1.203,0.356-1.798
				c-1.356-2.028-3.618-3.356-6.048-3.557c-0.714-0.059-1.339,0.472-1.398,1.186c-0.058,0.714,0.475,1.338,1.186,1.398
				c1.624,0.134,3.199,1.059,4.105,2.414C394.115,94.428,394.291,94.577,394.489,94.675z"/>
		</g>
		<g>
			<path style="fill:#20167B;" d="M379.504,114.4c-0.009,0-0.018,0-0.027,0c-1.503-0.055-2.982-0.688-4.06-1.738
				c-1.077-1.049-1.749-2.512-1.843-4.014c-0.026-0.413,0.287-0.77,0.701-0.795c0.413-0.029,0.77,0.289,0.795,0.702
				c0.072,1.135,0.58,2.24,1.394,3.033c0.813,0.793,1.932,1.272,3.067,1.313c0.414,0.015,0.737,0.363,0.722,0.777
				C380.238,114.082,379.906,114.4,379.504,114.4z"/>
		</g>
		<g>
			<path style="fill:#20167B;" d="M382.708,109.458c-1.071,0-2.387-0.21-3.934-0.829c-0.385-0.154-0.572-0.59-0.418-0.975
				c0.153-0.385,0.593-0.573,0.975-0.418c3.042,1.217,4.907,0.611,5.594,0.276l0.215-14.815c0.006-0.415,0.348-0.708,0.761-0.739
				c0.414,0.006,0.745,0.347,0.739,0.761l-0.221,15.236c-0.003,0.231-0.112,0.447-0.296,0.586
				C386.052,108.596,384.881,109.458,382.708,109.458z"/>
		</g>
		<g>
			<path style="fill:#20167B;" d="M351.093,388.737c-0.331,0-0.634-0.221-0.724-0.556c-0.035-0.127-3.442-12.841-5.175-21.185
				c-1.575-7.587,0.273-12.784,0.795-14.036l-1.636-5.054c-0.128-0.395,0.088-0.817,0.482-0.945c0.395-0.125,0.817,0.09,0.944,0.482
				l1.724,5.326c0.059,0.182,0.045,0.381-0.037,0.555c-0.025,0.052-2.473,5.327-0.804,13.367c1.724,8.302,5.121,20.975,5.155,21.102
				c0.107,0.399-0.129,0.812-0.53,0.919C351.223,388.729,351.158,388.737,351.093,388.737z"/>
		</g>
		<g>
			<path style="fill:#20167B;" d="M380.806,364.399c-0.389,0-0.718-0.301-0.747-0.694l-7.516-101.877
				c-0.025-0.343,0.186-0.658,0.511-0.768l19.169-6.39c0.396-0.128,0.817,0.081,0.949,0.475c0.131,0.393-0.082,0.817-0.475,0.949
				l-18.615,6.205l7.473,101.295c0.03,0.413-0.279,0.772-0.693,0.803C380.843,364.398,380.825,364.399,380.806,364.399z"/>
		</g>
		<g>
			<path style="fill:#20167B;" d="M391.277,264.415h-15.619c-0.414,0-0.75-0.336-0.75-0.75c0-0.414,0.336-0.75,0.75-0.75h15.619
				c0.414,0,0.75,0.336,0.75,0.75C392.027,264.079,391.691,264.415,391.277,264.415z"/>
		</g>
		<g>
			<path style="fill:#20167B;" d="M367.528,437.346c-0.344,0-0.654-0.238-0.731-0.589c-0.514-2.338-12.597-57.358-13.42-66.296
				c-0.767-8.326,1.225-15.93,1.622-17.338c-1.353-4.433-22.766-74.714-25.278-89.331c-2.628-15.292,15.665-39.421,16.445-40.441
				c0.251-0.329,0.723-0.392,1.051-0.14c0.329,0.251,0.392,0.722,0.14,1.051c-0.187,0.245-18.676,24.627-16.158,39.276
				c2.565,14.926,25.072,88.617,25.299,89.359c0.043,0.142,0.043,0.293,0.001,0.435c-0.024,0.082-2.433,8.258-1.628,16.992
				c0.814,8.844,13.265,65.539,13.391,66.11c0.089,0.404-0.167,0.805-0.571,0.894C367.635,437.34,367.582,437.346,367.528,437.346z"
				/>
		</g>
		<g>
			<path style="fill:#20167B;" d="M370.925,168.456c-0.293,0-0.571-0.173-0.691-0.46c-0.16-0.382,0.02-0.822,0.401-0.982
				l1.248-0.522l-6.364-17.252c-0.143-0.389,0.056-0.82,0.444-0.963c0.393-0.143,0.82,0.056,0.964,0.444l6.612,17.926
				c0.139,0.377-0.044,0.796-0.414,0.952l-1.91,0.8C371.12,168.437,371.021,168.456,370.925,168.456z"/>
		</g>
		<g>
			<path style="fill:#20167B;" d="M343.414,179.458c-0.314,0-0.603-0.198-0.709-0.507l-6.922-20.247
				c-0.215-0.851-4.688-19.449,7.685-24.876c12.403-5.443,20.332,7.806,20.411,7.94c0.209,0.357,0.089,0.816-0.269,1.025
				c-0.357,0.209-0.817,0.089-1.026-0.268c-0.294-0.502-7.339-12.229-18.514-7.324c-11.227,4.924-6.896,22.898-6.851,23.079
				l6.682,19.537l1.241-0.305c0.404-0.099,0.808,0.147,0.907,0.55c0.099,0.402-0.148,0.809-0.55,0.907l-1.907,0.468
				C343.533,179.451,343.473,179.458,343.414,179.458z"/>
		</g>
		<g>
			<path style="fill:#20167B;" d="M394.619,155.007c-0.208,0-0.416-0.086-0.563-0.255l-11.033-12.584
				c-0.273-0.312-0.242-0.786,0.069-1.059c0.309-0.272,0.786-0.243,1.058,0.069l11.033,12.584c0.273,0.311,0.242,0.786-0.069,1.059
				C394.971,154.946,394.795,155.007,394.619,155.007z"/>
		</g>
		<g>
			<path style="fill:#20167B;" d="M381.339,188.688c-0.03,0-0.062-0.002-0.093-0.005c-0.411-0.051-0.703-0.425-0.652-0.836
				l0.479-3.9c0.05-0.411,0.424-0.697,0.836-0.653c0.411,0.051,0.703,0.425,0.652,0.836l-0.479,3.9
				C382.036,188.409,381.712,188.688,381.339,188.688z"/>
		</g>
		<g>
			<path style="fill:#20167B;" d="M402.527,194.837c-0.15,0-0.303-0.046-0.435-0.139c-0.337-0.241-0.416-0.709-0.175-1.046
				l15.118-21.197c0.087-0.122,0.209-0.215,0.35-0.268c0.132-0.049,13.199-4.896,15.61-6.278c2.195-1.258,2.838-2.926,2.845-2.942
				c0.077-0.208,0.245-0.376,0.455-0.45c1.613-0.569,5.964-2.429,7.082-4.294l0.289-2.331c0.028-0.226,0.158-0.428,0.353-0.547
				c0.88-0.54,2.662-1.987,2.557-3.012c-0.024-0.234-0.107-0.396-0.268-0.525c-0.457-0.365-1.388-0.349-1.679-0.314
				c-0.293,0.032-0.58-0.104-0.732-0.357c-0.152-0.252-0.145-0.57,0.022-0.813c0.588-0.856,1.389-2.415,1.242-3.043
				c-0.017-0.068-0.033-0.078-0.058-0.091c-1.065-0.596-2.022-0.241-2.064-0.226c-0.382,0.145-0.818-0.039-0.97-0.422
				c-0.151-0.382,0.029-0.813,0.409-0.969c0.067-0.026,1.641-0.651,3.357,0.308c0.405,0.227,0.677,0.593,0.786,1.06
				c0.219,0.939-0.295,2.192-0.783,3.105c0.47,0.082,0.98,0.252,1.4,0.586c0.477,0.379,0.763,0.914,0.828,1.547
				c0.197,1.916-2.072,3.647-2.956,4.245l-0.264,2.13c-0.011,0.09-0.039,0.178-0.081,0.258c-1.327,2.508-6.276,4.492-7.668,5.009
				c-0.334,0.673-1.271,2.194-3.357,3.39c-2.371,1.358-13.832,5.639-15.619,6.303l-14.984,21.009
				C402.992,194.728,402.761,194.837,402.527,194.837z"/>
		</g>
		<g>
			<path style="fill:#20167B;" d="M425.325,149.552c-0.327,0-0.628-0.215-0.722-0.545c-0.113-0.398,0.118-0.813,0.518-0.926
				l5.116-1.45c0.4-0.109,0.813,0.119,0.926,0.517c0.113,0.398-0.118,0.813-0.518,0.926l-5.116,1.45
				C425.461,149.543,425.392,149.552,425.325,149.552z"/>
		</g>
		<g>
			<path style="fill:#20167B;" d="M436.623,153.447c-0.106,0-0.157-0.02-0.219-0.045c-0.384-0.155-0.57-0.592-0.415-0.976
				c0.111-0.277,0.369-0.451,0.648-0.468c0.552-0.1,4.991-1.232,7.713-1.936c0.395-0.104,0.81,0.136,0.914,0.538
				c0.104,0.401-0.138,0.811-0.539,0.914C438.345,153.125,437.045,153.447,436.623,153.447z"/>
		</g>
		<g>
			<path style="fill:#20167B;" d="M437.615,158.293c-0.342,0-0.65-0.235-0.73-0.582c-0.092-0.404,0.16-0.806,0.563-0.899l6.795-1.56
				c0.404-0.095,0.807,0.159,0.899,0.563c0.092,0.404-0.16,0.806-0.564,0.899l-6.795,1.56
				C437.727,158.287,437.671,158.293,437.615,158.293z"/>
		</g>
		<g>
			<path style="fill:#20167B;" d="M448.572,146.314c-0.4,0-0.733-0.317-0.748-0.722c-0.037-0.957-1.667-1.774-2.45-2.02
				c-0.395-0.124-0.615-0.545-0.491-0.94c0.124-0.396,0.54-0.618,0.94-0.491c0.349,0.11,3.413,1.135,3.499,3.395
				c0.017,0.414-0.307,0.762-0.721,0.778C448.592,146.314,448.582,146.314,448.572,146.314z"/>
		</g>
		<g>
			<path style="fill:#20167B;" d="M446.069,151.238c-0.099,0-0.199-0.02-0.296-0.061c-0.381-0.164-0.557-0.604-0.393-0.985
				c0.421-0.98,1.069-1.356,1.539-1.499c1.155-0.349,2.26,0.338,2.382,0.418c0.348,0.226,0.446,0.69,0.221,1.038
				c-0.225,0.346-0.685,0.444-1.034,0.223c-0.176-0.111-0.719-0.371-1.138-0.242c-0.088,0.028-0.358,0.112-0.591,0.654
				C446.636,151.068,446.359,151.238,446.069,151.238z"/>
		</g>
		<g>
			<path style="fill:#20167B;" d="M445.918,159.441c-0.031,0-0.064-0.002-0.096-0.006l-1.813-0.23
				c-0.41-0.052-0.701-0.428-0.649-0.838c0.052-0.411,0.419-0.705,0.839-0.65l1.813,0.23c0.41,0.052,0.701,0.428,0.649,0.838
				C446.613,159.164,446.29,159.441,445.918,159.441z"/>
		</g>
		<g>
			<path style="fill:#20167B;" d="M356.291,94.038c-0.065,0-0.13-0.008-0.196-0.026c-0.4-0.108-0.636-0.52-0.528-0.92
				c0.802-2.968,0.536-6.277-0.731-9.078c-0.171-0.377-0.003-0.822,0.375-0.993c0.375-0.169,0.822-0.004,0.993,0.375
				c1.428,3.158,1.717,6.74,0.813,10.088C356.924,93.818,356.621,94.038,356.291,94.038z"/>
		</g>
		<g>
			<g>
				<g>
					<path style="fill:#6C80FA;" d="M457.551,111.343l1.364-0.374c5.409-1.483,11.234,0.06,15.2,4.026
						c3.964,3.964,5.507,9.787,4.03,15.195l-0.373,1.364l-2.728-0.745l0.372-1.364c1.21-4.432-0.054-9.202-3.301-12.451
						c-3.249-3.249-8.021-4.513-12.453-3.299l-1.363,0.374L457.551,111.343z"/>
				</g>
			</g>
			<g>
				<g>
					<path style="fill:#6C80FA;" d="M457.685,116.829l1.399-0.204c3.675-0.535,7.436,0.713,10.061,3.339
						c2.621,2.621,3.869,6.381,3.339,10.059l-0.202,1.399l-2.799-0.404l0.202-1.399c0.409-2.84-0.516-5.632-2.54-7.656
						c-2.027-2.027-4.817-2.953-7.654-2.54l-1.399,0.204L457.685,116.829z"/>
				</g>
			</g>
			<g>
				<g>
					<path style="fill:#6C80FA;" d="M457.871,125.913l0.007-2.828l1.414,0.003c1.798,0.004,3.487,0.705,4.755,1.973
						c1.269,1.269,1.97,2.958,1.974,4.756l0.003,1.414l-2.828,0.007l-0.003-1.414c-0.003-1.046-0.409-2.027-1.145-2.763
						c-0.736-0.736-1.718-1.143-2.763-1.145L457.871,125.913z"/>
				</g>
			</g>
		</g>
	</g>
	<g>
		<g>
			<path style="fill:#20167B;" d="M243.832,400.367c11.543,3.511,20.967,14.684,20.967,14.684s-40.095,55.367-45.05,54.18
				c-4.942-1.175-6.563-5.618-4.329-10.943c2.222-5.312,10.381-35,10.381-35S240.856,411.425,243.832,400.367z"/>
		</g>
		<g>
			<path style="fill:#D4DDFD;" d="M238.341,395.017l5.491,5.35c-2.975,11.058-18.03,22.921-18.03,22.921l-6.436-5.069
				C231.011,410.953,236.234,400.661,238.341,395.017z"/>
		</g>
		<g>
			<path style="fill:#20167B;" d="M238.341,395.017c-2.107,5.644-7.329,15.936-18.975,23.202c-1.111,0.702-2.298,1.366-3.537,2.005
				l-62.377-57.435l0.268-11.314c0,0,17.149-27.837,30.046-51.498v35.549l55.852,55.38
				C239.618,390.905,239.286,392.501,238.341,395.017z"/>
		</g>
		<g>
			<path style="fill:#EAAB6D;" d="M197.327,237.701c-7.483,2.528-24.696,7.342-44.207,5.976
				c-16.012-1.124-24.747-5.925-29.114-9.487c-2.771-2.247-3.78-3.997-3.78-3.997l4.38-30.761l-18.107-5.797l0.319-1.966l1.06-6.41
				c2.413,0.281,4.124,0.447,4.124,0.447l5.184-16.97l0.319-1.021h2.132c0,0,19.639-45.318,25.206-49.57
				c5.555-4.265,13.663-5.018,13.663-5.018h0.013l0.345,1.877c0,0,2.426,5.389,7.087,3.843c4.661-1.532,17.813-16.485,17.813-16.485
				l-1.762-3.818c0.37,0.102,6.321,1.89,8.504,5.044c0,0,12.079,7.457,16.932,18.107c4.839,10.649,1.775,38.805-1.903,52.89
				c-3.665,14.071-5.912,23.546-5.912,23.546l1.66,38.103C201.285,236.232,199.868,236.833,197.327,237.701z"/>
		</g>
		<g>
			<path style="fill:#20167B;" d="M183.766,299.976c-12.897,23.661-30.046,51.498-30.046,51.498l-0.268,11.314l-1.864,76.717
				c0,0-2.426,0.396-6.218,0.753c-7.432,0.715-20.111,1.29-30.059-1.468c-2.005-0.562-3.907-1.264-5.618-2.12
				c0,0,2.132-81.467,3.205-89.461c0.217-1.609,1.405-5.874,3.18-11.684c-3.805-8.019,7.93-101.336,7.93-101.336
				c4.367,3.563,13.101,8.364,29.114,9.487c19.511,1.366,36.724-3.448,44.207-5.976c0.191,0.715,6.244,22.767-5.631,47.041
				C189.448,289.339,186.715,294.549,183.766,299.976z"/>
		</g>
		<g>
			<path style="fill:#E385A0;" d="M182.004,98.543l1.762,3.818c0,0-13.152,14.953-17.813,16.485
				c-4.661,1.545-7.087-3.843-7.087-3.843l-0.345-1.877c19.166-7.304,14.263-28.194,14.263-28.194
				c0.217-2.222,0.115-4.559-0.383-6.985l5.503,11.824l4.086,8.76C181.991,98.53,181.991,98.53,182.004,98.543z"/>
		</g>
		<g>
			<path style="fill:#20167B;" d="M160.743,58.729c-0.6,0.97-1.341,1.852-2.196,2.605c-1.8,1.571-4.201,2.516-6.576,2.299
				c-2.388-0.23-4.674-1.724-5.58-3.933c-1.775,2.847-4.163,5.35-7.087,6.972c-2.439,1.328-5.261,2.03-8.006,1.813
				c-0.575-0.038-1.136-0.128-1.698-0.255c-3.269-0.728-6.244-2.963-7.572-6.027c-1.341-3.077-0.868-6.934,1.405-9.398
				c1.213-1.303,2.809-2.171,4.38-3.001c3.946-2.107,7.891-4.214,11.85-6.321c3.563-1.903,7.291-3.856,11.326-3.933
				c5.414-0.115,10.254,3.09,14.685,6.18l0.281-0.153c4.431-2.043,9.909,0.664,12.488,4.814c2.579,4.137,2.911,9.258,2.873,14.135
				c-0.089,8.428-1.098,16.842-3.001,25.053l-0.409,0.191l-5.503-11.824v-0.013c-0.064-0.332-0.14-0.651-0.23-0.983
				c7.406-2.464,3.767-18.605-1.941-17.06c-1.034,0.281-2.133,1.149-3.256,2.784c0,0-2.899,3.065-1.06,7.687
				C165.634,70.004,161.496,64.59,160.743,58.729z"/>
		</g>
		<g>
			<path style="fill:#E385A0;" d="M172.171,76.95c0.089,0.332,0.166,0.651,0.23,0.983v0.013c0.498,2.426,0.6,4.763,0.383,6.985
				c-1.021,10.598-9.232,18.605-15.617,21.069c-1.29,0.498-2.503,0.766-3.563,0.792c-7.713,0.14-17.839-15.502-18.886-21.414
				c-0.855-4.827-2.758-13.778-3.422-16.894c2.745,0.217,5.567-0.485,8.006-1.813c2.924-1.622,5.312-4.124,7.087-6.972
				c0.907,2.209,3.192,3.703,5.58,3.933c2.375,0.217,4.776-0.728,6.576-2.299c0.855-0.753,1.596-1.634,2.196-2.605
				c0.753,5.861,4.891,11.275,5.171,11.633c-1.839-4.622,1.06-7.687,1.06-7.687c1.124-1.634,2.222-2.503,3.256-2.784
				C175.938,58.346,179.577,74.486,172.171,76.95z"/>
		</g>
		<g>
			<path style="fill:#20167B;" d="M172.784,84.931c0,0,4.903,20.89-14.263,28.194h-0.013l-1.302-7.023L157.168,106
				C163.552,103.536,171.763,95.53,172.784,84.931z"/>
		</g>
		<g>
			<path style="fill:#20167B;" d="M144.488,448.621c4.38,11.237,1.417,25.551,1.417,25.551s-68.302,2.72-70.434-1.89
				c-2.132-4.61,0.357-8.632,5.912-10.177c5.567-1.532,33.927-13.484,33.927-13.484S133.953,453.116,144.488,448.621z"/>
		</g>
		<g>
			<path style="fill:#D4DDFD;" d="M145.369,440.258l-0.881,8.364c-10.535,4.495-29.178,0-29.178,0v-9.832
				C125.258,441.547,137.937,440.973,145.369,440.258z"/>
		</g>
		<g>
			<path style="fill:#E385A0;" d="M107.879,185.258c-3.869-0.434-9.577-1.136-12.846-1.839c-0.766-0.153-1.392-0.319-1.839-0.473
				c-3.55-1.239-3.014-4.878-3.014-4.878c-3.154-1.239-2.311-5.235-2.311-5.235c-0.524-0.255-0.919-0.6-1.213-0.971
				c-1.226-1.532-0.919-3.729-0.919-3.729s-3.013-1.315-5.197-2.873c-1.085-0.766-1.954-1.571-2.171-2.324
				c-0.421-1.456,0.575-3.294,1.354-4.418l2.579,2.975l16.396-0.6l-4.061-4.942c2.515-0.523,9.577-1.749,12.22,0.204
				c2.413,1.775,7.751,8.99,10.33,12.578l-5.184,16.97C112.003,185.705,110.292,185.539,107.879,185.258z"/>
		</g>
		<g>
			<path style="fill:#E385A0;" d="M107.879,185.258l-1.06,6.41l-11.786-8.236v-0.013C98.302,184.122,104.01,184.824,107.879,185.258
				z"/>
		</g>
		<g>
			<polygon style="fill:#20167B;" points="94.637,155.953 98.698,160.895 82.302,161.495 79.723,158.52 68.167,145.15 
				85.737,145.15 			"/>
		</g>
		<g>
			<path style="fill:#E385A0;" d="M85.737,168.135c0,0-0.306,2.196,0.919,3.729c-10.228-1.813-6.116-6.602-6.116-6.602
				C82.724,166.82,85.737,168.135,85.737,168.135z"/>
		</g>
		<g>
			<path style="fill:#DE5883;" d="M141.271,74.859l2.205,17.326c0,0,2.49,1.575,6.807-0.596"/>
		</g>
		<g>
			<path style="fill:#20167B;" d="M150.127,75.451c0.578,1.521,1.994,2.394,3.163,1.95c1.169-0.444,1.648-2.037,1.07-3.558
				c-0.578-1.521-1.994-2.394-3.163-1.95C150.028,72.337,149.549,73.93,150.127,75.451z"/>
		</g>
		<g>
			<path style="fill:#20167B;" d="M153.492,69.699c0.454-0.085,0.851-0.403,1.016-0.87c0.247-0.697-0.118-1.462-0.815-1.709
				c-2.374-0.841-5.067-0.545-7.203,0.79c-0.627,0.392-0.817,1.218-0.425,1.845c0.393,0.626,1.219,0.814,1.845,0.425
				c1.427-0.891,3.302-1.099,4.889-0.536C153.031,69.726,153.268,69.741,153.492,69.699z"/>
		</g>
		<g>
			<path style="fill:#DE5883;" d="M154.976,83.276c0.751,1.976,2.962,2.969,4.938,2.218c1.976-0.751,2.969-2.962,2.218-4.938
				c-0.751-1.976-2.962-2.969-4.938-2.218C155.218,79.09,154.225,81.3,154.976,83.276z"/>
		</g>
		<g>
			<path style="fill:#20167B;" d="M145.961,93.487c-1.797,0-2.816-0.624-2.886-0.668c-0.189-0.12-0.315-0.317-0.343-0.539
				l-2.205-17.327c-0.052-0.411,0.239-0.787,0.649-0.839c0.413-0.044,0.787,0.238,0.839,0.649l2.154,16.925
				c0.714,0.282,2.706,0.776,5.777-0.77c0.37-0.188,0.821-0.038,1.007,0.333c0.186,0.37,0.037,0.821-0.333,1.007
				C148.747,93.201,147.176,93.487,145.961,93.487z"/>
		</g>
		<g>
			<path style="fill:#20167B;" d="M138.932,79.705c0.578,1.521,0.099,3.114-1.07,3.558c-1.169,0.444-2.585-0.429-3.163-1.95
				c-0.578-1.521-0.099-3.114,1.07-3.558C136.937,77.312,138.354,78.184,138.932,79.705z"/>
		</g>
		<g>
			<path style="fill:#20167B;" d="M132.595,77.64c-0.396,0.238-0.904,0.264-1.337,0.025c-0.648-0.357-0.883-1.171-0.525-1.819
				c1.217-2.206,3.427-3.773,5.909-4.193c0.729-0.123,1.42,0.368,1.543,1.097c0.122,0.729-0.37,1.418-1.097,1.543
				c-1.659,0.281-3.198,1.372-4.011,2.847C132.959,77.354,132.791,77.523,132.595,77.64z"/>
		</g>
		<g>
			<path style="fill:#20167B;" d="M150.323,98.262c-0.374,0-0.697-0.278-0.744-0.659c-0.05-0.411,0.242-0.785,0.653-0.836
				c1.17-0.143,2.284-0.738,3.056-1.631c0.771-0.893,1.198-2.081,1.171-3.26c-0.009-0.414,0.319-0.757,0.733-0.767
				c0.415,0.022,0.757,0.319,0.767,0.733c0.035,1.546-0.524,3.104-1.536,4.275c-1.012,1.171-2.473,1.95-4.008,2.139
				C150.384,98.26,150.353,98.262,150.323,98.262z"/>
		</g>
		<g>
			<path style="fill:#7777A6;" d="M116.076,336.276c-0.083,0-0.167-0.014-0.25-0.043c-0.391-0.138-0.596-0.566-0.457-0.957
				l25.36-71.845l-10.759-6.08c-0.36-0.204-0.488-0.662-0.284-1.022c0.203-0.361,0.661-0.488,1.022-0.284l11.306,6.39
				c0.316,0.18,0.459,0.56,0.338,0.903l-25.569,72.438C116.675,336.083,116.385,336.276,116.076,336.276z"/>
		</g>
		<g>
			<path style="fill:#7777A6;" d="M153.452,363.537c-0.006,0-0.012,0-0.018,0c-0.414-0.01-0.742-0.354-0.732-0.768l0.268-11.314
				c0.003-0.127,0.038-0.251,0.102-0.36l30.046-51.498c0.209-0.358,0.669-0.479,1.026-0.27c0.358,0.208,0.479,0.668,0.27,1.025
				l-29.949,51.331l-0.263,11.12C154.192,363.213,153.858,363.537,153.452,363.537z"/>
		</g>
		<g>
			<path style="fill:#7777A6;" d="M145.368,441.008c-0.4,0-0.732-0.315-0.749-0.719l-3.723-89.848
				c-0.006-0.144,0.029-0.285,0.102-0.409c0.304-0.52,30.418-52.163,37.947-68.797c7.45-16.459,4.114-39.523,4.08-39.753
				c-0.062-0.41,0.221-0.792,0.631-0.853c0.409-0.064,0.791,0.22,0.853,0.63c0.035,0.235,3.438,23.728-4.197,40.595
				c-7.328,16.19-35.884,65.271-37.907,68.744l3.714,89.628c0.017,0.414-0.305,0.764-0.718,0.78
				C145.389,441.008,145.379,441.008,145.368,441.008z"/>
		</g>
		<g>
			<path style="fill:#20167B;" d="M155.608,178.171c-0.065,0-0.131-0.009-0.195-0.026l-35.969-9.707
				c-0.4-0.108-0.637-0.52-0.529-0.919c0.108-0.4,0.521-0.636,0.92-0.529l35.227,9.507l9.994-40.904
				c0.098-0.402,0.502-0.648,0.907-0.55c0.402,0.098,0.648,0.504,0.55,0.907l-10.176,41.65c-0.048,0.196-0.173,0.365-0.347,0.467
				C155.873,178.135,155.74,178.171,155.608,178.171z"/>
		</g>
		<g>
			<path style="fill:#20167B;" d="M204.832,142.91c-0.028,0-0.057-0.002-0.086-0.005c-0.412-0.047-0.707-0.419-0.66-0.83
				c0.945-8.271-2.681-21.463-16.542-23.906c-13.648-2.413-19.174,11.593-19.402,12.19c-0.148,0.388-0.583,0.581-0.968,0.433
				c-0.387-0.147-0.581-0.581-0.433-0.967c0.06-0.158,6.187-15.756,21.064-13.133c14.881,2.623,18.781,16.719,17.772,25.554
				C205.533,142.628,205.208,142.91,204.832,142.91z"/>
		</g>
		<g>
			<path style="fill:#20167B;" d="M170.076,211.39c-0.637,0-1.3-0.029-1.993-0.092c-11.131-1.007-54.958-22.179-56.818-23.08
				c-0.313-0.151-0.481-0.499-0.405-0.839l0.412-1.838c0.09-0.404,0.491-0.659,0.896-0.568c0.404,0.091,0.658,0.492,0.568,0.896
				l-0.282,1.257c5.141,2.47,45.549,21.753,55.764,22.677c10.407,0.938,13.551-5.998,13.679-6.294l20.588-47.92
				c0.163-0.381,0.604-0.557,0.985-0.393c0.381,0.164,0.557,0.605,0.393,0.985l-20.588,47.921
				C183.242,204.179,180.036,211.39,170.076,211.39z"/>
		</g>
		<g>
			<path style="fill:#20167B;" d="M124.607,200.182c-0.029,0-0.059-0.001-0.089-0.005c-0.411-0.048-0.705-0.421-0.656-0.833
				l0.648-5.469c0.048-0.411,0.412-0.709,0.833-0.656c0.411,0.048,0.705,0.421,0.656,0.833l-0.648,5.469
				C125.306,199.902,124.982,200.182,124.607,200.182z"/>
		</g>
		<g>
			<path style="fill:#20167B;" d="M131.115,171.148c-0.068,0-0.138-0.009-0.206-0.029c-0.398-0.114-0.629-0.529-0.515-0.927
				l10.413-36.402c0.114-0.398,0.531-0.629,0.927-0.515c0.398,0.114,0.629,0.529,0.515,0.927l-10.413,36.402
				C131.742,170.933,131.441,171.148,131.115,171.148z"/>
		</g>
		<g>
			<path style="fill:#20167B;" d="M172.285,71.661c-0.25,0-0.493-0.125-0.636-0.351c-1.667-2.656-1.597-6.32,0.172-8.911
				c0.234-0.343,0.701-0.43,1.042-0.196c0.342,0.233,0.43,0.7,0.196,1.042c-1.442,2.113-1.5,5.101-0.14,7.267
				c0.22,0.351,0.114,0.814-0.236,1.034C172.559,71.624,172.421,71.661,172.285,71.661z"/>
		</g>
		<g>
			<g>
				<g>
					<path style="fill:#6C80FA;" d="M47.955,144.971l-0.374-1.364c-1.483-5.409,0.06-11.234,4.026-15.2
						c3.964-3.964,9.787-5.507,15.195-4.03l1.364,0.373l-0.745,2.728l-1.364-0.372c-4.432-1.21-9.202,0.054-12.451,3.301
						c-3.249,3.25-4.513,8.021-3.299,12.453l0.374,1.363L47.955,144.971z"/>
				</g>
			</g>
			<g>
				<g>
					<path style="fill:#6C80FA;" d="M53.441,144.836l-0.204-1.399c-0.535-3.674,0.713-7.436,3.339-10.061
						c2.621-2.622,6.381-3.87,10.059-3.339l1.399,0.202l-0.404,2.799l-1.399-0.202c-2.84-0.409-5.632,0.516-7.656,2.54
						c-2.027,2.027-2.953,4.817-2.54,7.654l0.204,1.399L53.441,144.836z"/>
				</g>
			</g>
			<g>
				<g>
					<path style="fill:#6C80FA;" d="M62.526,144.651l-2.828-0.007l0.003-1.414c0.004-1.798,0.705-3.486,1.974-4.755
						c1.269-1.269,2.958-1.969,4.756-1.974l1.414-0.003l0.007,2.828l-1.414,0.003c-1.046,0.003-2.027,0.409-2.763,1.145
						c-0.736,0.736-1.143,1.718-1.145,2.763L62.526,144.651z"/>
				</g>
			</g>
		</g>
	</g>
	<g>
		<g>
			<g>
				<path style="fill:#EAAB6D;" d="M233.284,167.486l1.59-2.791c6.308-11.072,18.142-17.949,30.885-17.949
					c12.734,0,24.568,6.875,30.884,17.937l1.592,2.789l-5.579,3.184l-1.592-2.789c-5.175-9.063-14.869-14.696-25.304-14.698
					c-10.44,0-20.136,5.635-25.304,14.706l-1.59,2.791L233.284,167.486z"/>
			</g>
		</g>
		<g>
			<g>
				<path style="fill:#EAAB6D;" d="M242.313,176.083l1.92-2.575c5.043-6.762,13.091-10.799,21.526-10.799
					c8.422,0,16.467,4.035,21.523,10.796l1.923,2.572l-5.145,3.847l-1.923-2.572c-3.905-5.22-9.876-8.219-16.378-8.219
					c-6.513,0-12.482,2.995-16.376,8.216l-1.92,2.575L242.313,176.083z"/>
			</g>
		</g>
		<g>
			<g>
				<path style="fill:#EAAB6D;" d="M257.204,190.378l-4.531-4.554l2.277-2.266c2.894-2.881,6.733-4.468,10.809-4.468
					c4.076,0,7.915,1.587,10.81,4.469l2.277,2.266l-4.531,4.553l-2.277-2.266c-1.684-1.676-3.913-2.598-6.278-2.599
					c-2.365,0.001-4.595,0.923-6.278,2.598L257.204,190.378z"/>
			</g>
		</g>
	</g>
	<g>
		<g>
			<path style="fill:#6C80FA;" d="M38.199,79.716c-2.574,0-2.578,4,0,4C40.773,83.716,40.777,79.716,38.199,79.716z"/>
		</g>
		<g>
			<path style="fill:#6C80FA;" d="M84.902,70.82c-2.574,0-2.578,4,0,4C87.475,74.82,87.48,70.82,84.902,70.82z"/>
		</g>
		<g>
			<path style="fill:#6C80FA;" d="M63.775,34.349c-2.574,0-2.578,4,0,4C66.348,38.349,66.352,34.349,63.775,34.349z"/>
		</g>
		<g>
			<path style="fill:#6C80FA;" d="M235.017,36.349c-2.574,0-2.578,4,0,4C237.591,40.349,237.596,36.349,235.017,36.349z"/>
		</g>
		<g>
			<path style="fill:#6C80FA;" d="M286.168,104.179c-2.574,0-2.578,4,0,4C288.742,108.179,288.746,104.179,286.168,104.179z"/>
		</g>
		<g>
			<path style="fill:#6C80FA;" d="M412.933,44.133c-2.574,0-2.578,4,0,4C415.507,48.133,415.511,44.133,412.933,44.133z"/>
		</g>
		<g>
			<path style="fill:#6C80FA;" d="M506.338,80.828c-2.574,0-2.578,4,0,4C508.912,84.828,508.916,80.828,506.338,80.828z"/>
		</g>
		<g>
			<path style="fill:#6C80FA;" d="M495.218,37.461c-2.574,0-2.578,4,0,4C497.792,41.461,497.796,37.461,495.218,37.461z"/>
		</g>
		<g>
			<path style="fill:#6C80FA;" d="M626.431,35.237c-2.574,0-2.578,4,0,4C629.004,39.237,629.009,35.237,626.431,35.237z"/>
		</g>
		<g>
			<path style="fill:#6C80FA;" d="M730.956,37.461c-2.574,0-2.578,4,0,4C733.529,41.461,733.534,37.461,730.956,37.461z"/>
		</g>
		<g>
			<path style="fill:#6C80FA;" d="M660.902,95.284c-2.574,0-2.578,4,0,4C663.475,99.284,663.48,95.284,660.902,95.284z"/>
		</g>
		<g>
			<path style="fill:#6C80FA;" d="M654.23,169.786c-2.574,0-2.578,4,0,4C656.804,173.786,656.808,169.786,654.23,169.786z"/>
		</g>
		<g>
			<path style="fill:#6C80FA;" d="M724.284,157.554c-2.574,0-2.578,4,0,4C726.858,161.554,726.862,157.554,724.284,157.554z"/>
		</g>
	</g>
</g>
</svg>
